<?xml version="1.0" encoding="utf-8"?>
<!-- Generator: Adobe Illustrator 18.1.1, SVG Export Plug-In . SVG Version: 6.00 Build 0)  -->
<svg version="1.1" id="Isolation_Mode" xmlns="http://www.w3.org/2000/svg" xmlns:xlink="http://www.w3.org/1999/xlink" x="0px"
	 y="0px" viewBox="0 0 205.3 137.3" enable-background="new 0 0 205.3 137.3" xml:space="preserve">
<g>
	<g>
		<path fill="#E8F6F0" d="M205.3,121.4c0,8.8-7.1,16-16,16H16c-8.8,0-16-7.1-16-16V16C0,7.1,7.1,0,16,0h173.4c8.8,0,16,7.1,16,16
			V121.4z"/>
	</g>
	<g>
		<ellipse fill="#DADADA" cx="102.6" cy="68.7" rx="25.1" ry="30.9"/>
	</g>
	<g>
		<path fill="#DADADA" d="M181.6,130H24c-8.6,0-15.5-6.8-15.5-15.1V22.1C8.4,13.8,15.4,7,24,7h157.6c8.6,0,15.5,6.8,15.5,15.1v92.9
			C197.1,123.3,190.1,130,181.6,130z M24,9c-7.4,0-13.5,5.9-13.5,13.1v92.9c0,7.2,6.1,13.1,13.5,13.1h157.6
			c7.4,0,13.5-5.9,13.5-13.1V22.1c0-7.2-6.1-13.1-13.5-13.1H24z"/>
	</g>
	<g>
		<path fill="#5E5F5E" d="M141.1,63.1h-1.4v-9.2c0-0.8,0-1.5,0.1-2.2c-0.1,0.1-0.3,0.3-0.4,0.4s-0.8,0.7-2.1,1.7l-0.8-1l3.4-2.6h1.2
			V63.1z"/>
		<path fill="#5E5F5E" d="M154.4,63.1H146v-1.3l3.4-3.4c1-1,1.7-1.8,2-2.2s0.6-0.9,0.7-1.3s0.2-0.9,0.2-1.4c0-0.7-0.2-1.2-0.6-1.6
			s-1-0.6-1.7-0.6c-0.5,0-1,0.1-1.5,0.3s-1,0.5-1.6,1l-0.8-1c1.2-1,2.5-1.5,3.9-1.5c1.2,0,2.2,0.3,2.8,0.9s1,1.4,1,2.5
			c0,0.8-0.2,1.6-0.7,2.4s-1.3,1.8-2.6,3l-2.8,2.8v0.1h6.6V63.1z"/>
		<path fill="#5E5F5E" d="M164.2,53.2c0,0.8-0.2,1.5-0.7,2c-0.5,0.5-1.1,0.9-2,1v0.1c1,0.1,1.8,0.5,2.3,1s0.7,1.2,0.7,2.1
			c0,1.2-0.4,2.2-1.3,2.8s-2.1,1-3.6,1c-0.7,0-1.3-0.1-1.9-0.2c-0.6-0.1-1.1-0.3-1.6-0.5v-1.4c0.6,0.3,1.1,0.5,1.8,0.6
			s1.2,0.2,1.8,0.2c2.2,0,3.3-0.9,3.3-2.6c0-1.6-1.2-2.3-3.7-2.3h-1.3v-1.3h1.3c1,0,1.8-0.2,2.4-0.7s0.9-1.1,0.9-1.8
			c0-0.6-0.2-1.1-0.6-1.5c-0.4-0.4-1-0.5-1.8-0.5c-0.6,0-1.1,0.1-1.6,0.2s-1.1,0.4-1.7,0.8l-0.7-1c0.5-0.4,1.1-0.7,1.8-1
			c0.7-0.2,1.4-0.4,2.2-0.4c1.2,0,2.2,0.3,2.9,0.9S164.2,52.3,164.2,53.2z"/>
		<path fill="#5E5F5E" d="M175.6,60.1h-1.9v3h-1.4v-3h-6.2v-1.3l6.1-8.7h1.5v8.6h1.9V60.1z M172.3,58.8v-4.3c0-0.8,0-1.8,0.1-2.8
			h-0.1c-0.3,0.6-0.5,1-0.8,1.4l-4,5.7H172.3z"/>
	</g>
</g>
</svg>
