<?xml version="1.0" encoding="utf-8"?>
<!-- Generator: Adobe Illustrator 19.0.0, SVG Export Plug-In . SVG Version: 6.00 Build 0)  -->
<!DOCTYPE svg PUBLIC "-//W3C//DTD SVG 1.1//EN" "http://www.w3.org/Graphics/SVG/1.1/DTD/svg11.dtd">
<svg version="1.1" id="Layer_1" xmlns="http://www.w3.org/2000/svg" xmlns:xlink="http://www.w3.org/1999/xlink" x="0px" y="0px"
	 width="57px" height="40px" viewBox="0 0 57 40" enable-background="new 0 0 57 40" xml:space="preserve">
<path id="XMLID_21_" fill="#50809E" d="M33,17v5H6v-5H33 M34,16H5v7h29V16L34,16z"/>
<path id="XMLID_19_" fill-rule="evenodd" clip-rule="evenodd" fill="#50809E" d="M1,6h55v7H1V6z"/>
<path id="XMLID_17_" fill="#50809E" d="M53,2c1.1,0,2,0.9,2,2v32c0,1.1-0.9,2.1-2,2.1H4c-1.1,0-2-0.9-2-2.1V4c0-1.1,0.9-2,2-2H53
	 M53,0H4C1.8,0,0,1.8,0,4v32C0,38.2,1.8,40,4,40h49c2.2,0,4-1.8,4-4.1V4C57,1.8,55.2,0,53,0L53,0z"/>
<path id="XMLID_15_" fill="#EE5951" stroke="#EE5951" stroke-width="0.15" stroke-miterlimit="10" d="M36.4,21.8h0.7l1.4-1.9
	l1.4,1.9h0.7l-1.7-2.3l1.6-2.1h-0.7L38.5,19l-1.3-1.7h-0.7l1.6,2.1L36.4,21.8z"/>
<path id="XMLID_13_" fill="#EE5951" stroke="#EE5951" stroke-width="0.15" stroke-miterlimit="10" d="M41.4,21.8h0.7l1.4-1.9
	l1.4,1.9h0.7l-1.7-2.3l1.6-2.1h-0.7L43.5,19l-1.3-1.7h-0.7l1.6,2.1L41.4,21.8z"/>
<path id="XMLID_11_" fill="#EE5951" stroke="#EE5951" stroke-width="0.15" stroke-miterlimit="10" d="M46.4,21.8h0.7l1.4-1.9
	l1.4,1.9h0.7l-1.7-2.3l1.6-2.1h-0.7L48.5,19l-1.3-1.7h-0.7l1.6,2.1L46.4,21.8z"/>
</svg>
