<?xml version="1.0" encoding="utf-8"?>
<!-- Generator: Adobe Illustrator 19.0.0, SVG Export Plug-In . SVG Version: 6.00 Build 0)  -->
<!DOCTYPE svg PUBLIC "-//W3C//DTD SVG 1.1//EN" "http://www.w3.org/Graphics/SVG/1.1/DTD/svg11.dtd">
<svg version="1.1" id="Layer_1" xmlns="http://www.w3.org/2000/svg" xmlns:xlink="http://www.w3.org/1999/xlink" x="0px" y="0px"
	 width="57px" height="40px" viewBox="0 0 57 40" enable-background="new 0 0 57 40" xml:space="preserve">
<polygon id="XMLID_21_" fill="#50809E" points="20,33 5,33 5,34 20,34 20,33 "/>
<polygon id="XMLID_2_" fill="#50809E" points="27,30 5,30 5,31 27,31 27,30 "/>
<path id="XMLID_19_" fill="#50809E" d="M18.8,6C19.6,6,20,6.7,20,7.5v3.1c0,0.8-0.6,1.3-1.4,1.3H7.4C6.6,12,6,11.4,6,10.7V7.5
	C6,6.7,6.6,6,7.4,6H19 M18.6,5H7.4C6.1,5,5,6.2,5,7.5v3.1C5,12,6.1,13,7.4,13h11.1c1.3,0,2.4-1,2.4-2.3V7.5C21,6.2,19.9,5,18.6,5
	L18.6,5z"/>
<path id="XMLID_23_" fill-rule="evenodd" clip-rule="evenodd" fill="#50809E" d="M5,25h10v2H5V25z"/>
<path id="XMLID_25_" fill-rule="evenodd" clip-rule="evenodd" fill="#50809E" d="M17,25h13v2H17V25z"/>
<path id="XMLID_30_" fill-rule="evenodd" clip-rule="evenodd" fill="#50809E" d="M32,25h13v2H32V25z"/>
<path id="XMLID_17_" fill="#50809E" d="M53,2c1.1,0,2,0.8,2,1.9v32c0,1.1-0.9,2.1-2,2.1H4c-1.1,0-2-0.9-2-2.1V4c0-1.1,0.9-2,2-2
	L53,2 M53,0H4C1.8,0,0,1.8,0,4v32C0,38.2,1.8,40,4,40h49c2.2,0,4-1.8,4-4.1V4C57,1.8,55.2,0,53,0L53,0z"/>
<path id="XMLID_1_" fill="#EE5951" stroke="#EE5951" stroke-width="0.15" stroke-miterlimit="10" d="M37.4,20.8h0.7l1.4-1.9l1.4,1.9
	h0.7l-1.7-2.3l1.6-2.1h-0.7L39.5,18l-1.3-1.7h-0.7l1.6,2.1L37.4,20.8z"/>
<path id="XMLID_15_" fill="#EE5951" stroke="#EE5951" stroke-width="0.15" stroke-miterlimit="10" d="M32.4,20.8h0.7l1.4-1.9
	l1.4,1.9h0.7l-1.7-2.3l1.6-2.1h-0.7L34.5,18l-1.3-1.7h-0.7l1.6,2.1L32.4,20.8z"/>
<path id="XMLID_13_" fill="#EE5951" stroke="#EE5951" stroke-width="0.15" stroke-miterlimit="10" d="M42.4,20.8h0.7l1.4-1.9
	l1.4,1.9h0.7l-1.7-2.3l1.6-2.1h-0.7L44.5,18l-1.3-1.7h-0.7l1.6,2.1L42.4,20.8z"/>
<path id="XMLID_11_" fill="#EE5951" stroke="#EE5951" stroke-width="0.15" stroke-miterlimit="10" d="M47.4,20.8h0.7l1.4-1.9
	l1.4,1.9h0.7l-1.7-2.3l1.6-2.1h-0.7L49.5,18l-1.3-1.7h-0.7l1.6,2.1L47.4,20.8z"/>
</svg>
