<?xml version="1.0" encoding="iso-8859-1"?>
<!-- Generator: Adobe Illustrator 18.1.1, SVG Export Plug-In . SVG Version: 6.00 Build 0)  -->
<svg version="1.1" id="Layer_1" xmlns="http://www.w3.org/2000/svg" xmlns:xlink="http://www.w3.org/1999/xlink" x="0px" y="0px"
	 viewBox="0 0 105.25 28.125" style="enable-background:new 0 0 105.25 28.125;" xml:space="preserve">
<g>
	<g>
		<path style="fill:#060E9F;" d="M39.019,12.48c0-6.804-8.454-12.351-18.884-12.351C9.706,0.129,1.252,5.675,1.252,12.48
			c0,0.176-0.002,0.661-0.002,0.723c0,7.219,7.389,13.065,18.883,13.065c11.564,0,18.886-5.845,18.886-13.064
			C39.019,12.952,39.019,12.807,39.019,12.48z"/>
		<ellipse style="fill:#00ADEE;" cx="20.139" cy="12.474" rx="18.157" ry="11.615"/>
		<g>
			<path style="fill:#FFFFFF;" d="M14.11,8.809c-0.01,0.018-0.191,0.206-0.073,0.356c0.287,0.366,1.172,0.576,2.067,0.375
				c0.533-0.12,1.216-0.663,1.878-1.188c0.717-0.57,1.428-1.14,2.144-1.367c0.757-0.241,1.242-0.138,1.563-0.041
				c0.352,0.105,0.765,0.336,1.425,0.831c1.242,0.934,6.238,5.295,7.101,6.048c0.695-0.314,3.785-1.644,7.983-2.569
				c-0.365-2.238-1.726-4.286-3.791-5.963c-2.878,1.209-6.395,1.839-9.834,0.16c-0.018-0.007-1.879-0.888-3.715-0.845
				c-2.729,0.063-3.911,1.244-5.162,2.495L14.11,8.809z"/>
			<path style="fill:#FFFFFF;" d="M30.01,14.299c-0.058-0.052-5.874-5.141-7.192-6.131c-0.762-0.572-1.186-0.718-1.632-0.774
				c-0.232-0.03-0.552,0.013-0.776,0.074c-0.613,0.167-1.414,0.703-2.126,1.267c-0.737,0.587-1.431,1.139-2.076,1.284
				c-0.824,0.185-1.829-0.033-2.288-0.343c-0.186-0.125-0.317-0.269-0.38-0.416c-0.17-0.393,0.143-0.707,0.194-0.76l1.605-1.736
				c0.187-0.186,0.375-0.372,0.567-0.556c-0.518,0.067-0.996,0.2-1.462,0.329c-0.582,0.164-1.141,0.319-1.707,0.319
				c-0.236,0-1.502-0.207-1.742-0.273C9.545,6.185,8.27,5.798,6.366,4.909C4.085,6.607,2.559,8.731,2.118,11.07
				c0.328,0.087,0.856,0.244,1.078,0.293c5.163,1.148,6.771,2.331,7.063,2.577c0.316-0.351,0.771-0.574,1.28-0.574
				c0.571,0.001,1.086,0.288,1.399,0.731c0.296-0.234,0.703-0.433,1.231-0.433c0.239,0,0.488,0.044,0.739,0.13
				c0.583,0.2,0.883,0.588,1.039,0.939c0.196-0.088,0.436-0.153,0.719-0.153c0.278,0,0.567,0.063,0.859,0.189
				c0.952,0.409,1.1,1.343,1.014,2.048c0.068-0.008,0.136-0.011,0.205-0.011c1.128,0.001,2.047,0.918,2.046,2.047
				c0,0.349-0.089,0.678-0.245,0.966c0.307,0.173,1.09,0.563,1.777,0.476c0.549-0.069,0.758-0.257,0.832-0.362
				c0.051-0.073,0.105-0.158,0.055-0.218l-1.457-1.618c0,0-0.24-0.227-0.161-0.314c0.082-0.09,0.23,0.039,0.335,0.127
				c0.741,0.619,1.647,1.554,1.647,1.554c0.015,0.01,0.075,0.129,0.41,0.189c0.288,0.052,0.798,0.022,1.151-0.269
				c0.089-0.073,0.178-0.165,0.253-0.259c-0.006,0.005-0.011,0.011-0.016,0.013c0.372-0.477-0.041-0.959-0.041-0.959l-1.701-1.91
				c0,0-0.243-0.225-0.161-0.315c0.074-0.078,0.231,0.04,0.337,0.129c0.538,0.45,1.299,1.214,2.029,1.928
				c0.142,0.104,0.783,0.501,1.632-0.057c0.515-0.338,0.618-0.753,0.604-1.066c-0.036-0.414-0.359-0.71-0.359-0.71l-2.323-2.336
				c0,0-0.245-0.21-0.159-0.316c0.071-0.089,0.23,0.039,0.335,0.127c0.74,0.619,2.744,2.456,2.744,2.456
				c0.028,0.02,0.721,0.513,1.576-0.032c0.306-0.196,0.501-0.49,0.518-0.833C30.43,14.652,30.01,14.299,30.01,14.299z"/>
			<path style="fill:#FFFFFF;" d="M18.742,17.26c-0.36-0.004-0.754,0.21-0.806,0.179c-0.028-0.019,0.022-0.164,0.056-0.247
				c0.035-0.083,0.509-1.51-0.647-2.006c-0.885-0.38-1.426,0.048-1.612,0.241c-0.049,0.05-0.071,0.046-0.076-0.018
				c-0.018-0.257-0.133-0.952-0.897-1.185c-1.092-0.334-1.793,0.428-1.971,0.703c-0.08-0.622-0.606-1.105-1.25-1.106
				c-0.7-0.001-1.268,0.566-1.269,1.266c0,0.7,0.567,1.267,1.267,1.267c0.34,0.001,0.649-0.135,0.876-0.354
				c0.007,0.007,0.01,0.019,0.006,0.043c-0.053,0.313-0.151,1.452,1.041,1.916c0.478,0.186,0.885,0.048,1.222-0.189
				c0.1-0.071,0.117-0.041,0.103,0.053c-0.043,0.293,0.011,0.92,0.89,1.276c0.669,0.272,1.065-0.006,1.324-0.246
				c0.113-0.103,0.144-0.086,0.15,0.073c0.032,0.847,0.736,1.52,1.591,1.521c0.881,0.001,1.595-0.711,1.595-1.592
				C20.336,17.974,19.622,17.269,18.742,17.26z"/>
		</g>
		<path style="fill:#060E9F;" d="M30.235,13.69c-1.791-1.563-5.932-5.163-7.053-6.004c-0.64-0.482-1.078-0.736-1.461-0.851
			c-0.172-0.052-0.411-0.111-0.718-0.112c-0.285,0-0.591,0.052-0.911,0.153c-0.725,0.229-1.446,0.803-2.145,1.358l-0.036,0.028
			c-0.651,0.517-1.323,1.052-1.831,1.166c-0.222,0.05-0.451,0.076-0.678,0.076c-0.57-0.001-1.082-0.165-1.274-0.41
			c-0.032-0.04-0.011-0.106,0.063-0.2l0.01-0.012l1.576-1.698c1.234-1.234,2.4-2.4,5.084-2.461c0.044-0.001,0.09-0.002,0.134-0.002
			c1.67,0.001,3.34,0.749,3.528,0.835c1.566,0.764,3.183,1.152,4.808,1.153c1.694,0.001,3.441-0.419,5.279-1.265
			c-0.205-0.173-0.419-0.341-0.638-0.505c-1.614,0.7-3.152,1.053-4.636,1.053c-1.515-0.001-3.03-0.365-4.499-1.083
			c-0.078-0.037-1.921-0.906-3.84-0.907c-0.05,0-0.101,0.001-0.151,0.002c-2.254,0.053-3.524,0.853-4.378,1.555
			c-0.83,0.02-1.547,0.22-2.184,0.398c-0.569,0.158-1.06,0.295-1.539,0.295c-0.197,0-0.553-0.018-0.584-0.019
			c-0.551-0.017-3.327-0.698-5.535-1.534c-0.226,0.16-0.442,0.324-0.653,0.492c2.307,0.946,5.114,1.677,6,1.734
			c0.247,0.016,0.509,0.044,0.772,0.045c0.586,0,1.171-0.164,1.737-0.323c0.334-0.094,0.703-0.196,1.091-0.27
			c-0.104,0.102-0.207,0.205-0.311,0.309l-1.601,1.732c-0.126,0.127-0.4,0.467-0.219,0.885c0.072,0.169,0.217,0.33,0.421,0.467
			c0.381,0.257,1.065,0.431,1.699,0.431c0.24,0,0.468-0.024,0.678-0.071c0.671-0.151,1.375-0.711,2.121-1.304
			c0.594-0.472,1.439-1.072,2.085-1.248c0.181-0.049,0.402-0.08,0.581-0.08c0.053,0.001,0.104,0.002,0.15,0.009
			c0.427,0.054,0.84,0.2,1.577,0.753c1.314,0.987,7.13,6.075,7.187,6.125c0.004,0.003,0.375,0.323,0.349,0.855
			c-0.014,0.296-0.179,0.56-0.465,0.743c-0.248,0.158-0.504,0.238-0.763,0.238c-0.389-0.001-0.656-0.183-0.674-0.195
			c-0.022-0.018-2.014-1.845-2.747-2.458c-0.117-0.097-0.23-0.184-0.345-0.184c-0.061-0.001-0.116,0.026-0.152,0.072
			c-0.116,0.142,0.014,0.339,0.166,0.469l2.328,2.34c0.003,0.002,0.29,0.272,0.321,0.63c0.018,0.388-0.167,0.712-0.553,0.965
			c-0.275,0.181-0.553,0.273-0.825,0.273c-0.357,0-0.608-0.163-0.664-0.201L25.581,17.6c-0.61-0.6-1.24-1.221-1.701-1.606
			c-0.112-0.093-0.233-0.18-0.347-0.18c-0.057,0-0.108,0.021-0.147,0.062c-0.053,0.058-0.089,0.164,0.042,0.338
			c0.054,0.072,0.118,0.131,0.118,0.131l1.699,1.908c0.014,0.017,0.35,0.416,0.038,0.814l-0.06,0.076
			c-0.051,0.056-0.106,0.108-0.158,0.152c-0.29,0.238-0.677,0.263-0.83,0.263c-0.082,0-0.161-0.007-0.23-0.02
			c-0.168-0.03-0.28-0.077-0.335-0.141l-0.02-0.022c-0.093-0.096-0.949-0.97-1.658-1.561c-0.093-0.078-0.21-0.177-0.33-0.177
			c-0.059,0-0.112,0.023-0.153,0.069c-0.14,0.154,0.07,0.383,0.159,0.467l1.449,1.598c-0.002,0.014-0.02,0.047-0.055,0.097
			c-0.052,0.072-0.228,0.248-0.753,0.313c-0.063,0.008-0.128,0.012-0.192,0.012c-0.542,0-1.12-0.263-1.418-0.421
			c0.135-0.286,0.206-0.602,0.206-0.918c0.001-1.193-0.968-2.162-2.16-2.163c-0.025,0-0.053,0.001-0.078,0.002
			c0.039-0.544-0.038-1.575-1.096-2.029c-0.304-0.132-0.608-0.199-0.903-0.199c-0.231,0-0.453,0.04-0.662,0.12
			c-0.219-0.426-0.583-0.736-1.058-0.898c-0.262-0.091-0.523-0.137-0.776-0.137c-0.44,0-0.846,0.13-1.208,0.387
			c-0.347-0.431-0.87-0.686-1.422-0.686c-0.482,0-0.947,0.193-1.291,0.534c-0.451-0.344-2.24-1.481-7.027-2.568
			c-0.232-0.052-0.764-0.205-1.09-0.3c-0.054,0.259-0.095,0.521-0.122,0.786c0,0,0.883,0.211,1.057,0.251
			c4.891,1.086,6.507,2.216,6.78,2.429c-0.092,0.222-0.141,0.462-0.141,0.703c-0.001,1.01,0.821,1.833,1.832,1.834
			c0.113,0,0.226-0.01,0.336-0.03c0.152,0.744,0.639,1.307,1.382,1.597c0.217,0.083,0.437,0.126,0.653,0.126
			c0.14,0,0.28-0.017,0.417-0.052c0.137,0.349,0.446,0.784,1.137,1.064c0.242,0.097,0.485,0.148,0.72,0.148
			c0.192,0,0.38-0.034,0.56-0.1c0.331,0.806,1.119,1.341,1.997,1.341c0.582,0.001,1.141-0.236,1.548-0.656
			c0.349,0.194,1.085,0.545,1.83,0.546c0.096,0,0.187-0.007,0.277-0.018c0.739-0.093,1.083-0.383,1.241-0.607
			c0.028-0.039,0.054-0.081,0.076-0.124c0.175,0.05,0.366,0.091,0.586,0.092c0.404,0,0.791-0.138,1.183-0.423
			c0.385-0.277,0.658-0.676,0.697-1.015c0.001-0.005,0.002-0.01,0.002-0.015c0.13,0.027,0.263,0.041,0.396,0.041
			c0.415,0,0.824-0.13,1.215-0.385c0.753-0.494,0.884-1.139,0.872-1.562c0.132,0.028,0.266,0.042,0.4,0.042
			c0.39,0,0.773-0.117,1.138-0.35c0.467-0.298,0.748-0.756,0.791-1.287c0.029-0.362-0.06-0.726-0.251-1.04
			c1.262-0.544,4.147-1.596,7.545-2.362c-0.02-0.264-0.058-0.524-0.105-0.783C34.071,12.02,31.003,13.348,30.235,13.69z
			 M18.742,20.333c-0.798-0.001-1.447-0.621-1.476-1.412c-0.002-0.068-0.009-0.248-0.162-0.248c-0.063,0-0.117,0.038-0.18,0.094
			c-0.175,0.163-0.399,0.328-0.726,0.328c-0.148,0-0.309-0.035-0.478-0.104c-0.843-0.341-0.855-0.92-0.82-1.153
			c0.009-0.062,0.012-0.127-0.03-0.177l-0.052-0.046h-0.053c-0.043,0-0.087,0.018-0.147,0.059c-0.244,0.171-0.478,0.255-0.715,0.255
			c-0.131,0-0.265-0.026-0.4-0.078c-1.11-0.432-1.022-1.479-0.968-1.795c0.008-0.064-0.008-0.113-0.048-0.146l-0.078-0.065
			l-0.073,0.07c-0.217,0.209-0.499,0.323-0.797,0.323c-0.636-0.001-1.153-0.517-1.152-1.153c0.001-0.636,0.518-1.152,1.154-1.151
			c0.574,0,1.063,0.432,1.137,1.006l0.04,0.309l0.17-0.262c0.019-0.031,0.485-0.735,1.341-0.734c0.163,0,0.331,0.026,0.5,0.079
			c0.683,0.208,0.798,0.827,0.816,1.085c0.012,0.15,0.119,0.158,0.14,0.158c0.059,0,0.102-0.037,0.133-0.07
			c0.129-0.134,0.409-0.358,0.849-0.358c0.201,0.001,0.415,0.048,0.635,0.143c1.085,0.465,0.593,1.844,0.587,1.858
			c-0.093,0.228-0.097,0.329-0.009,0.388l0.043,0.02h0.032c0.049,0,0.11-0.021,0.21-0.055c0.148-0.051,0.371-0.128,0.579-0.127
			h0.001c0.817,0.009,1.481,0.673,1.48,1.481C20.222,19.67,19.558,20.333,18.742,20.333z"/>
	</g>
	<g>
		<path style="fill:#060E9F;" d="M103.364,4.61c-0.681-0.854-1.716-1.281-3.105-1.281c-1.387,0-2.422,0.427-3.103,1.281
			c-0.682,0.854-1.023,1.863-1.023,3.027c0,1.185,0.341,2.197,1.023,3.04c0.681,0.84,1.716,1.262,3.103,1.262
			c1.389,0,2.423-0.422,3.105-1.262c0.682-0.843,1.023-1.856,1.023-3.04C104.387,6.473,104.046,5.464,103.364,4.61z M101.676,9.509
			c-0.331,0.439-0.804,0.659-1.423,0.659c-0.617,0-1.093-0.219-1.426-0.659c-0.334-0.439-0.5-1.063-0.5-1.872
			c0-0.808,0.166-1.431,0.5-1.868c0.333-0.436,0.809-0.655,1.426-0.655c0.619,0,1.092,0.218,1.423,0.655
			c0.33,0.436,0.496,1.059,0.496,1.868C102.172,8.446,102.006,9.07,101.676,9.509z"/>
		<path style="fill:#060E9F;" d="M85.945,3.896c-0.691-0.35-1.482-0.527-2.373-0.527c-1.368,0-2.334,0.357-2.896,1.07
			c-0.354,0.457-0.552,1.038-0.598,1.747h2.045c0.05-0.313,0.151-0.56,0.302-0.743c0.211-0.248,0.569-0.371,1.076-0.371
			c0.453,0,0.795,0.062,1.03,0.19c0.233,0.126,0.35,0.355,0.35,0.687c0,0.273-0.152,0.473-0.457,0.603
			c-0.17,0.074-0.452,0.136-0.847,0.186l-0.725,0.089c-0.823,0.104-1.448,0.278-1.872,0.521c-0.774,0.446-1.161,1.166-1.161,2.162
			c0,0.767,0.239,1.361,0.722,1.78c0.479,0.419,1.091,0.594,1.828,0.629c4.624,0.206,4.571-2.437,4.614-2.986V5.888
			C86.982,4.913,86.636,4.248,85.945,3.896z M84.871,8.512c-0.014,0.709-0.217,1.197-0.607,1.464
			c-0.39,0.268-0.816,0.402-1.278,0.402c-0.293,0-0.54-0.081-0.744-0.242c-0.203-0.161-0.305-0.423-0.305-0.784
			c0-0.406,0.166-0.705,0.499-0.899c0.198-0.113,0.522-0.211,0.974-0.289l0.483-0.09c0.24-0.046,0.429-0.094,0.567-0.147
			c0.14-0.051,0.275-0.118,0.41-0.203V8.512z"/>
		<path style="fill:#060E9F;" d="M75.402,5.181c0.529,0,0.916,0.163,1.168,0.489c0.172,0.241,0.279,0.514,0.321,0.816h2.281
			c-0.125-1.151-0.528-1.954-1.207-2.409c-0.682-0.453-1.555-0.682-2.623-0.682c-1.256,0-2.243,0.386-2.955,1.156
			c-0.714,0.771-1.072,1.849-1.072,3.234c0,1.227,0.323,2.227,0.969,2.997c0.646,0.77,1.655,1.156,3.025,1.156
			c1.372,0,2.407-0.462,3.105-1.386c0.438-0.572,0.683-1.18,0.735-1.823h-2.273c-0.046,0.425-0.179,0.771-0.399,1.038
			c-0.219,0.266-0.589,0.4-1.112,0.4c-0.736,0-1.237-0.336-1.504-1.008c-0.146-0.359-0.219-0.834-0.219-1.425
			c0-0.62,0.074-1.118,0.219-1.494C74.137,5.535,74.652,5.181,75.402,5.181z"/>
		<path style="fill:#060E9F;" d="M70.702,3.395c-4.685,0-4.408,4.148-4.408,4.148v4.214h2.126V7.805
			c0-0.647,0.082-1.127,0.244-1.439c0.292-0.553,0.862-0.83,1.712-0.83c0.064,0,0.148,0.003,0.252,0.008
			c0.103,0.005,0.221,0.014,0.356,0.03V3.411c-0.094-0.006-0.156-0.009-0.182-0.012C70.775,3.397,70.742,3.395,70.702,3.395z"/>
		<path style="fill:#060E9F;" d="M62.893,9.555c-0.089,0.127-0.185,0.236-0.291,0.321c-0.3,0.247-0.708,0.323-1.188,0.323
			c-0.455,0-0.81-0.069-1.132-0.272c-0.531-0.326-0.829-0.878-0.861-1.688h5.882c0.008-0.697-0.014-1.231-0.071-1.603
			c-0.098-0.633-0.313-1.19-0.643-1.67c-0.367-0.544-0.834-0.942-1.396-1.195c-0.563-0.251-1.195-0.377-1.898-0.377
			c-1.185,0-2.146,0.373-2.888,1.119c-0.741,0.748-1.114,1.819-1.114,3.218c0,1.494,0.411,2.571,1.233,3.234
			c0.821,0.662,1.771,0.994,2.845,0.994c1.302,0,2.315-0.393,3.038-1.178c0.39-0.413,0.635-0.822,0.738-1.226H62.893z M60.035,5.597
			c0.299-0.307,0.719-0.461,1.261-0.461c0.499,0,0.916,0.145,1.253,0.435c0.336,0.29,0.524,0.716,0.562,1.275h-3.638
			C59.549,6.321,59.737,5.905,60.035,5.597z"/>
		<g>
			<path style="fill:#060E9F;" d="M56.44,11.756h-1.942v-4.89c0-0.447-0.147-1.509-1.428-1.509c-0.854,0-1.472,0.616-1.472,1.509
				v4.89h-1.944v-4.89c0-0.447-0.133-1.509-1.413-1.509c-0.869,0-1.473,0.616-1.473,1.509v4.89h-1.943V6.913
				c0-2.019,1.339-3.546,3.416-3.546c1.031,0,1.869,0.433,2.415,1.126c0.574-0.693,1.427-1.126,2.414-1.126
				c2.12,0,3.37,1.465,3.37,3.546V11.756z"/>
		</g>
		<path style="fill:#060E9F;" d="M95.501,0.842c0,0-2.141-0.229-2.141,1.492L93.358,4.61c-0.237-0.38-0.545-0.678-0.926-0.892
			c-0.379-0.215-0.814-0.323-1.304-0.323c-1.062,0-1.908,0.396-2.544,1.185c-0.635,0.791-0.952,1.93-0.952,3.308
			c0,1.195,0.322,2.176,0.967,2.939c0.644,0.762,1.908,1.097,3.031,1.097c3.915,0,3.87-3.357,3.87-3.357L95.501,0.842z
			 M92.951,9.527c-0.31,0.445-0.766,0.667-1.363,0.667c-0.599,0-1.044-0.224-1.337-0.671c-0.294-0.448-0.44-1.099-0.44-1.844
			c0-0.692,0.143-1.271,0.433-1.738c0.288-0.466,0.741-0.701,1.359-0.701c0.405,0,0.761,0.129,1.068,0.385
			c0.499,0.425,0.748,1.187,0.748,2.175C93.418,8.506,93.262,9.082,92.951,9.527z"/>
	</g>
	<g>
		<g>
			<path style="fill:#00ADEE;" d="M60.35,25.25c0,0.288-0.105,0.535-0.314,0.74c-0.207,0.206-0.458,0.309-0.75,0.309h-1.062v-7.388
				c0-1.437,0.484-2.336,1.281-2.945c0.527-0.402,1.312-0.786,2.781-0.786c0.992,0,2.155,0.385,2.783,1.151
				c0.705,0.861,0.998,1.82,0.998,3.073c0,1.296-0.312,2.342-0.937,3.146c-0.625,0.782-1.428,1.172-2.407,1.172
				c-0.521,0-0.979-0.093-1.374-0.277c-0.418-0.206-0.75-0.524-1-0.957V25.25z M63.912,19.497c0-0.802-0.156-1.418-0.47-1.85
				c-0.312-0.43-0.76-0.648-1.344-0.648c-0.562,0-1,0.218-1.314,0.648c-0.291,0.391-0.436,1.01-0.436,1.85
				c0,0.784,0.155,1.367,0.469,1.758c0.312,0.432,0.76,0.648,1.344,0.648c0.541,0,0.969-0.215,1.281-0.648
				C63.756,20.824,63.912,20.239,63.912,19.497"/>
			<path style="fill:#00ADEE;" d="M80.155,23.041v-0.522c-0.368,0.576-0.865,0.933-1.489,1.078
				c-0.625,0.143-1.244,0.092-1.856-0.155c-0.615-0.245-1.142-0.703-1.583-1.37c-0.439-0.67-0.659-1.548-0.659-2.637
				c0-1.272,0.292-2.305,0.874-3.096c0.584-0.79,1.521-1.151,2.81-1.186c1.27-0.033,2.009,0.254,2.732,0.801
				c0.791,0.6,1.258,1.521,1.258,2.958v4.346c0.003,1.383-0.961,3.946-3.99,3.729c-1.877-0.136-2.918-0.906-3.499-2.65h2.241
				c0.164,0.287,0.414,0.508,0.753,0.66c0.336,0.156,0.676,0.196,1.011,0.124c0.337-0.072,0.645-0.273,0.923-0.6
				C79.955,24.192,80.113,23.699,80.155,23.041 M76.655,19.498c0,1.417,0.41,2.202,1.228,2.358c0.817,0.151,1.422-0.038,1.811-0.571
				c0.184-0.224,0.317-0.58,0.399-1.062c0.081-0.482,0.088-0.96,0.016-1.432c-0.07-0.474-0.24-0.895-0.507-1.265
				c-0.265-0.369-0.655-0.555-1.166-0.555c-0.696,0-1.165,0.258-1.411,0.769C76.776,18.255,76.655,18.84,76.655,19.498"/>
			<path style="fill:#00ADEE;" d="M72.75,15.739c-0.692-0.35-1.483-0.527-2.372-0.527c-1.369,0-2.334,0.357-2.897,1.07
				c-0.353,0.456-0.552,1.038-0.598,1.747h2.046c0.05-0.313,0.15-0.561,0.301-0.743c0.211-0.248,0.57-0.372,1.076-0.372
				c0.454,0,0.796,0.062,1.029,0.19c0.233,0.126,0.35,0.355,0.35,0.688c0,0.273-0.152,0.473-0.457,0.602
				c-0.169,0.074-0.451,0.136-0.847,0.186l-0.725,0.088c-0.823,0.104-1.449,0.279-1.871,0.521c-0.775,0.446-1.161,1.166-1.161,2.162
				c0,0.767,0.239,1.361,0.722,1.78c0.48,0.418,1.091,0.595,1.828,0.629c4.622,0.207,4.571-2.437,4.613-2.986v-3.042
				C73.786,16.755,73.441,16.092,72.75,15.739 M71.675,20.355c-0.013,0.709-0.217,1.196-0.606,1.464
				c-0.389,0.267-0.816,0.401-1.278,0.401c-0.293,0-0.54-0.081-0.744-0.241c-0.204-0.161-0.306-0.423-0.306-0.785
				c0-0.405,0.167-0.705,0.501-0.899c0.199-0.113,0.522-0.211,0.974-0.288l0.483-0.09c0.241-0.046,0.43-0.094,0.567-0.146
				c0.141-0.051,0.275-0.118,0.41-0.203V20.355z"/>
			<path style="fill:#00ADEE;" d="M90.283,16.409c-0.682-0.855-1.717-1.281-3.106-1.281c-1.386,0-2.421,0.426-3.103,1.281
				c-0.682,0.853-1.023,1.862-1.023,3.027c0,1.185,0.341,2.197,1.023,3.04c0.682,0.839,1.717,1.261,3.103,1.261
				c1.389,0,2.424-0.422,3.106-1.261c0.681-0.843,1.021-1.855,1.021-3.04C91.304,18.271,90.965,17.263,90.283,16.409 M88.594,21.307
				c-0.33,0.439-0.804,0.659-1.422,0.659s-1.094-0.219-1.426-0.659c-0.335-0.438-0.5-1.062-0.5-1.871c0-0.808,0.165-1.431,0.5-1.867
				c0.332-0.437,0.808-0.655,1.426-0.655s1.091,0.217,1.422,0.655c0.331,0.436,0.496,1.059,0.496,1.867
				C89.09,20.245,88.925,20.869,88.594,21.307"/>
		</g>
	</g>
</g>
</svg>
