<?xml version="1.0" encoding="iso-8859-1"?>
<!-- Generator: Adobe Illustrator 18.1.1, SVG Export Plug-In . SVG Version: 6.00 Build 0)  -->
<svg version="1.1" id="Layer_2" xmlns="http://www.w3.org/2000/svg" xmlns:xlink="http://www.w3.org/1999/xlink" x="0px" y="0px"
	 viewBox="0 0 44 30" style="enable-background:new 0 0 44 30;" xml:space="preserve">
<g>
	<path style="fill:#060E9F;" d="M43,13.973c0-7.747-9.625-14.062-21.499-14.062c-11.874,0-21.499,6.315-21.499,14.062
		c0,0.2-0.003,0.752-0.003,0.823c0,8.219,8.413,14.874,21.498,14.874C34.664,29.671,43,23.016,43,14.798
		C43,14.511,43,14.345,43,13.973z"/>
	<ellipse style="fill:#00ADEE;" cx="21.505" cy="13.966" rx="20.672" ry="13.224"/>
	<g>
		<path style="fill:#FFFFFF;" d="M14.641,9.794c-0.011,0.021-0.217,0.234-0.083,0.406c0.326,0.417,1.334,0.655,2.353,0.427
			c0.607-0.136,1.384-0.755,2.138-1.353c0.817-0.648,1.626-1.298,2.44-1.556c0.862-0.274,1.414-0.157,1.779-0.047
			c0.401,0.12,0.871,0.383,1.622,0.947c1.415,1.063,7.102,6.028,8.085,6.886c0.791-0.357,4.309-1.872,9.089-2.925
			c-0.415-2.548-1.965-4.88-4.316-6.789c-3.277,1.376-7.28,2.094-11.196,0.182c-0.02-0.008-2.139-1.011-4.23-0.962
			c-3.107,0.072-4.453,1.417-5.877,2.84L14.641,9.794z"/>
		<path style="fill:#FFFFFF;" d="M32.744,16.044c-0.067-0.06-6.687-5.853-8.188-6.98c-0.868-0.651-1.35-0.817-1.857-0.882
			c-0.264-0.034-0.629,0.015-0.884,0.084c-0.698,0.19-1.61,0.8-2.42,1.442c-0.838,0.668-1.63,1.297-2.363,1.461
			c-0.938,0.21-2.083-0.038-2.605-0.391c-0.211-0.142-0.36-0.307-0.432-0.474C13.802,9.858,14.158,9.5,14.216,9.44l1.827-1.976
			c0.212-0.211,0.427-0.424,0.645-0.633c-0.589,0.077-1.134,0.228-1.665,0.375c-0.662,0.186-1.299,0.363-1.943,0.363
			c-0.269,0-1.71-0.236-1.983-0.31C9.444,6.806,7.993,6.366,5.825,5.354c-2.597,1.933-4.334,4.351-4.836,7.014
			c0.373,0.099,0.974,0.278,1.227,0.334c5.878,1.307,7.708,2.653,8.041,2.934c0.36-0.4,0.878-0.653,1.457-0.653
			c0.651,0.001,1.237,0.328,1.593,0.833c0.337-0.266,0.801-0.493,1.401-0.493c0.272,0,0.555,0.05,0.841,0.147
			c0.663,0.228,1.006,0.669,1.183,1.069c0.223-0.101,0.496-0.175,0.818-0.174c0.316,0,0.646,0.072,0.977,0.216
			c1.084,0.465,1.253,1.53,1.154,2.332c0.077-0.009,0.155-0.013,0.234-0.013c1.285,0.001,2.33,1.045,2.33,2.331
			c0,0.398-0.102,0.772-0.279,1.1c0.35,0.196,1.241,0.641,2.024,0.542c0.625-0.079,0.862-0.292,0.947-0.412
			c0.058-0.083,0.12-0.179,0.063-0.248l-1.658-1.843c0,0-0.273-0.258-0.183-0.358c0.093-0.102,0.262,0.045,0.382,0.144
			c0.844,0.705,1.874,1.769,1.874,1.769c0.018,0.011,0.086,0.146,0.467,0.215c0.328,0.059,0.909,0.025,1.311-0.306
			c0.102-0.084,0.203-0.187,0.288-0.295c-0.007,0.005-0.012,0.013-0.019,0.015c0.424-0.543-0.047-1.092-0.047-1.092l-1.936-2.174
			c0,0-0.277-0.256-0.183-0.359c0.084-0.089,0.262,0.046,0.384,0.146c0.613,0.513,1.479,1.382,2.309,2.195
			c0.162,0.119,0.892,0.57,1.858-0.065c0.586-0.385,0.704-0.857,0.687-1.213c-0.041-0.472-0.409-0.808-0.409-0.808l-2.645-2.659
			c0,0-0.279-0.239-0.181-0.359c0.081-0.102,0.262,0.045,0.381,0.144c0.843,0.705,3.123,2.796,3.123,2.796
			c0.033,0.023,0.821,0.584,1.795-0.036c0.348-0.223,0.571-0.558,0.59-0.948C33.221,16.446,32.744,16.044,32.744,16.044z"/>
		<path style="fill:#FFFFFF;" d="M19.915,19.415c-0.41-0.005-0.859,0.239-0.917,0.203c-0.033-0.022,0.025-0.186,0.063-0.281
			c0.039-0.095,0.58-1.72-0.737-2.284c-1.007-0.433-1.623,0.054-1.835,0.274c-0.055,0.058-0.08,0.053-0.087-0.02
			c-0.02-0.292-0.151-1.084-1.021-1.35c-1.243-0.38-2.042,0.487-2.245,0.8c-0.091-0.708-0.69-1.258-1.423-1.259
			c-0.797-0.001-1.443,0.645-1.444,1.441c0,0.797,0.646,1.443,1.443,1.443c0.387,0.001,0.738-0.154,0.998-0.403
			c0.008,0.008,0.011,0.021,0.007,0.049c-0.06,0.356-0.172,1.653,1.185,2.181c0.544,0.211,1.007,0.054,1.391-0.215
			c0.114-0.081,0.133-0.047,0.116,0.061c-0.049,0.333,0.013,1.047,1.014,1.453c0.761,0.31,1.212-0.007,1.507-0.28
			c0.128-0.117,0.164-0.098,0.17,0.083c0.036,0.965,0.838,1.731,1.811,1.732c1.003,0.001,1.816-0.81,1.816-1.812
			C21.729,20.228,20.917,19.426,19.915,19.415z"/>
	</g>
	<path style="fill:#060E9F;" d="M33,15.35c-2.039-1.78-6.753-5.878-8.029-6.836c-0.73-0.549-1.227-0.838-1.663-0.968
		c-0.196-0.06-0.468-0.127-0.817-0.127c-0.325,0-0.673,0.059-1.037,0.175c-0.825,0.261-1.647,0.914-2.442,1.546l-0.041,0.032
		c-0.741,0.589-1.506,1.198-2.085,1.327c-0.253,0.057-0.513,0.086-0.772,0.086c-0.649-0.001-1.232-0.188-1.45-0.467
		c-0.036-0.046-0.013-0.12,0.072-0.228l0.011-0.014l1.794-1.934c1.405-1.405,2.733-2.732,5.788-2.802
		c0.05-0.002,0.102-0.003,0.153-0.003c1.902,0.001,3.803,0.853,4.016,0.951c1.783,0.87,3.624,1.312,5.474,1.313
		c1.928,0,3.918-0.477,6.009-1.44c-0.234-0.197-0.477-0.388-0.727-0.575c-1.838,0.796-3.588,1.199-5.278,1.199
		c-1.725-0.002-3.449-0.416-5.122-1.232c-0.088-0.042-2.187-1.032-4.372-1.033c-0.057,0-0.115,0.001-0.172,0.002
		c-2.566,0.06-4.012,0.971-4.984,1.77c-0.945,0.023-1.761,0.251-2.487,0.454c-0.648,0.18-1.206,0.336-1.752,0.336
		c-0.225,0-0.629-0.021-0.665-0.022c-0.628-0.019-3.788-0.794-6.302-1.746C5.86,5.296,5.614,5.483,5.373,5.675
		c2.626,1.077,5.822,1.909,6.831,1.975c0.28,0.018,0.579,0.05,0.879,0.051c0.667,0,1.333-0.187,1.978-0.367
		c0.381-0.107,0.801-0.223,1.243-0.308c-0.118,0.116-0.235,0.233-0.354,0.351l-1.823,1.972c-0.143,0.145-0.455,0.531-0.249,1.007
		c0.081,0.192,0.247,0.376,0.479,0.532c0.435,0.292,1.212,0.49,1.935,0.491c0.274,0.001,0.534-0.027,0.772-0.081
		c0.764-0.171,1.566-0.81,2.415-1.485c0.676-0.537,1.638-1.22,2.374-1.42c0.205-0.056,0.458-0.091,0.661-0.091
		c0.061,0.001,0.118,0.003,0.171,0.01c0.486,0.062,0.956,0.227,1.795,0.857c1.496,1.124,8.118,6.917,8.182,6.973
		c0.004,0.004,0.427,0.368,0.398,0.974c-0.016,0.337-0.203,0.637-0.529,0.845c-0.283,0.179-0.574,0.271-0.869,0.271
		c-0.443-0.001-0.747-0.208-0.767-0.222c-0.024-0.02-2.293-2.1-3.128-2.799c-0.133-0.11-0.262-0.209-0.392-0.209
		c-0.07,0-0.132,0.03-0.173,0.082c-0.131,0.162,0.016,0.386,0.189,0.534l2.65,2.664c0.004,0.003,0.33,0.309,0.366,0.718
		c0.021,0.441-0.19,0.811-0.629,1.099c-0.313,0.206-0.629,0.31-0.939,0.31c-0.407,0-0.692-0.185-0.756-0.229l-0.38-0.374
		c-0.694-0.684-1.412-1.39-1.937-1.829c-0.128-0.106-0.264-0.205-0.395-0.205c-0.065,0-0.122,0.024-0.167,0.071
		c-0.06,0.066-0.102,0.186,0.048,0.385c0.061,0.082,0.134,0.149,0.134,0.149l1.934,2.172c0.016,0.02,0.398,0.474,0.044,0.927
		l-0.068,0.087c-0.058,0.064-0.121,0.123-0.18,0.173c-0.33,0.271-0.77,0.299-0.945,0.299c-0.093,0-0.183-0.008-0.261-0.022
		c-0.191-0.034-0.319-0.087-0.381-0.16l-0.024-0.025c-0.105-0.109-1.08-1.104-1.887-1.777c-0.106-0.089-0.239-0.201-0.376-0.201
		c-0.068,0-0.128,0.027-0.175,0.078c-0.16,0.175,0.08,0.436,0.181,0.532l1.65,1.819c-0.002,0.016-0.022,0.054-0.063,0.111
		c-0.059,0.081-0.259,0.282-0.857,0.357c-0.072,0.009-0.146,0.013-0.219,0.013c-0.617,0-1.275-0.299-1.614-0.479
		c0.154-0.326,0.235-0.685,0.235-1.045c0.001-1.358-1.102-2.462-2.459-2.463c-0.029,0-0.06,0.001-0.089,0.002
		c0.044-0.62-0.043-1.794-1.248-2.31c-0.347-0.15-0.692-0.226-1.029-0.226c-0.263,0-0.516,0.045-0.754,0.136
		c-0.25-0.485-0.664-0.838-1.205-1.023c-0.298-0.103-0.596-0.156-0.883-0.156c-0.501,0-0.963,0.148-1.375,0.441
		c-0.395-0.491-0.991-0.781-1.619-0.781c-0.549,0-1.078,0.22-1.469,0.608c-0.513-0.392-2.55-1.686-8.001-2.923
		c-0.264-0.06-0.87-0.234-1.241-0.342c-0.061,0.295-0.109,0.593-0.139,0.894c0,0,1.005,0.241,1.203,0.285
		c5.569,1.237,7.409,2.523,7.719,2.766c-0.105,0.253-0.16,0.526-0.16,0.801c-0.001,1.15,0.935,2.088,2.086,2.088
		c0.129,0,0.257-0.011,0.383-0.034c0.173,0.846,0.727,1.488,1.574,1.818c0.247,0.095,0.498,0.144,0.743,0.144
		c0.159,0,0.319-0.02,0.475-0.06c0.156,0.397,0.508,0.892,1.294,1.212c0.276,0.111,0.552,0.169,0.82,0.169
		c0.219,0,0.433-0.039,0.637-0.113c0.377,0.918,1.274,1.526,2.274,1.526c0.663,0.001,1.299-0.269,1.763-0.747
		c0.398,0.221,1.236,0.62,2.083,0.621c0.11,0,0.213-0.008,0.316-0.02c0.841-0.106,1.233-0.435,1.412-0.691
		c0.033-0.045,0.062-0.092,0.087-0.141c0.199,0.058,0.417,0.104,0.667,0.104c0.459,0,0.9-0.157,1.346-0.481
		c0.438-0.316,0.75-0.769,0.794-1.155c0.001-0.005,0.001-0.011,0.002-0.017c0.148,0.03,0.299,0.046,0.45,0.046
		c0.473,0,0.939-0.147,1.383-0.439c0.858-0.562,1.006-1.297,0.993-1.778c0.15,0.031,0.304,0.047,0.456,0.047
		c0.444,0,0.88-0.134,1.296-0.399c0.532-0.34,0.852-0.86,0.901-1.466c0.033-0.411-0.069-0.827-0.286-1.184
		c1.437-0.619,4.722-1.817,8.589-2.689c-0.023-0.3-0.066-0.596-0.12-0.891C37.366,13.45,33.874,14.961,33,15.35z M19.915,22.914
		c-0.909-0.001-1.648-0.707-1.681-1.607c-0.002-0.077-0.01-0.282-0.184-0.282c-0.071,0-0.133,0.043-0.205,0.107
		c-0.199,0.185-0.454,0.374-0.826,0.374c-0.168,0-0.351-0.04-0.544-0.118c-0.96-0.389-0.973-1.048-0.934-1.313
		c0.01-0.071,0.014-0.144-0.035-0.201l-0.059-0.053h-0.06c-0.049,0-0.099,0.02-0.167,0.068c-0.278,0.195-0.544,0.289-0.815,0.289
		c-0.149,0-0.302-0.03-0.455-0.089c-1.264-0.492-1.164-1.684-1.102-2.043c0.009-0.073-0.009-0.129-0.055-0.166l-0.089-0.074
		l-0.084,0.08c-0.246,0.237-0.568,0.367-0.907,0.367c-0.724-0.001-1.313-0.589-1.312-1.313c0-0.724,0.59-1.312,1.314-1.311
		c0.654,0,1.211,0.492,1.294,1.145l0.045,0.352l0.194-0.298c0.022-0.035,0.552-0.836,1.527-0.836c0.185,0,0.377,0.03,0.57,0.089
		c0.777,0.237,0.908,0.942,0.929,1.235c0.014,0.171,0.135,0.179,0.159,0.179c0.067,0,0.116-0.043,0.152-0.079
		c0.147-0.153,0.466-0.408,0.966-0.408c0.229,0.001,0.472,0.055,0.723,0.163c1.235,0.53,0.675,2.099,0.668,2.115
		c-0.106,0.26-0.11,0.375-0.01,0.441l0.048,0.023h0.036c0.056,0,0.125-0.024,0.239-0.063c0.168-0.058,0.422-0.145,0.659-0.145h0.001
		c0.93,0.01,1.686,0.767,1.685,1.686C21.6,22.159,20.844,22.914,19.915,22.914z"/>
</g>
</svg>
