<?xml version="1.0" encoding="iso-8859-1"?>
<!-- Generator: Adobe Illustrator 18.1.1, SVG Export Plug-In . SVG Version: 6.00 Build 0)  -->
<svg version="1.1" id="Layer_1" xmlns="http://www.w3.org/2000/svg" xmlns:xlink="http://www.w3.org/1999/xlink" x="0px" y="0px"
	 viewBox="0 0 51 28.18" style="enable-background:new 0 0 51 28.18;" xml:space="preserve">
<g>
	<g>
		<rect x="0" y="2.207" style="fill:#ABCF73;" width="51" height="25.434"/>
		<path style="fill:#7C994E;" d="M47.87,21.059V9.186c-2.208-0.196-3.961-1.901-4.231-4.087H6.301
			c-0.236,1.916-1.61,3.464-3.436,3.952v12.143c1.655,0.442,2.946,1.752,3.35,3.422h37.511
			C44.193,22.686,45.844,21.239,47.87,21.059z"/>
		<circle style="fill:#ABCF73;" cx="25.368" cy="14.858" r="6.491"/>
		<rect x="8.875" y="13.962" style="fill:#ABCF73;" width="6.491" height="2.189"/>
		<rect x="35.369" y="13.962" style="fill:#ABCF73;" width="6.491" height="2.189"/>
	</g>
	<rect x="0" y="1.642" style="opacity:0.4;fill:#415122;" width="51" height="25.434"/>
	<g>
		<rect x="0" y="1.103" style="fill:#ABCF73;" width="51" height="25.434"/>
		<path style="fill:#7C994E;" d="M47.87,19.956V8.083c-2.208-0.196-3.961-1.901-4.231-4.087H6.301
			C6.065,5.912,4.691,7.46,2.865,7.948V20.09c1.655,0.442,2.946,1.752,3.35,3.422h37.511C44.193,21.583,45.844,20.135,47.87,19.956z
			"/>
		<circle style="fill:#ABCF73;" cx="25.368" cy="13.754" r="6.491"/>
		<rect x="8.875" y="12.858" style="fill:#ABCF73;" width="6.491" height="2.189"/>
		<rect x="35.369" y="12.858" style="fill:#ABCF73;" width="6.491" height="2.189"/>
	</g>
	<rect x="0" y="0.538" style="opacity:0.4;fill:#415122;" width="51" height="25.434"/>
	<g>
		<rect x="0" y="0" style="fill:#ABCF73;" width="51" height="25.434"/>
		<path style="fill:#7C994E;" d="M47.87,18.852V6.979c-2.208-0.196-3.961-1.901-4.231-4.087H6.301
			c-0.236,1.916-1.61,3.464-3.436,3.952v12.143c1.655,0.442,2.946,1.752,3.35,3.422h37.511
			C44.193,20.479,45.844,19.032,47.87,18.852z"/>
		<circle style="fill:#ABCF73;" cx="25.368" cy="12.651" r="6.491"/>
		<rect x="8.875" y="11.755" style="fill:#ABCF73;" width="6.491" height="2.189"/>
		<rect x="35.369" y="11.755" style="fill:#ABCF73;" width="6.491" height="2.189"/>
	</g>
</g>
</svg>
