<?xml version="1.0" encoding="iso-8859-1"?>
<!-- Generator: Adobe Illustrator 18.1.1, SVG Export Plug-In . SVG Version: 6.00 Build 0)  -->
<svg version="1.1" id="Layer_2" xmlns="http://www.w3.org/2000/svg" xmlns:xlink="http://www.w3.org/1999/xlink" x="0px" y="0px"
	 viewBox="0 0 28.986 31.95" style="enable-background:new 0 0 28.986 31.95;" xml:space="preserve">
<path style="fill-rule:evenodd;clip-rule:evenodd;fill:#009DE2;" d="M12.72,7.536h8.987c4.825,0,6.641,2.442,6.361,6.036
	c-0.463,5.925-4.045,9.201-8.796,9.201h-2.399c-0.651,0-1.089,0.43-1.267,1.6l-1.029,6.792c-0.067,0.441-0.299,0.7-0.648,0.732
	H8.294c-0.53,0-0.719-0.406-0.58-1.284l3.441-21.788C11.293,7.952,11.771,7.536,12.72,7.536z"/>
<path style="fill-rule:evenodd;clip-rule:evenodd;fill:#113984;" d="M7.101,0.038h8.996c2.534,0,5.539,0.082,7.549,1.855
	c1.343,1.184,2.048,3.071,1.885,5.097c-0.552,6.869-4.66,10.716-10.17,10.716h-4.437c-0.755,0-1.256,0.5-1.469,1.856l-1.238,7.876
	c-0.08,0.511-0.302,0.812-0.706,0.848H1.969c-0.615,0-0.834-0.47-0.673-1.489l3.99-25.265C5.447,0.52,6.001,0.038,7.101,0.038z"/>
<path style="fill-rule:evenodd;clip-rule:evenodd;fill:#172C70;" d="M9.584,18.768l1.571-9.943c0.138-0.873,0.616-1.289,1.565-1.289
	h8.987c1.488,0,2.69,0.232,3.632,0.66c-0.903,6.113-4.857,9.51-10.035,9.51h-4.437C10.282,17.706,9.846,18.005,9.584,18.768z"/>
</svg>
