<?xml version="1.0" encoding="iso-8859-1"?>
<!-- Generator: Adobe Illustrator 18.1.1, SVG Export Plug-In . SVG Version: 6.00 Build 0)  -->
<svg version="1.1" id="Layer_1" xmlns="http://www.w3.org/2000/svg" xmlns:xlink="http://www.w3.org/1999/xlink" x="0px" y="0px"
	 viewBox="0 0 100 25.25" style="enable-background:new 0 0 100 25.25;" xml:space="preserve">
<g>
	<path style="fill-rule:evenodd;clip-rule:evenodd;fill:#009DE2;" d="M8.725,6.596h6.834c3.669,0,5.05,1.857,4.837,4.59
		c-0.352,4.506-3.076,6.997-6.689,6.997h-1.824c-0.495,0-0.828,0.327-0.963,1.217l-0.783,5.165
		c-0.051,0.336-0.227,0.533-0.492,0.556H5.36c-0.403,0-0.547-0.309-0.441-0.977L7.536,7.576C7.64,6.912,8.004,6.596,8.725,6.596z"/>
	<path style="fill-rule:evenodd;clip-rule:evenodd;fill:#113984;" d="M38.392,6.29c2.306,0,4.433,1.25,4.142,4.368
		c-0.345,3.696-2.337,5.754-5.47,5.763h-2.733c-0.394,0-0.583,0.32-0.687,0.98l-0.527,3.364c-0.08,0.508-0.34,0.759-0.726,0.759
		h-2.545c-0.406,0-0.548-0.259-0.457-0.839l2.104-13.484c0.103-0.663,0.357-0.91,0.807-0.91H38.392L38.392,6.29z M34.246,13.508
		l2.073,0c1.296-0.049,2.158-0.946,2.244-2.566c0.054-1-0.622-1.716-1.697-1.711L34.915,9.24L34.246,13.508L34.246,13.508z
		 M49.453,20.489c0.232-0.211,0.47-0.321,0.435-0.06l-0.083,0.625c-0.043,0.326,0.087,0.5,0.391,0.5h2.261
		c0.38,0,0.566-0.154,0.66-0.743l1.393-8.746c0.07-0.439-0.036-0.655-0.37-0.655h-2.486c-0.224,0-0.333,0.126-0.392,0.468
		l-0.092,0.538c-0.048,0.281-0.177,0.33-0.296,0.047c-0.422-0.999-1.498-1.447-3.007-1.416c-3.488,0.072-5.839,2.719-6.091,6.113
		c-0.195,2.625,1.687,4.687,4.166,4.687C47.742,21.848,48.547,21.311,49.453,20.489L49.453,20.489z M47.561,19.146
		c-1.501,0-2.548-1.197-2.329-2.665c0.218-1.468,1.621-2.665,3.122-2.665c1.501,0,2.548,1.197,2.329,2.665
		C50.465,17.948,49.062,19.146,47.561,19.146L47.561,19.146z M58.939,11.382h-2.284c-0.473,0-0.666,0.346-0.515,0.787l2.847,8.337
		l-2.805,3.965c-0.234,0.331-0.054,0.634,0.277,0.634h2.577c0.385,0,0.572-0.098,0.766-0.376l8.755-12.56
		c0.27-0.387,0.143-0.792-0.3-0.792l-2.437-0.003c-0.418,0-0.586,0.165-0.826,0.513l-3.652,5.298l-1.625-5.308
		C59.617,11.551,59.378,11.382,58.939,11.382z"/>
	<path style="fill-rule:evenodd;clip-rule:evenodd;fill:#009DE2;" d="M77.668,6.29c2.306,0,4.433,1.25,4.142,4.368
		c-0.345,3.696-2.337,5.754-5.47,5.763h-2.733c-0.394,0-0.583,0.32-0.687,0.98l-0.527,3.364c-0.08,0.508-0.34,0.759-0.726,0.759
		h-2.545c-0.406,0-0.548-0.259-0.457-0.839l2.104-13.484c0.103-0.663,0.357-0.91,0.807-0.91H77.668L77.668,6.29z M73.522,13.508
		l2.073,0c1.296-0.049,2.158-0.946,2.245-2.566c0.053-1-0.622-1.716-1.697-1.711L74.191,9.24L73.522,13.508L73.522,13.508z
		 M88.729,20.489c0.232-0.211,0.47-0.321,0.435-0.06l-0.083,0.625c-0.043,0.326,0.087,0.5,0.391,0.5h2.261
		c0.38,0,0.566-0.154,0.66-0.743l1.393-8.746c0.07-0.439-0.036-0.655-0.37-0.655H90.93c-0.224,0-0.333,0.126-0.392,0.468
		l-0.092,0.538c-0.048,0.281-0.177,0.33-0.296,0.047c-0.422-0.999-1.498-1.447-3.007-1.416c-3.488,0.072-5.839,2.719-6.091,6.113
		c-0.195,2.625,1.687,4.687,4.166,4.687C87.018,21.848,87.823,21.311,88.729,20.489L88.729,20.489z M86.837,19.146
		c-1.501,0-2.548-1.197-2.329-2.665c0.218-1.468,1.621-2.665,3.122-2.665c1.501,0,2.548,1.197,2.329,2.665
		C89.741,17.948,88.338,19.146,86.837,19.146L86.837,19.146z M97.267,21.569h-2.61c-0.207,0-0.351-0.162-0.32-0.361l2.295-14.527
		c0.031-0.199,0.227-0.361,0.434-0.361h2.61c0.207,0,0.351,0.162,0.32,0.361l-2.295,14.527
		C97.669,21.407,97.474,21.569,97.267,21.569z"/>
	<path style="fill-rule:evenodd;clip-rule:evenodd;fill:#113984;" d="M4.453,0.894h6.841c1.927,0,4.212,0.063,5.741,1.411
		c1.021,0.901,1.557,2.336,1.433,3.876c-0.42,5.224-3.544,8.149-7.734,8.149H7.36c-0.574,0-0.955,0.381-1.117,1.411L5.301,21.73
		c-0.061,0.389-0.229,0.618-0.537,0.645H0.55c-0.468,0-0.634-0.358-0.511-1.132L3.073,2.03C3.195,1.26,3.616,0.894,4.453,0.894z"/>
	<path style="fill-rule:evenodd;clip-rule:evenodd;fill:#172C70;" d="M6.341,15.137l1.195-7.561c0.105-0.664,0.468-0.98,1.19-0.98
		h6.834c1.131,0,2.045,0.177,2.762,0.502c-0.687,4.649-3.693,7.232-7.631,7.232H7.316C6.872,14.33,6.54,14.557,6.341,15.137z"/>
</g>
</svg>
