<?xml version="1.0" encoding="iso-8859-1"?>
<!-- Generator: Adobe Illustrator 18.1.1, SVG Export Plug-In . SVG Version: 6.00 Build 0)  -->
<svg version="1.1" xmlns="http://www.w3.org/2000/svg" xmlns:xlink="http://www.w3.org/1999/xlink" x="0px" y="0px"
	 viewBox="0 0 36 24" style="enable-background:new 0 0 36 24;" xml:space="preserve">
<g id="AMEX" style="display:none;">
	
		<radialGradient id="SVGID_1_" cx="6.3144" cy="19.8072" r="33.1832" gradientTransform="matrix(1 0 0 3.5715 0 -50.9342)" gradientUnits="userSpaceOnUse">
		<stop  offset="0" style="stop-color:#9DD5F6"/>
		<stop  offset="0.0711" style="stop-color:#98D3F5"/>
		<stop  offset="0.1575" style="stop-color:#89CEF3"/>
		<stop  offset="0.2516" style="stop-color:#70C6EF"/>
		<stop  offset="0.3514" style="stop-color:#4EBBEA"/>
		<stop  offset="0.4546" style="stop-color:#23ADE3"/>
		<stop  offset="0.5" style="stop-color:#0DA6E0"/>
		<stop  offset="1" style="stop-color:#2E77BC"/>
	</radialGradient>
	<rect x="0" style="display:inline;fill:url(#SVGID_1_);" width="36" height="24"/>
	<path style="display:inline;fill:#FFFFFF;" d="M3.197,9.723L2.515,8.061L1.836,9.723 M18.226,9.061
		c-0.137,0.083-0.299,0.086-0.493,0.086h-1.211V8.221h1.227c0.174,0,0.355,0.008,0.473,0.075c0.129,0.061,0.209,0.19,0.209,0.369
		C18.432,8.847,18.356,8.994,18.226,9.061z M26.865,9.723l-0.69-1.662l-0.686,1.662H26.865z M10.762,11.523H9.74L9.737,8.257
		l-1.445,3.266H7.416L5.967,8.254v3.269H3.94l-0.383-0.93H1.481l-0.387,0.93H0.012l1.785-4.17h1.481l1.695,3.948V7.353H6.6
		l1.304,2.829l1.198-2.829h1.66L10.762,11.523L10.762,11.523z M14.835,11.523h-3.33v-4.17h3.33v0.868h-2.333v0.752h2.277v0.855
		h-2.277v0.833h2.333V11.523z M19.53,8.476c0,0.665-0.444,1.008-0.702,1.112c0.218,0.083,0.404,0.23,0.493,0.351
		c0.141,0.207,0.165,0.393,0.165,0.765v0.819H18.48l-0.004-0.526c0-0.251,0.024-0.612-0.157-0.812
		c-0.146-0.147-0.368-0.178-0.726-0.178h-1.07v1.517h-0.997v-4.17h2.293c0.509,0,0.885,0.014,1.207,0.2
		C19.341,7.739,19.53,8.011,19.53,8.476z M21.125,11.523h-1.017v-4.17h1.017V11.523z M32.924,11.523h-1.412l-1.889-3.13v3.13h-2.03
		l-0.388-0.93h-2.071l-0.376,0.93h-1.166c-0.484,0-1.098-0.107-1.445-0.461c-0.35-0.354-0.533-0.834-0.533-1.592
		c0-0.618,0.109-1.184,0.537-1.631c0.322-0.333,0.827-0.486,1.514-0.486h0.965v0.894h-0.945c-0.364,0-0.569,0.054-0.767,0.247
		c-0.17,0.176-0.287,0.507-0.287,0.945c0,0.447,0.089,0.769,0.274,0.979c0.153,0.165,0.432,0.215,0.695,0.215h0.448l1.405-3.28
		h1.494l1.688,3.944V7.353h1.518l1.752,2.904V7.353h1.021V11.523L32.924,11.523z M0,12.342h1.703l0.384-0.926h0.86l0.383,0.926
		h3.351v-0.708l0.299,0.711h1.74l0.299-0.722v0.719h8.328l-0.004-1.52h0.161c0.113,0.004,0.146,0.014,0.146,0.201v1.32h4.307v-0.354
		c0.347,0.186,0.888,0.354,1.599,0.354h1.812l0.388-0.926h0.86l0.379,0.926h3.492v-0.88l0.529,0.88h2.798V6.526h-2.769v0.687
		l-0.388-0.687h-2.841v0.687l-0.356-0.687H23.62c-0.643,0-1.207,0.09-1.663,0.34v-0.34h-2.649v0.34
		c-0.29-0.258-0.686-0.34-1.126-0.34H8.505L7.856,8.028L7.189,6.526H4.141v0.687L3.806,6.526H1.207L0,9.291L0,12.342L0,12.342z"/>
	<path style="display:inline;fill:#FFFFFF;" d="M36,15.026h-1.817c-0.181,0-0.302,0.007-0.403,0.075
		c-0.105,0.068-0.146,0.168-0.146,0.3c0,0.157,0.089,0.264,0.218,0.311c0.105,0.037,0.218,0.047,0.384,0.047l0.54,0.014
		c0.545,0.014,0.909,0.107,1.131,0.336c0.04,0.032,0.065,0.068,0.092,0.103 M36,17.776c-0.242,0.354-0.714,0.533-1.353,0.533h-1.925
		v-0.894h1.917c0.19,0,0.323-0.025,0.403-0.103c0.069-0.064,0.118-0.158,0.118-0.272c0-0.122-0.049-0.218-0.122-0.276
		c-0.072-0.064-0.177-0.093-0.351-0.093c-0.936-0.032-2.104,0.029-2.104-1.291c0-0.605,0.384-1.242,1.43-1.242H36v-0.83h-1.845
		c-0.557,0-0.961,0.133-1.247,0.341v-0.341h-2.729c-0.436,0-0.949,0.108-1.191,0.341v-0.341h-4.873v0.341
		c-0.388-0.28-1.042-0.341-1.344-0.341h-3.214v0.341c-0.307-0.297-0.989-0.341-1.405-0.341h-3.597L13.733,14.2l-0.771-0.891H7.589
		v5.82h5.272l0.848-0.905l0.799,0.905l3.25,0.003v-1.369h0.319c0.431,0.007,0.94-0.011,1.388-0.205v1.571h2.68v-1.517h0.129
		c0.165,0,0.181,0.007,0.181,0.172v1.345h8.142c0.517,0,1.057-0.132,1.357-0.372v0.372h2.583c0.537,0,1.062-0.075,1.462-0.268
		V17.776L36,17.776z M32.024,16.11c0.194,0.201,0.298,0.454,0.298,0.884c0,0.897-0.561,1.316-1.566,1.316h-1.941v-0.894h1.934
		c0.189,0,0.323-0.025,0.407-0.103c0.069-0.064,0.118-0.158,0.118-0.272c0-0.122-0.053-0.218-0.122-0.276
		c-0.076-0.064-0.181-0.093-0.355-0.093c-0.932-0.032-2.1,0.029-2.1-1.291c0-0.605,0.38-1.242,1.425-1.242h1.998v0.888h-1.828
		c-0.181,0-0.299,0.007-0.399,0.075c-0.109,0.068-0.15,0.168-0.15,0.3c0,0.157,0.093,0.264,0.218,0.311
		c0.105,0.037,0.218,0.047,0.388,0.047l0.537,0.014C31.427,15.788,31.798,15.881,32.024,16.11z M23.03,15.852
		c-0.133,0.079-0.298,0.086-0.492,0.086h-1.211v-0.937h1.227c0.177,0,0.355,0.004,0.476,0.075c0.129,0.068,0.206,0.197,0.206,0.375
		C23.236,15.631,23.159,15.774,23.03,15.852z M23.632,16.372c0.222,0.082,0.403,0.229,0.488,0.35
		c0.141,0.204,0.161,0.394,0.165,0.761v0.827h-1.001v-0.522c0-0.251,0.024-0.623-0.161-0.816c-0.146-0.149-0.368-0.185-0.731-0.185
		h-1.065v1.524h-1.002v-4.171h2.301c0.505,0,0.872,0.022,1.199,0.197c0.315,0.19,0.512,0.45,0.512,0.926
		C24.338,15.928,23.894,16.267,23.632,16.372z M24.891,14.139h3.327v0.863h-2.334v0.758h2.277v0.851h-2.277v0.83l2.334,0.004v0.865
		h-3.327V14.139z M18.166,16.064h-1.288v-1.062h1.3c0.36,0,0.61,0.147,0.61,0.511C18.787,15.874,18.549,16.064,18.166,16.064z
		 M15.885,17.931l-1.53-1.699l1.53-1.645V17.931z M11.933,17.441H9.482v-0.83h2.188V15.76H9.482v-0.758h2.499l1.09,1.216
		L11.933,17.441z M19.857,15.513c0,1.159-0.864,1.398-1.736,1.398h-1.244v1.399H14.94l-1.227-1.381l-1.275,1.381H8.489v-4.171h4.009
		l1.226,1.367l1.268-1.367h3.185C18.968,14.139,19.857,14.358,19.857,15.513z"/>
</g>
<g id="Visa">
	<rect x="-0.417" y="0.056" style="fill:#FFFFFF;" width="37" height="24"/>
	<g>
		<g>
			<polygon style="fill:#0066B2;" points="15.827,16.35 13.563,16.35 14.978,7.656 17.242,7.656 			"/>
			<path style="fill:#0066B2;" d="M11.659,7.656l-2.158,5.98l-0.255-1.288c0,0,0.056,0.293,0,0
				c-0.133-0.508-1.092-3.067-3.077-3.552l1.967,7.553h2.358l3.602-8.695H11.659z"/>
			<path style="fill:#0066B2;" d="M29.464,16.35h2.078L29.73,7.656h-1.82c-0.84,0-1.045,0.648-1.045,0.648l-3.376,8.047h2.359
				l0.472-1.291h2.878L29.464,16.35z M26.973,13.275l1.189-3.254l0.669,3.254H26.973z"/>
			<path style="fill:#0066B2;" d="M23.666,9.746l0.323-1.867c0,0-0.997-0.379-2.036-0.379c-1.123,0-3.791,0.491-3.791,2.878
				c0,2.246,3.131,2.274,3.131,3.454s-2.808,0.969-3.735,0.225l-0.337,1.952c0,0,1.011,0.491,2.555,0.491
				c1.544,0,3.875-0.8,3.875-2.977c0-2.261-3.159-2.471-3.159-3.454C20.493,9.086,22.698,9.213,23.666,9.746z"/>
		</g>
		<path style="fill:#F9A533;" d="M9.246,12.348l-0.762-3.91c0,0-0.092-0.783-1.074-0.783H3.843L3.801,7.803
			c0,0,1.715,0.355,3.36,1.687C8.733,10.762,9.246,12.348,9.246,12.348z"/>
	</g>
</g>
<g id="MasterCard" style="display:none;">
	<rect x="-0.417" y="0.056" style="display:inline;fill:#FFFFFF;" width="37" height="24"/>
	<g style="display:inline;">
		<polygon style="fill-rule:evenodd;clip-rule:evenodd;fill:#FBB231;" points="24.393,20.378 24.832,20.366 25.265,20.335 
			25.689,20.281 26.111,20.206 26.52,20.111 26.925,19.997 27.32,19.862 27.708,19.71 28.086,19.538 28.453,19.352 28.809,19.145 
			29.155,18.924 29.488,18.686 29.809,18.434 30.119,18.167 30.414,17.884 30.698,17.588 30.965,17.278 31.217,16.957 
			31.455,16.625 31.676,16.278 31.882,15.922 32.069,15.555 32.241,15.177 32.393,14.79 32.527,14.394 32.642,13.99 32.737,13.58 
			32.811,13.158 32.866,12.734 32.897,12.301 32.909,11.862 32.897,11.426 32.866,10.996 32.811,10.572 32.737,10.156 32.642,9.746 
			32.527,9.345 32.393,8.949 32.241,8.565 32.069,8.189 31.882,7.822 31.676,7.47 31.455,7.123 31.217,6.79 30.965,6.472 
			30.698,6.162 30.414,5.867 30.119,5.586 29.809,5.319 29.488,5.067 29.155,4.829 28.809,4.608 28.453,4.404 28.086,4.218 
			27.708,4.046 27.32,3.894 26.925,3.759 26.52,3.645 26.111,3.55 25.689,3.475 25.265,3.421 24.832,3.389 24.393,3.378 
			23.957,3.389 23.524,3.421 23.1,3.475 22.681,3.55 22.271,3.645 21.867,3.759 21.474,3.894 21.087,4.046 20.711,4.218 
			20.347,4.404 19.992,4.608 19.648,4.829 19.315,5.067 18.994,5.319 18.687,5.586 18.392,5.867 18.111,6.162 17.844,6.472 
			17.592,6.79 17.357,7.123 17.136,7.47 16.932,7.822 16.743,8.189 16.574,8.565 16.422,8.949 16.29,9.345 16.175,9.746 
			16.081,10.156 16.006,10.572 15.952,10.996 15.92,11.426 15.909,11.862 15.92,12.301 15.952,12.734 16.006,13.158 16.081,13.58 
			16.175,13.99 16.29,14.394 16.422,14.79 16.574,15.177 16.743,15.555 16.932,15.922 17.136,16.278 17.357,16.625 17.592,16.957 
			17.844,17.278 18.111,17.588 18.392,17.884 18.687,18.167 18.994,18.434 19.315,18.686 19.648,18.924 19.992,19.145 
			20.347,19.352 20.711,19.538 21.087,19.71 21.474,19.862 21.867,19.997 22.271,20.111 22.681,20.206 23.1,20.281 23.524,20.335 
			23.957,20.366 24.393,20.378 24.393,20.378 		"/>
		<polygon style="fill-rule:evenodd;clip-rule:evenodd;fill:#EC1C2E;" points="13.021,20.378 13.457,20.366 13.89,20.335 
			14.314,20.281 14.733,20.206 15.143,20.111 15.547,19.997 15.94,19.862 16.327,19.71 16.703,19.538 17.067,19.352 17.423,19.145 
			17.767,18.924 18.099,18.686 18.42,18.434 18.727,18.167 19.023,17.884 19.304,17.588 19.57,17.278 19.823,16.957 20.058,16.625 
			20.278,16.278 20.482,15.922 20.671,15.555 20.84,15.177 20.992,14.79 21.124,14.394 21.239,13.99 21.334,13.58 21.408,13.158 
			21.463,12.734 21.494,12.301 21.506,11.862 21.494,11.426 21.463,10.996 21.408,10.572 21.334,10.156 21.239,9.746 21.124,9.345 
			20.992,8.949 20.84,8.565 20.671,8.189 20.482,7.822 20.278,7.47 20.058,7.123 19.823,6.79 19.57,6.472 19.304,6.162 
			19.023,5.867 18.727,5.586 18.42,5.319 18.099,5.067 17.767,4.829 17.423,4.608 17.067,4.404 16.703,4.218 16.327,4.046 
			15.94,3.894 15.547,3.759 15.143,3.645 14.733,3.55 14.314,3.475 13.89,3.421 13.457,3.389 13.021,3.378 12.583,3.389 
			12.15,3.421 11.725,3.475 11.304,3.55 10.894,3.645 10.49,3.759 10.094,3.894 9.707,4.046 9.328,4.218 8.961,4.404 8.606,4.608 
			8.259,4.829 7.926,5.067 7.605,5.319 7.295,5.586 7,5.867 6.716,6.162 6.45,6.472 6.197,6.79 5.959,7.123 5.738,7.47 5.532,7.822 
			5.346,8.189 5.174,8.565 5.022,8.949 4.887,9.345 4.772,9.746 4.678,10.156 4.603,10.572 4.549,10.996 4.517,11.426 4.506,11.862 
			4.517,12.301 4.549,12.734 4.603,13.158 4.678,13.58 4.772,13.99 4.887,14.394 5.022,14.79 5.174,15.177 5.346,15.555 
			5.532,15.922 5.738,16.278 5.959,16.625 6.197,16.957 6.45,17.278 6.716,17.588 7,17.884 7.295,18.167 7.605,18.434 7.926,18.686 
			8.259,18.924 8.606,19.145 8.961,19.352 9.328,19.538 9.707,19.71 10.094,19.862 10.49,19.997 10.894,20.111 11.304,20.206 
			11.725,20.281 12.15,20.335 12.583,20.366 13.021,20.378 13.021,20.378 		"/>
		<polygon style="fill-rule:evenodd;clip-rule:evenodd;fill:#FBB231;" points="17.712,6.638 22.228,6.638 22.228,6.176 
			18.102,6.176 17.712,6.638 17.712,6.638 		"/>
		<polygon style="fill-rule:evenodd;clip-rule:evenodd;fill:#FBB231;" points="17.036,7.665 22.228,7.665 22.228,7.203 
			17.308,7.203 17.036,7.665 17.036,7.665 		"/>
		<polygon style="fill-rule:evenodd;clip-rule:evenodd;fill:#FBB231;" points="16.531,8.688 22.228,8.688 22.228,8.226 
			16.732,8.226 16.531,8.688 16.531,8.688 		"/>
		<polygon style="fill-rule:evenodd;clip-rule:evenodd;fill:#FBB231;" points="16.184,9.715 22.228,9.715 22.228,9.253 
			16.327,9.253 16.184,9.715 16.184,9.715 		"/>
		<polygon style="fill-rule:evenodd;clip-rule:evenodd;fill:#FBB231;" points="16.385,14.675 22.243,14.675 22.243,14.213 
			16.241,14.213 16.385,14.675 16.385,14.675 		"/>
		<polygon style="fill-rule:evenodd;clip-rule:evenodd;fill:#FBB231;" points="16.818,15.702 22.243,15.702 22.243,15.24 
			16.603,15.24 16.818,15.702 16.818,15.702 		"/>
		<polygon style="fill-rule:evenodd;clip-rule:evenodd;fill:#FBB231;" points="17.426,16.725 22.243,16.725 22.243,16.264 
			17.136,16.264 17.426,16.725 17.426,16.725 		"/>
		<polygon style="fill-rule:evenodd;clip-rule:evenodd;fill:#FBB231;" points="18.263,17.752 22.243,17.752 22.243,17.287 
			17.858,17.287 18.263,17.752 18.263,17.752 		"/>
		<polygon style="fill-rule:evenodd;clip-rule:evenodd;fill:#FBB231;" points="15.98,10.738 22.228,10.738 22.228,10.277 
			16.069,10.277 15.98,10.738 15.98,10.738 		"/>
		<polygon style="fill-rule:evenodd;clip-rule:evenodd;fill:#FBB231;" points="19.788,13.651 22.171,13.651 22.171,13.19 
			19.874,13.19 19.788,13.651 19.788,13.651 		"/>
		<polygon style="fill-rule:evenodd;clip-rule:evenodd;fill:#FBB231;" points="19.977,12.628 22.171,12.628 22.171,12.163 
			20.063,12.163 19.977,12.628 19.977,12.628 		"/>
		<polygon style="fill-rule:evenodd;clip-rule:evenodd;fill:#FBB231;" points="15.823,12.163 16.442,12.163 16.442,12.628 
			15.851,12.628 15.823,12.163 15.823,12.163 		"/>
		<polygon style="fill-rule:evenodd;clip-rule:evenodd;fill:#FFFFFF;" points="14.667,11.604 14.627,11.601 14.587,11.596 
			14.55,11.59 14.512,11.584 14.478,11.578 14.441,11.573 14.403,11.567 14.363,11.561 14.323,11.555 14.277,11.553 14.226,11.55 
			14.171,11.547 14.111,11.547 14.045,11.55 13.97,11.555 13.887,11.561 13.83,11.57 13.775,11.578 13.727,11.596 13.684,11.613 
			13.644,11.633 13.606,11.656 13.578,11.684 13.552,11.71 13.535,11.742 13.52,11.773 13.515,11.808 13.515,11.842 13.523,11.879 
			13.535,11.917 13.558,11.954 13.586,11.991 13.644,12.046 13.712,12.089 13.793,12.126 13.879,12.158 13.97,12.186 14.065,12.218 
			14.16,12.252 14.251,12.289 14.337,12.338 14.418,12.398 14.489,12.47 14.55,12.559 14.595,12.668 14.624,12.797 14.636,12.952 
			14.624,13.132 14.604,13.267 14.57,13.385 14.524,13.494 14.466,13.588 14.401,13.671 14.326,13.743 14.246,13.806 14.157,13.861 
			14.065,13.904 13.97,13.941 13.873,13.97 13.773,13.993 13.675,14.01 13.58,14.018 13.486,14.024 13.397,14.027 13.274,14.027 
			13.159,14.024 13.059,14.024 12.964,14.021 12.878,14.018 12.801,14.013 12.732,14.007 12.666,13.998 12.606,13.993 
			12.551,13.981 12.497,13.973 12.448,13.958 12.399,13.947 12.353,13.93 12.307,13.912 12.259,13.895 12.388,13.261 12.413,13.267 
			12.445,13.276 12.485,13.287 12.534,13.299 12.586,13.31 12.643,13.322 12.706,13.336 12.775,13.347 12.846,13.359 12.921,13.37 
			12.998,13.379 13.079,13.388 13.162,13.39 13.245,13.393 13.328,13.393 13.411,13.39 13.494,13.373 13.56,13.35 13.612,13.319 
			13.652,13.279 13.681,13.239 13.704,13.193 13.718,13.147 13.73,13.104 13.735,13.021 13.71,12.949 13.661,12.892 13.589,12.843 
			13.503,12.8 13.403,12.757 13.291,12.717 13.179,12.671 13.064,12.619 12.955,12.559 12.855,12.484 12.763,12.396 12.692,12.287 
			12.64,12.158 12.614,12.003 12.617,11.819 12.631,11.707 12.651,11.601 12.68,11.504 12.715,11.412 12.76,11.326 12.812,11.252 
			12.872,11.18 12.944,11.117 13.027,11.062 13.119,11.016 13.222,10.973 13.337,10.942 13.466,10.916 13.606,10.896 13.761,10.884 
			13.93,10.882 14.036,10.882 14.134,10.884 14.223,10.887 14.303,10.89 14.375,10.896 14.441,10.902 14.498,10.907 14.55,10.913 
			14.598,10.919 14.639,10.927 14.676,10.933 14.71,10.939 14.739,10.945 14.765,10.948 14.79,10.953 14.813,10.956 14.667,11.604 
			14.667,11.604 		"/>
		<polyline style="fill:none;stroke:#FFFFFF;stroke-width:0.0902;stroke-miterlimit:2.6131;" points="14.667,11.604 14.667,11.604 
			14.627,11.601 14.587,11.596 14.55,11.59 14.512,11.584 14.478,11.578 14.441,11.573 14.403,11.567 14.363,11.561 14.323,11.555 
			14.277,11.553 14.226,11.55 14.171,11.547 14.111,11.547 14.045,11.55 13.97,11.555 13.887,11.561 13.887,11.561 13.83,11.57 
			13.775,11.578 13.727,11.596 13.684,11.613 13.644,11.633 13.606,11.656 13.578,11.684 13.552,11.71 13.535,11.742 13.52,11.773 
			13.515,11.808 13.515,11.842 13.523,11.879 13.535,11.917 13.558,11.954 13.586,11.991 13.586,11.991 13.644,12.046 
			13.712,12.089 13.793,12.126 13.879,12.158 13.97,12.186 14.065,12.218 14.16,12.252 14.251,12.289 14.337,12.338 14.418,12.398 
			14.489,12.47 14.55,12.559 14.595,12.668 14.624,12.797 14.636,12.952 14.624,13.132 14.624,13.132 14.604,13.267 14.57,13.385 
			14.524,13.494 14.466,13.588 14.401,13.671 14.326,13.743 14.246,13.806 14.157,13.861 14.065,13.904 13.97,13.941 13.873,13.97 
			13.773,13.993 13.675,14.01 13.58,14.018 13.486,14.024 13.397,14.027 13.397,14.027 13.274,14.027 13.159,14.024 13.059,14.024 
			12.964,14.021 12.878,14.018 12.801,14.013 12.732,14.007 12.666,13.998 12.606,13.993 12.551,13.981 12.497,13.973 
			12.448,13.958 12.399,13.947 12.353,13.93 12.307,13.912 12.259,13.895 12.388,13.261 12.388,13.261 12.413,13.267 12.445,13.276 
			12.485,13.287 12.534,13.299 12.586,13.31 12.643,13.322 12.706,13.336 12.775,13.347 12.846,13.359 12.921,13.37 12.998,13.379 
			13.079,13.388 13.162,13.39 13.245,13.393 13.328,13.393 13.411,13.39 13.411,13.39 13.494,13.373 13.56,13.35 13.612,13.319 
			13.652,13.279 13.681,13.239 13.704,13.193 13.718,13.147 13.73,13.104 13.73,13.104 13.735,13.021 13.71,12.949 13.661,12.892 
			13.589,12.843 13.503,12.8 13.403,12.757 13.291,12.717 13.179,12.671 13.064,12.619 12.955,12.559 12.855,12.484 12.763,12.396 
			12.692,12.287 12.64,12.158 12.614,12.003 12.617,11.819 12.617,11.819 12.631,11.707 12.651,11.601 12.68,11.504 12.715,11.412 
			12.76,11.326 12.812,11.252 12.872,11.18 12.944,11.117 13.027,11.062 13.119,11.016 13.222,10.973 13.337,10.942 13.466,10.916 
			13.606,10.896 13.761,10.884 13.93,10.882 13.93,10.882 14.036,10.882 14.134,10.884 14.223,10.887 14.303,10.89 14.375,10.896 
			14.441,10.902 14.498,10.907 14.55,10.913 14.598,10.919 14.639,10.927 14.676,10.933 14.71,10.939 14.739,10.945 14.765,10.948 
			14.79,10.953 14.813,10.956 14.667,11.604 		"/>
		<polygon style="fill-rule:evenodd;clip-rule:evenodd;fill:#FFFFFF;" points="15.347,10.248 16.141,10.248 16.023,10.942 
			16.502,10.942 16.399,11.59 15.894,11.576 15.619,13.175 15.616,13.233 15.631,13.282 15.659,13.319 15.697,13.35 15.748,13.37 
			15.805,13.388 15.869,13.399 15.937,13.405 16,13.402 16.058,13.396 16.109,13.388 16.155,13.376 16.193,13.365 16.218,13.356 
			16.236,13.35 16.241,13.347 16.141,13.881 16.121,13.895 16.101,13.907 16.081,13.918 16.061,13.93 16.041,13.938 16.018,13.947 
			15.992,13.955 15.966,13.964 15.937,13.973 15.909,13.978 15.874,13.984 15.84,13.99 15.803,13.995 15.76,14.001 15.714,14.007 
			15.665,14.013 15.447,14.013 15.332,14.004 15.232,13.993 15.14,13.975 15.063,13.955 14.997,13.93 14.942,13.901 14.894,13.866 
			14.856,13.829 14.828,13.789 14.808,13.74 14.793,13.692 14.785,13.637 14.782,13.577 14.782,13.514 14.79,13.448 14.799,13.376 
			15.347,10.248 15.347,10.248 		"/>
		<polyline style="fill:none;stroke:#FFFFFF;stroke-width:0.0902;stroke-miterlimit:2.6131;" points="15.347,10.248 16.141,10.248 
			16.023,10.942 16.502,10.942 16.399,11.59 15.894,11.576 15.619,13.175 15.619,13.175 15.616,13.233 15.631,13.282 15.659,13.319 
			15.697,13.35 15.748,13.37 15.805,13.388 15.869,13.399 15.937,13.405 15.937,13.405 16,13.402 16.058,13.396 16.109,13.388 
			16.155,13.376 16.193,13.365 16.218,13.356 16.236,13.35 16.241,13.347 16.141,13.881 16.141,13.881 16.121,13.895 16.101,13.907 
			16.081,13.918 16.061,13.93 16.041,13.938 16.018,13.947 15.992,13.955 15.966,13.964 15.937,13.973 15.909,13.978 15.874,13.984 
			15.84,13.99 15.803,13.995 15.76,14.001 15.714,14.007 15.665,14.013 15.447,14.013 15.447,14.013 15.332,14.004 15.232,13.993 
			15.14,13.975 15.063,13.955 14.997,13.93 14.942,13.901 14.894,13.866 14.856,13.829 14.828,13.789 14.808,13.74 14.793,13.692 
			14.785,13.637 14.782,13.577 14.782,13.514 14.79,13.448 14.799,13.376 15.347,10.248 		"/>
		<polygon style="fill-rule:evenodd;clip-rule:evenodd;fill:#FFFFFF;" points="17.136,12.671 17.127,12.72 17.124,12.771 
			17.13,12.826 17.142,12.88 17.162,12.935 17.185,12.986 17.216,13.041 17.251,13.089 17.291,13.138 17.334,13.181 17.38,13.224 
			17.431,13.259 17.483,13.29 17.54,13.316 17.598,13.336 17.655,13.347 17.729,13.359 17.801,13.368 17.876,13.376 17.95,13.382 
			18.025,13.385 18.102,13.385 18.177,13.382 18.254,13.376 18.332,13.365 18.409,13.35 18.489,13.333 18.567,13.307 18.647,13.276 
			18.73,13.241 18.81,13.196 18.894,13.147 18.779,13.852 18.733,13.875 18.687,13.898 18.641,13.915 18.598,13.932 18.555,13.947 
			18.509,13.961 18.463,13.973 18.415,13.981 18.363,13.99 18.306,13.995 18.246,14.001 18.18,14.007 18.105,14.01 18.028,14.01 
			17.939,14.013 17.844,14.013 17.704,14.01 17.56,13.995 17.417,13.975 17.274,13.941 17.133,13.898 16.998,13.843 16.869,13.772 
			16.749,13.689 16.637,13.591 16.539,13.474 16.456,13.342 16.388,13.19 16.339,13.021 16.307,12.828 16.299,12.616 16.313,12.381 
			16.324,12.289 16.342,12.183 16.365,12.072 16.396,11.951 16.439,11.828 16.491,11.705 16.557,11.578 16.637,11.458 
			16.729,11.343 16.841,11.234 16.967,11.137 17.11,11.051 17.276,10.979 17.463,10.927 17.669,10.893 17.901,10.882 18.013,10.884 
			18.131,10.896 18.248,10.916 18.366,10.945 18.481,10.988 18.592,11.039 18.696,11.108 18.79,11.188 18.876,11.286 18.948,11.401 
			19.005,11.533 19.045,11.684 19.068,11.856 19.071,12.051 19.051,12.269 19.008,12.51 18.994,12.685 16.904,12.685 17.036,12.12 
			18.291,12.12 18.297,12.049 18.294,11.98 18.289,11.917 18.277,11.859 18.257,11.805 18.237,11.756 18.208,11.713 18.18,11.673 
			18.145,11.639 18.108,11.61 18.065,11.584 18.022,11.561 17.976,11.544 17.93,11.533 17.881,11.524 17.83,11.518 17.775,11.521 
			17.724,11.53 17.675,11.541 17.626,11.558 17.577,11.581 17.534,11.607 17.491,11.639 17.454,11.673 17.417,11.713 17.382,11.756 
			17.351,11.802 17.325,11.851 17.299,11.902 17.279,11.96 17.262,12.017 17.251,12.077 17.136,12.671 17.136,12.671 		"/>
		<polyline style="fill:none;stroke:#FFFFFF;stroke-width:0.0902;stroke-miterlimit:2.6131;" points="17.136,12.671 17.136,12.671 
			17.127,12.72 17.124,12.771 17.13,12.826 17.142,12.88 17.162,12.935 17.185,12.986 17.216,13.041 17.251,13.089 17.291,13.138 
			17.334,13.181 17.38,13.224 17.431,13.259 17.483,13.29 17.54,13.316 17.598,13.336 17.655,13.347 17.655,13.347 17.729,13.359 
			17.801,13.368 17.876,13.376 17.95,13.382 18.025,13.385 18.102,13.385 18.177,13.382 18.254,13.376 18.332,13.365 18.409,13.35 
			18.489,13.333 18.567,13.307 18.647,13.276 18.73,13.241 18.81,13.196 18.894,13.147 18.779,13.852 18.779,13.852 18.733,13.875 
			18.687,13.898 18.641,13.915 18.598,13.932 18.555,13.947 18.509,13.961 18.463,13.973 18.415,13.981 18.363,13.99 18.306,13.995 
			18.246,14.001 18.18,14.007 18.105,14.01 18.028,14.01 17.939,14.013 17.844,14.013 17.844,14.013 17.704,14.01 17.56,13.995 
			17.417,13.975 17.274,13.941 17.133,13.898 16.998,13.843 16.869,13.772 16.749,13.689 16.637,13.591 16.539,13.474 
			16.456,13.342 16.388,13.19 16.339,13.021 16.307,12.828 16.299,12.616 16.313,12.381 16.313,12.381 16.324,12.289 16.342,12.183 
			16.365,12.072 16.396,11.951 16.439,11.828 16.491,11.705 16.557,11.578 16.637,11.458 16.729,11.343 16.841,11.234 
			16.967,11.137 17.11,11.051 17.276,10.979 17.463,10.927 17.669,10.893 17.901,10.882 17.901,10.882 18.013,10.884 18.131,10.896 
			18.248,10.916 18.366,10.945 18.481,10.988 18.592,11.039 18.696,11.108 18.79,11.188 18.876,11.286 18.948,11.401 19.005,11.533 
			19.045,11.684 19.068,11.856 19.071,12.051 19.051,12.269 19.008,12.51 18.994,12.685 16.904,12.685 17.036,12.12 18.291,12.12 
			18.291,12.12 18.297,12.049 18.294,11.98 18.289,11.917 18.277,11.859 18.257,11.805 18.237,11.756 18.208,11.713 18.18,11.673 
			18.145,11.639 18.108,11.61 18.065,11.584 18.022,11.561 17.976,11.544 17.93,11.533 17.881,11.524 17.83,11.518 17.83,11.518 
			17.775,11.521 17.724,11.53 17.675,11.541 17.626,11.558 17.577,11.581 17.534,11.607 17.491,11.639 17.454,11.673 17.417,11.713 
			17.382,11.756 17.351,11.802 17.325,11.851 17.299,11.902 17.279,11.96 17.262,12.017 17.251,12.077 17.136,12.671 		"/>
		<polygon style="fill-rule:evenodd;clip-rule:evenodd;fill:#FFFFFF;" points="23.974,11.114 23.937,11.094 23.9,11.077 
			23.86,11.057 23.817,11.036 23.774,11.019 23.725,11.002 23.676,10.985 23.625,10.968 23.57,10.953 23.516,10.942 23.455,10.93 
			23.395,10.922 23.329,10.916 23.263,10.91 23.194,10.91 23.123,10.91 23.051,10.91 22.977,10.916 22.899,10.925 22.819,10.939 
			22.739,10.962 22.658,10.993 22.578,11.034 22.498,11.085 22.42,11.148 22.346,11.223 22.274,11.315 22.205,11.421 22.142,11.547 
			22.082,11.69 22.027,11.851 21.982,12.034 21.964,12.137 21.953,12.238 21.947,12.338 21.95,12.436 21.959,12.533 21.979,12.625 
			22.005,12.711 22.036,12.797 22.079,12.874 22.131,12.949 22.191,13.015 22.26,13.075 22.337,13.127 22.426,13.17 22.523,13.207 
			22.632,13.233 22.67,13.241 22.713,13.25 22.764,13.256 22.822,13.261 22.885,13.267 22.951,13.267 23.022,13.267 23.094,13.261 
			23.169,13.253 23.243,13.239 23.315,13.218 23.387,13.196 23.458,13.164 23.524,13.127 23.584,13.081 23.642,13.029 
			23.513,13.795 23.495,13.809 23.478,13.826 23.455,13.846 23.43,13.864 23.398,13.887 23.358,13.907 23.312,13.927 23.26,13.944 
			23.194,13.964 23.12,13.978 23.034,13.99 22.934,14.001 22.822,14.007 22.693,14.01 22.546,14.007 22.386,13.998 22.254,13.984 
			22.122,13.955 21.99,13.912 21.858,13.855 21.732,13.786 21.612,13.7 21.497,13.6 21.391,13.485 21.296,13.356 21.216,13.213 
			21.147,13.052 21.096,12.877 21.061,12.685 21.05,12.482 21.055,12.258 21.087,12.02 21.11,11.902 21.136,11.788 21.164,11.676 
			21.193,11.57 21.225,11.469 21.262,11.369 21.299,11.274 21.339,11.186 21.382,11.097 21.425,11.014 21.474,10.933 21.526,10.859 
			21.577,10.787 21.635,10.718 21.692,10.655 21.752,10.595 21.818,10.538 21.884,10.483 21.953,10.434 22.025,10.388 
			22.102,10.345 22.179,10.308 22.26,10.274 22.343,10.242 22.432,10.214 22.521,10.191 22.612,10.171 22.71,10.153 22.807,10.139 
			22.911,10.128 23.014,10.122 23.123,10.119 23.215,10.122 23.303,10.128 23.389,10.136 23.475,10.148 23.556,10.159 
			23.633,10.176 23.708,10.191 23.776,10.208 23.842,10.225 23.9,10.242 23.954,10.259 24,10.277 24.04,10.291 24.075,10.302 
			24.101,10.314 24.118,10.32 23.974,11.114 23.974,11.114 		"/>
		<polyline style="fill:none;stroke:#FFFFFF;stroke-width:0.0902;stroke-miterlimit:2.6131;" points="23.974,11.114 23.974,11.114 
			23.937,11.094 23.9,11.077 23.86,11.057 23.817,11.036 23.774,11.019 23.725,11.002 23.676,10.985 23.625,10.968 23.57,10.953 
			23.516,10.942 23.455,10.93 23.395,10.922 23.329,10.916 23.263,10.91 23.194,10.91 23.123,10.91 23.123,10.91 23.051,10.91 
			22.977,10.916 22.899,10.925 22.819,10.939 22.739,10.962 22.658,10.993 22.578,11.034 22.498,11.085 22.42,11.148 22.346,11.223 
			22.274,11.315 22.205,11.421 22.142,11.547 22.082,11.69 22.027,11.851 21.982,12.034 21.982,12.034 21.964,12.137 21.953,12.238 
			21.947,12.338 21.95,12.436 21.959,12.533 21.979,12.625 22.005,12.711 22.036,12.797 22.079,12.874 22.131,12.949 22.191,13.015 
			22.26,13.075 22.337,13.127 22.426,13.17 22.523,13.207 22.632,13.233 22.632,13.233 22.67,13.241 22.713,13.25 22.764,13.256 
			22.822,13.261 22.885,13.267 22.951,13.267 23.022,13.267 23.094,13.261 23.169,13.253 23.243,13.239 23.315,13.218 
			23.387,13.196 23.458,13.164 23.524,13.127 23.584,13.081 23.642,13.029 23.513,13.795 23.513,13.795 23.495,13.809 
			23.478,13.826 23.455,13.846 23.43,13.864 23.398,13.887 23.358,13.907 23.312,13.927 23.26,13.944 23.194,13.964 23.12,13.978 
			23.034,13.99 22.934,14.001 22.822,14.007 22.693,14.01 22.546,14.007 22.386,13.998 22.386,13.998 22.254,13.984 22.122,13.955 
			21.99,13.912 21.858,13.855 21.732,13.786 21.612,13.7 21.497,13.6 21.391,13.485 21.296,13.356 21.216,13.213 21.147,13.052 
			21.096,12.877 21.061,12.685 21.05,12.482 21.055,12.258 21.087,12.02 21.087,12.02 21.11,11.902 21.136,11.788 21.164,11.676 
			21.193,11.57 21.225,11.469 21.262,11.369 21.299,11.274 21.339,11.186 21.382,11.097 21.425,11.014 21.474,10.933 21.526,10.859 
			21.577,10.787 21.635,10.718 21.692,10.655 21.752,10.595 21.818,10.538 21.884,10.483 21.953,10.434 22.025,10.388 
			22.102,10.345 22.179,10.308 22.26,10.274 22.343,10.242 22.432,10.214 22.521,10.191 22.612,10.171 22.71,10.153 22.807,10.139 
			22.911,10.128 23.014,10.122 23.123,10.119 23.123,10.119 23.215,10.122 23.303,10.128 23.389,10.136 23.475,10.148 
			23.556,10.159 23.633,10.176 23.708,10.191 23.776,10.208 23.842,10.225 23.9,10.242 23.954,10.259 24,10.277 24.04,10.291 
			24.075,10.302 24.101,10.314 24.118,10.32 23.974,11.114 		"/>
		<polygon style="fill-rule:evenodd;clip-rule:evenodd;fill:#FFFFFF;" points="31.034,14.013 30.239,14.013 30.297,13.694 
			30.297,13.666 30.251,13.723 30.202,13.775 30.153,13.821 30.102,13.861 30.05,13.898 29.998,13.93 29.947,13.955 29.892,13.981 
			29.838,14.001 29.783,14.016 29.729,14.03 29.672,14.039 29.614,14.047 29.56,14.053 29.502,14.056 29.445,14.056 29.296,14.044 
			29.158,14.013 29.032,13.964 28.918,13.898 28.814,13.815 28.723,13.717 28.642,13.611 28.573,13.491 28.516,13.362 28.47,13.227 
			28.439,13.087 28.416,12.94 28.407,12.794 28.41,12.645 28.424,12.499 28.45,12.353 28.493,12.183 28.545,12.023 28.605,11.877 
			28.677,11.739 28.751,11.61 28.837,11.495 28.926,11.392 29.021,11.297 29.121,11.214 29.227,11.143 29.336,11.079 29.445,11.031 
			29.56,10.991 29.674,10.965 29.789,10.948 29.907,10.942 29.99,10.945 30.07,10.953 30.145,10.968 30.214,10.988 30.279,11.011 
			30.337,11.036 30.394,11.068 30.446,11.1 30.492,11.134 30.535,11.171 30.572,11.209 30.606,11.246 30.635,11.283 30.661,11.32 
			30.684,11.355 30.701,11.389 30.701,11.389 30.902,10.262 31.682,10.262 31.034,14.013 31.034,14.013 		"/>
		<polyline style="fill:none;stroke:#FFFFFF;stroke-width:0.0902;stroke-miterlimit:2.6131;" points="31.034,14.013 30.239,14.013 
			30.297,13.694 30.297,13.666 30.297,13.666 30.251,13.723 30.202,13.775 30.153,13.821 30.102,13.861 30.05,13.898 29.998,13.93 
			29.947,13.955 29.892,13.981 29.838,14.001 29.783,14.016 29.729,14.03 29.672,14.039 29.614,14.047 29.56,14.053 29.502,14.056 
			29.445,14.056 29.445,14.056 29.296,14.044 29.158,14.013 29.032,13.964 28.918,13.898 28.814,13.815 28.723,13.717 
			28.642,13.611 28.573,13.491 28.516,13.362 28.47,13.227 28.439,13.087 28.416,12.94 28.407,12.794 28.41,12.645 28.424,12.499 
			28.45,12.353 28.45,12.353 28.493,12.183 28.545,12.023 28.605,11.877 28.677,11.739 28.751,11.61 28.837,11.495 28.926,11.392 
			29.021,11.297 29.121,11.214 29.227,11.143 29.336,11.079 29.445,11.031 29.56,10.991 29.674,10.965 29.789,10.948 29.907,10.942 
			29.907,10.942 29.99,10.945 30.07,10.953 30.145,10.968 30.214,10.988 30.279,11.011 30.337,11.036 30.394,11.068 30.446,11.1 
			30.492,11.134 30.535,11.171 30.572,11.209 30.606,11.246 30.635,11.283 30.661,11.32 30.684,11.355 30.701,11.389 30.701,11.389 
			30.902,10.262 31.682,10.262 31.034,14.013 		"/>
		<polygon style="fill-rule:evenodd;clip-rule:evenodd;fill:#FBB231;" points="29.735,13.319 29.815,13.313 29.89,13.296 
			29.958,13.276 30.024,13.244 30.084,13.21 30.142,13.167 30.196,13.118 30.245,13.066 30.288,13.009 30.328,12.946 30.365,12.88 
			30.397,12.811 30.426,12.74 30.449,12.665 30.469,12.588 30.483,12.51 30.497,12.43 30.506,12.347 30.506,12.269 30.503,12.189 
			30.495,12.115 30.483,12.043 30.463,11.974 30.44,11.908 30.411,11.851 30.377,11.796 30.34,11.75 30.297,11.71 30.248,11.676 
			30.196,11.653 30.142,11.639 30.082,11.633 30.004,11.639 29.933,11.65 29.867,11.673 29.801,11.702 29.743,11.739 29.686,11.785 
			29.637,11.834 29.588,11.888 29.545,11.951 29.505,12.017 29.468,12.086 29.436,12.16 29.408,12.238 29.385,12.315 29.362,12.398 
			29.345,12.482 29.33,12.608 29.336,12.745 29.356,12.886 29.393,13.021 29.451,13.138 29.525,13.233 29.62,13.296 29.735,13.319 
			29.735,13.319 		"/>
		<polygon style="fill-rule:evenodd;clip-rule:evenodd;fill:#FFFFFF;" points="12.127,13.376 12.012,14.013 11.29,14.013 
			11.31,13.895 11.324,13.789 11.335,13.709 11.347,13.666 11.307,13.712 11.261,13.757 11.206,13.801 11.146,13.841 11.077,13.881 
			11.006,13.915 10.931,13.95 10.854,13.978 10.771,14.004 10.687,14.024 10.604,14.041 10.518,14.053 10.435,14.059 10.352,14.061 
			10.272,14.053 10.194,14.041 10.094,14.016 10.002,13.987 9.922,13.95 9.85,13.907 9.787,13.861 9.73,13.809 9.684,13.755 
			9.644,13.697 9.609,13.637 9.581,13.574 9.558,13.511 9.54,13.448 9.529,13.382 9.52,13.316 9.515,13.253 9.515,13.19 
			9.523,13.078 9.54,12.972 9.569,12.872 9.606,12.774 9.652,12.682 9.704,12.599 9.764,12.519 9.833,12.447 9.905,12.381 
			9.985,12.321 10.068,12.267 10.154,12.221 10.246,12.181 10.341,12.149 10.438,12.123 10.538,12.106 10.544,12.106 10.558,12.103 
			10.578,12.1 10.61,12.097 10.644,12.092 10.685,12.089 10.728,12.083 10.776,12.077 10.825,12.072 10.874,12.066 10.925,12.063 
			10.971,12.057 11.017,12.054 11.06,12.051 11.1,12.049 11.132,12.049 11.198,12.049 11.267,12.051 11.33,12.054 11.393,12.054 
			11.444,12.057 11.485,12.06 11.513,12.063 11.522,12.063 11.527,12.043 11.545,11.991 11.559,11.931 11.565,11.877 11.553,11.814 
			11.527,11.756 11.493,11.705 11.447,11.662 11.393,11.624 11.333,11.598 11.264,11.581 11.189,11.576 11.109,11.573 11.023,11.57 
			10.934,11.57 10.842,11.573 10.748,11.578 10.656,11.587 10.564,11.596 10.475,11.607 10.389,11.619 10.306,11.633 10.231,11.647 
			10.163,11.662 10.1,11.679 10.048,11.696 10.008,11.716 9.976,11.733 10.18,11.042 10.243,11.016 10.306,10.993 10.375,10.973 
			10.444,10.959 10.512,10.945 10.587,10.933 10.662,10.922 10.739,10.916 10.819,10.91 10.902,10.907 10.988,10.905 11.077,10.905 
			11.169,10.905 11.264,10.905 11.364,10.907 11.464,10.91 11.545,10.916 11.631,10.93 11.72,10.95 11.811,10.976 11.9,11.011 
			11.986,11.051 12.072,11.1 12.153,11.154 12.224,11.217 12.287,11.286 12.345,11.363 12.388,11.449 12.416,11.541 12.434,11.639 
			12.434,11.748 12.416,11.862 12.127,13.376 12.127,13.376 		"/>
		<polyline style="fill:none;stroke:#FFFFFF;stroke-width:0.0902;stroke-miterlimit:2.6131;" points="12.127,13.376 12.012,14.013 
			11.29,14.013 11.29,14.013 11.31,13.895 11.324,13.789 11.335,13.709 11.347,13.666 11.347,13.666 11.307,13.712 11.261,13.757 
			11.206,13.801 11.146,13.841 11.077,13.881 11.006,13.915 10.931,13.95 10.854,13.978 10.771,14.004 10.687,14.024 10.604,14.041 
			10.518,14.053 10.435,14.059 10.352,14.061 10.272,14.053 10.194,14.041 10.194,14.041 10.094,14.016 10.002,13.987 9.922,13.95 
			9.85,13.907 9.787,13.861 9.73,13.809 9.684,13.755 9.644,13.697 9.609,13.637 9.581,13.574 9.558,13.511 9.54,13.448 
			9.529,13.382 9.52,13.316 9.515,13.253 9.515,13.19 9.515,13.19 9.523,13.078 9.54,12.972 9.569,12.872 9.606,12.774 
			9.652,12.682 9.704,12.599 9.764,12.519 9.833,12.447 9.905,12.381 9.985,12.321 10.068,12.267 10.154,12.221 10.246,12.181 
			10.341,12.149 10.438,12.123 10.538,12.106 10.538,12.106 10.544,12.106 10.558,12.103 10.578,12.1 10.61,12.097 10.644,12.092 
			10.685,12.089 10.728,12.083 10.776,12.077 10.825,12.072 10.874,12.066 10.925,12.063 10.971,12.057 11.017,12.054 11.06,12.051 
			11.1,12.049 11.132,12.049 11.132,12.049 11.198,12.049 11.267,12.051 11.33,12.054 11.393,12.054 11.444,12.057 11.485,12.06 
			11.513,12.063 11.522,12.063 11.522,12.063 11.527,12.043 11.545,11.991 11.559,11.931 11.565,11.877 11.565,11.877 
			11.553,11.814 11.527,11.756 11.493,11.705 11.447,11.662 11.393,11.624 11.333,11.598 11.264,11.581 11.189,11.576 
			11.189,11.576 11.109,11.573 11.023,11.57 10.934,11.57 10.842,11.573 10.748,11.578 10.656,11.587 10.564,11.596 10.475,11.607 
			10.389,11.619 10.306,11.633 10.231,11.647 10.163,11.662 10.1,11.679 10.048,11.696 10.008,11.716 9.976,11.733 10.18,11.042 
			10.18,11.042 10.243,11.016 10.306,10.993 10.375,10.973 10.444,10.959 10.512,10.945 10.587,10.933 10.662,10.922 10.739,10.916 
			10.819,10.91 10.902,10.907 10.988,10.905 11.077,10.905 11.169,10.905 11.264,10.905 11.364,10.907 11.464,10.91 11.464,10.91 
			11.545,10.916 11.631,10.93 11.72,10.95 11.811,10.976 11.9,11.011 11.986,11.051 12.072,11.1 12.153,11.154 12.224,11.217 
			12.287,11.286 12.345,11.363 12.388,11.449 12.416,11.541 12.434,11.639 12.434,11.748 12.416,11.862 12.127,13.376 		"/>
		<polygon style="fill-rule:evenodd;clip-rule:evenodd;fill:#EC1C2E;" points="11.436,12.628 11.433,12.613 11.421,12.599 
			11.404,12.59 11.376,12.585 11.344,12.579 11.307,12.576 11.264,12.576 11.221,12.576 11.175,12.579 11.126,12.585 11.08,12.59 
			11.034,12.596 10.991,12.602 10.951,12.611 10.917,12.619 10.885,12.628 10.865,12.634 10.842,12.642 10.811,12.654 
			10.779,12.668 10.742,12.685 10.705,12.705 10.664,12.725 10.627,12.748 10.587,12.777 10.55,12.806 10.515,12.84 10.484,12.874 
			10.455,12.912 10.435,12.952 10.418,12.998 10.409,13.044 10.406,13.141 10.421,13.218 10.449,13.276 10.487,13.319 10.53,13.347 
			10.578,13.365 10.624,13.373 10.67,13.376 10.756,13.373 10.834,13.365 10.908,13.353 10.974,13.336 11.031,13.316 11.086,13.29 
			11.135,13.264 11.178,13.233 11.215,13.204 11.249,13.17 11.278,13.138 11.301,13.104 11.321,13.069 11.338,13.035 11.353,13.003 
			11.361,12.972 11.384,12.889 11.404,12.794 11.421,12.702 11.436,12.628 11.436,12.628 		"/>
		<polygon style="fill-rule:evenodd;clip-rule:evenodd;fill:#FFFFFF;" points="6.094,14.013 5.314,14.013 5.965,10.248 
			7.321,10.248 7.45,12.482 8.388,10.248 9.804,10.248 9.139,14.013 8.359,14.013 8.852,11.2 8.821,11.2 7.654,14.013 6.774,14.013 
			6.768,13.895 6.748,13.583 6.722,13.138 6.693,12.628 6.665,12.115 6.639,11.664 6.619,11.338 6.613,11.2 6.604,11.2 6.587,11.2 
			6.57,11.2 6.57,11.2 6.094,14.013 6.094,14.013 		"/>
		<polyline style="fill:none;stroke:#FFFFFF;stroke-width:0.0902;stroke-miterlimit:2.6131;" points="6.094,14.013 5.314,14.013 
			5.965,10.248 7.321,10.248 7.45,12.482 8.388,10.248 9.804,10.248 9.139,14.013 8.359,14.013 8.852,11.2 8.821,11.2 7.654,14.013 
			6.774,14.013 6.774,14.013 6.768,13.895 6.748,13.583 6.722,13.138 6.693,12.628 6.665,12.115 6.639,11.664 6.619,11.338 
			6.613,11.2 6.613,11.2 6.604,11.2 6.587,11.2 6.57,11.2 6.57,11.2 6.094,14.013 		"/>
		<polygon style="fill-rule:evenodd;clip-rule:evenodd;fill:#FFFFFF;" points="26.357,13.376 26.24,14.013 25.52,14.013 
			25.526,13.895 25.528,13.792 25.528,13.714 25.534,13.68 25.497,13.723 25.454,13.766 25.402,13.806 25.345,13.846 25.285,13.884 
			25.216,13.918 25.144,13.952 25.072,13.981 24.995,14.004 24.915,14.027 24.835,14.041 24.754,14.053 24.671,14.059 
			24.591,14.061 24.513,14.053 24.436,14.041 24.333,14.016 24.241,13.987 24.161,13.95 24.086,13.907 24.023,13.861 23.969,13.809 
			23.923,13.755 23.883,13.697 23.848,13.637 23.822,13.574 23.799,13.511 23.785,13.448 23.774,13.382 23.765,13.316 
			23.759,13.253 23.759,13.19 23.765,13.078 23.782,12.972 23.808,12.872 23.845,12.774 23.888,12.682 23.943,12.599 24.003,12.519 
			24.069,12.447 24.143,12.381 24.221,12.321 24.304,12.267 24.393,12.221 24.482,12.181 24.576,12.149 24.671,12.123 
			24.769,12.106 24.774,12.106 24.789,12.103 24.809,12.1 24.837,12.097 24.875,12.092 24.915,12.089 24.958,12.083 25.004,12.077 
			25.052,12.072 25.104,12.066 25.153,12.063 25.202,12.057 25.247,12.054 25.288,12.051 25.328,12.049 25.359,12.049 
			25.428,12.049 25.497,12.051 25.563,12.054 25.626,12.054 25.68,12.057 25.726,12.06 25.752,12.063 25.764,12.063 25.769,12.043 
			25.778,11.991 25.786,11.931 25.792,11.877 25.781,11.814 25.758,11.756 25.721,11.705 25.677,11.662 25.626,11.624 
			25.566,11.598 25.503,11.581 25.434,11.576 25.353,11.573 25.267,11.57 25.179,11.57 25.087,11.573 24.992,11.578 24.9,11.587 
			24.809,11.596 24.72,11.607 24.634,11.619 24.551,11.633 24.476,11.647 24.407,11.662 24.344,11.679 24.293,11.696 24.252,11.716 
			24.221,11.733 24.422,11.042 24.485,11.016 24.551,10.993 24.617,10.973 24.685,10.959 24.757,10.945 24.829,10.933 
			24.903,10.922 24.981,10.916 25.061,10.91 25.144,10.907 25.227,10.905 25.316,10.905 25.405,10.905 25.497,10.905 25.594,10.907 
			25.692,10.91 25.772,10.916 25.858,10.93 25.947,10.95 26.039,10.976 26.128,11.011 26.217,11.051 26.303,11.1 26.383,11.154 
			26.455,11.217 26.52,11.286 26.578,11.363 26.621,11.449 26.652,11.541 26.672,11.639 26.672,11.748 26.658,11.862 26.357,13.376 
			26.357,13.376 		"/>
		<polygon style="fill-rule:evenodd;clip-rule:evenodd;fill:#FFFFFF;" points="26.24,14.033 26.257,14.016 26.374,13.379 
			26.34,13.373 26.222,14.01 26.24,13.993 26.24,14.033 26.254,14.03 26.257,14.016 26.24,14.033 26.24,14.033 		"/>
		<polygon style="fill-rule:evenodd;clip-rule:evenodd;fill:#FFFFFF;" points="25.503,14.013 25.52,14.033 26.24,14.033 
			26.24,13.993 25.52,13.993 25.537,14.013 25.503,14.013 25.5,14.033 25.52,14.033 25.503,14.013 25.503,14.013 		"/>
		<polygon style="fill-rule:evenodd;clip-rule:evenodd;fill:#FFFFFF;" points="25.548,13.692 25.523,13.669 25.511,13.714 
			25.508,13.792 25.508,13.895 25.503,14.013 25.537,14.013 25.543,13.895 25.548,13.792 25.546,13.714 25.546,13.692 25.52,13.669 
			25.548,13.692 25.548,13.692 		"/>
		<polygon style="fill-rule:evenodd;clip-rule:evenodd;fill:#FFFFFF;" points="24.433,14.059 24.433,14.059 24.513,14.07 
			24.591,14.079 24.671,14.076 24.754,14.07 24.837,14.059 24.918,14.044 24.998,14.021 25.078,13.998 25.15,13.97 25.224,13.935 
			25.293,13.901 25.353,13.861 25.414,13.821 25.465,13.78 25.511,13.735 25.548,13.692 25.52,13.669 25.483,13.712 25.442,13.752 
			25.391,13.792 25.336,13.832 25.276,13.866 25.207,13.901 25.138,13.935 25.067,13.964 24.992,13.987 24.912,14.01 24.832,14.024 
			24.754,14.036 24.671,14.041 24.591,14.044 24.513,14.036 24.439,14.024 24.439,14.024 24.433,14.059 24.433,14.059 		"/>
		<polygon style="fill-rule:evenodd;clip-rule:evenodd;fill:#FFFFFF;" points="23.739,13.19 23.739,13.19 23.742,13.253 
			23.748,13.316 23.756,13.385 23.768,13.451 23.782,13.514 23.805,13.58 23.831,13.646 23.868,13.706 23.908,13.766 23.954,13.821 
			24.012,13.875 24.078,13.921 24.152,13.967 24.235,14.004 24.33,14.033 24.433,14.059 24.439,14.024 24.336,13.998 24.247,13.97 
			24.169,13.932 24.095,13.892 24.035,13.846 23.983,13.798 23.937,13.743 23.897,13.689 23.865,13.628 23.84,13.568 23.817,13.508 
			23.802,13.445 23.791,13.379 23.782,13.316 23.776,13.253 23.779,13.19 23.779,13.19 23.739,13.19 23.739,13.19 		"/>
		<polygon style="fill-rule:evenodd;clip-rule:evenodd;fill:#FFFFFF;" points="24.769,12.089 24.769,12.089 24.668,12.106 
			24.571,12.132 24.476,12.163 24.384,12.203 24.295,12.249 24.209,12.307 24.132,12.367 24.057,12.436 23.989,12.507 
			23.928,12.588 23.871,12.674 23.828,12.768 23.791,12.866 23.765,12.969 23.748,13.078 23.739,13.19 23.779,13.19 23.782,13.078 
			23.799,12.975 23.825,12.877 23.863,12.78 23.906,12.691 23.957,12.611 24.017,12.53 24.08,12.459 24.155,12.396 24.232,12.335 
			24.313,12.284 24.402,12.238 24.488,12.198 24.582,12.166 24.674,12.14 24.769,12.123 24.769,12.123 24.769,12.089 24.769,12.089 
					"/>
		<polygon style="fill-rule:evenodd;clip-rule:evenodd;fill:#FFFFFF;" points="25.359,12.029 25.359,12.029 25.328,12.029 
			25.288,12.034 25.247,12.037 25.202,12.04 25.153,12.046 25.104,12.049 25.052,12.054 25.004,12.06 24.958,12.066 24.915,12.072 
			24.875,12.074 24.837,12.08 24.809,12.083 24.786,12.086 24.774,12.089 24.769,12.089 24.769,12.123 24.774,12.123 24.792,12.12 
			24.809,12.117 24.837,12.115 24.875,12.109 24.915,12.106 24.958,12.1 25.004,12.094 25.052,12.089 25.104,12.083 25.153,12.08 
			25.202,12.074 25.247,12.072 25.288,12.069 25.328,12.069 25.359,12.069 25.359,12.069 25.359,12.029 25.359,12.029 		"/>
		<polygon style="fill-rule:evenodd;clip-rule:evenodd;fill:#FFFFFF;" points="25.746,12.06 25.764,12.046 25.752,12.046 
			25.726,12.043 25.68,12.04 25.626,12.034 25.563,12.034 25.497,12.034 25.428,12.029 25.359,12.029 25.359,12.069 25.428,12.069 
			25.497,12.069 25.563,12.074 25.626,12.074 25.68,12.074 25.726,12.077 25.752,12.08 25.764,12.08 25.781,12.066 25.764,12.08 
			25.778,12.083 25.781,12.066 25.746,12.06 25.746,12.06 		"/>
		<polygon style="fill-rule:evenodd;clip-rule:evenodd;fill:#FFFFFF;" points="25.775,11.877 25.772,11.877 25.769,11.931 
			25.761,11.988 25.752,12.04 25.746,12.06 25.781,12.066 25.786,12.046 25.795,11.994 25.804,11.931 25.812,11.877 25.809,11.877 
			25.775,11.877 25.775,11.877 		"/>
		<polygon style="fill-rule:evenodd;clip-rule:evenodd;fill:#FFFFFF;" points="25.434,11.593 25.434,11.596 25.5,11.598 
			25.56,11.616 25.617,11.641 25.666,11.676 25.706,11.716 25.741,11.765 25.764,11.816 25.775,11.877 25.809,11.877 25.798,11.811 
			25.775,11.748 25.735,11.693 25.689,11.647 25.635,11.607 25.571,11.581 25.505,11.564 25.434,11.555 25.434,11.558 
			25.434,11.593 25.434,11.593 		"/>
		<polygon style="fill-rule:evenodd;clip-rule:evenodd;fill:#FFFFFF;" points="24.204,11.73 24.232,11.748 24.261,11.733 
			24.298,11.713 24.347,11.696 24.41,11.679 24.479,11.664 24.554,11.65 24.637,11.636 24.72,11.624 24.809,11.613 24.9,11.604 
			24.992,11.596 25.087,11.59 25.179,11.59 25.267,11.59 25.353,11.59 25.434,11.593 25.434,11.558 25.353,11.555 25.267,11.55 
			25.179,11.55 25.087,11.555 24.992,11.561 24.9,11.57 24.809,11.578 24.72,11.59 24.631,11.601 24.548,11.616 24.473,11.63 
			24.404,11.644 24.341,11.662 24.287,11.679 24.244,11.699 24.209,11.719 24.238,11.736 24.204,11.73 24.204,11.73 		"/>
		<polygon style="fill-rule:evenodd;clip-rule:evenodd;fill:#FFFFFF;" points="24.416,11.025 24.404,11.039 24.204,11.73 
			24.238,11.736 24.439,11.045 24.427,11.059 24.416,11.025 24.407,11.028 24.404,11.039 24.416,11.025 24.416,11.025 		"/>
		<polygon style="fill-rule:evenodd;clip-rule:evenodd;fill:#FFFFFF;" points="25.692,10.893 25.692,10.893 25.594,10.887 
			25.497,10.884 25.405,10.884 25.316,10.884 25.227,10.884 25.144,10.89 25.061,10.893 24.981,10.899 24.903,10.905 24.826,10.916 
			24.754,10.927 24.683,10.942 24.614,10.956 24.545,10.976 24.479,10.999 24.416,11.025 24.427,11.059 24.49,11.034 24.556,11.011 
			24.619,10.991 24.688,10.976 24.76,10.962 24.832,10.95 24.903,10.939 24.981,10.933 25.061,10.927 25.144,10.925 25.227,10.925 
			25.316,10.925 25.405,10.925 25.497,10.925 25.594,10.927 25.692,10.927 25.692,10.927 25.692,10.893 25.692,10.893 		"/>
		<polygon style="fill-rule:evenodd;clip-rule:evenodd;fill:#FFFFFF;" points="26.675,11.865 26.675,11.865 26.69,11.748 
			26.69,11.639 26.67,11.538 26.638,11.444 26.592,11.355 26.535,11.274 26.466,11.203 26.394,11.14 26.311,11.085 26.225,11.034 
			26.133,10.993 26.044,10.959 25.95,10.933 25.861,10.913 25.772,10.899 25.692,10.893 25.692,10.927 25.772,10.933 25.855,10.948 
			25.944,10.968 26.033,10.993 26.122,11.028 26.208,11.068 26.294,11.114 26.371,11.168 26.443,11.231 26.506,11.297 
			26.563,11.372 26.604,11.455 26.635,11.544 26.655,11.639 26.655,11.748 26.641,11.859 26.641,11.859 26.675,11.865 
			26.675,11.865 		"/>
		<polygon style="fill-rule:evenodd;clip-rule:evenodd;fill:#FFFFFF;" points="26.374,13.379 26.374,13.379 26.675,11.865 
			26.641,11.859 26.34,13.373 26.34,13.373 26.374,13.379 26.374,13.379 		"/>
		<polygon style="fill-rule:evenodd;clip-rule:evenodd;fill:#FBB231;" points="25.663,12.628 25.657,12.611 25.646,12.596 
			25.626,12.588 25.597,12.579 25.566,12.576 25.528,12.573 25.485,12.573 25.442,12.576 25.397,12.582 25.351,12.588 
			25.305,12.593 25.262,12.599 25.219,12.608 25.181,12.613 25.144,12.622 25.115,12.628 25.095,12.631 25.072,12.639 
			25.044,12.648 25.012,12.659 24.975,12.677 24.941,12.694 24.9,12.714 24.863,12.74 24.826,12.765 24.789,12.797 24.757,12.828 
			24.726,12.866 24.7,12.906 24.68,12.949 24.662,12.995 24.654,13.044 24.651,13.141 24.665,13.218 24.688,13.276 24.723,13.319 
			24.766,13.347 24.814,13.365 24.863,13.373 24.912,13.376 24.998,13.373 25.078,13.365 25.153,13.35 25.219,13.33 25.282,13.307 
			25.336,13.282 25.388,13.253 25.434,13.218 25.474,13.187 25.508,13.15 25.54,13.115 25.566,13.078 25.586,13.044 25.6,13.009 
			25.612,12.975 25.62,12.943 25.632,12.863 25.646,12.78 25.657,12.699 25.663,12.628 25.663,12.628 		"/>
		<polygon style="fill-rule:evenodd;clip-rule:evenodd;fill:#FFFFFF;" points="31.57,13.62 31.575,13.554 31.598,13.477 
			31.639,13.408 31.687,13.347 31.748,13.299 31.816,13.264 31.891,13.241 31.971,13.233 32.051,13.241 32.126,13.264 
			32.195,13.299 32.255,13.347 32.304,13.408 32.344,13.477 32.367,13.554 32.373,13.62 32.287,13.62 32.284,13.568 32.267,13.505 
			32.238,13.448 32.201,13.399 32.155,13.359 32.1,13.33 32.037,13.31 31.971,13.304 31.905,13.31 31.842,13.33 31.788,13.359 
			31.742,13.399 31.705,13.448 31.676,13.505 31.659,13.568 31.653,13.62 31.57,13.62 31.57,13.62 		"/>
		<polygon style="fill-rule:evenodd;clip-rule:evenodd;fill:#FFFFFF;" points="31.828,13.62 31.828,13.448 31.985,13.448 
			32.02,13.451 32.051,13.456 32.074,13.465 32.094,13.477 32.109,13.494 32.12,13.511 32.126,13.531 32.129,13.551 32.126,13.577 
			32.12,13.597 32.112,13.614 32.106,13.62 31.985,13.62 31.997,13.617 32.017,13.614 32.034,13.608 32.049,13.603 32.06,13.594 
			32.066,13.585 32.072,13.571 32.072,13.551 32.069,13.537 32.063,13.525 32.054,13.519 32.046,13.514 32.031,13.511 
			32.017,13.508 32.003,13.508 31.985,13.508 31.9,13.508 31.9,13.62 31.828,13.62 31.828,13.62 		"/>
		<polygon style="fill-rule:evenodd;clip-rule:evenodd;fill:#FFFFFF;" points="31.57,13.62 31.567,13.637 31.575,13.72 
			31.598,13.798 31.639,13.866 31.687,13.924 31.748,13.973 31.816,14.01 31.891,14.033 31.971,14.041 32.051,14.033 32.126,14.01 
			32.195,13.973 32.255,13.924 32.304,13.866 32.344,13.798 32.367,13.72 32.375,13.637 32.373,13.62 32.287,13.62 32.289,13.637 
			32.284,13.706 32.267,13.769 32.238,13.823 32.201,13.872 32.155,13.912 32.1,13.944 32.037,13.964 31.971,13.97 31.905,13.964 
			31.842,13.944 31.788,13.912 31.742,13.872 31.705,13.823 31.676,13.769 31.659,13.706 31.653,13.637 31.653,13.62 31.57,13.62 
			31.57,13.62 		"/>
		<polygon style="fill-rule:evenodd;clip-rule:evenodd;fill:#FFFFFF;" points="31.828,13.62 31.828,13.795 31.9,13.795 31.9,13.651 
			31.971,13.651 32.057,13.795 32.115,13.795 32.029,13.651 32.049,13.651 32.069,13.646 32.086,13.64 32.1,13.628 32.106,13.62 
			31.985,13.62 31.971,13.623 31.9,13.623 31.9,13.62 31.828,13.62 31.828,13.62 		"/>
		<path style="fill:none;stroke:#FFFFFF;stroke-width:0.0902;stroke-miterlimit:2.6131;" d="M31.567,13.637L31.567,13.637
			l0.009-0.083l0.023-0.077l0.04-0.069l0.049-0.06l0.06-0.049l0.069-0.034l0.075-0.023l0.08-0.009l0,0l0.08,0.009l0.075,0.023
			l0.069,0.034l0.06,0.049l0.049,0.06l0.04,0.069l0.023,0.077l0.009,0.083l0,0l-0.009,0.083l-0.023,0.077l-0.04,0.069l-0.049,0.057
			l-0.06,0.049l-0.069,0.037l-0.075,0.023l-0.08,0.009l0,0l-0.08-0.009l-0.075-0.023l-0.069-0.037l-0.06-0.049l-0.049-0.057
			l-0.04-0.069l-0.023-0.077L31.567,13.637 M31.9,13.795h-0.072v-0.347h0.158l0,0l0.034,0.003l0.032,0.006l0.023,0.009l0.02,0.011
			l0.014,0.017l0.011,0.017l0.006,0.02l0.003,0.02l0,0l-0.003,0.026l-0.006,0.02l-0.009,0.017L32.1,13.628l-0.014,0.011
			l-0.017,0.006l-0.02,0.006h-0.02l0.086,0.143h-0.057l-0.086-0.143H31.9V13.795 M31.971,13.623L31.971,13.623l0.026-0.006
			l0.02-0.003l0.017-0.006l0.014-0.006l0.011-0.009l0.006-0.009l0.006-0.014v-0.02l0,0l-0.003-0.014l-0.006-0.011l-0.009-0.006
			l-0.009-0.006l-0.014-0.003l-0.014-0.003h-0.014h-0.017H31.9v0.115H31.971 M31.971,13.97L31.971,13.97l0.066-0.006l0.063-0.02
			l0.054-0.032l0.046-0.04l0.037-0.049l0.029-0.054l0.017-0.063l0.006-0.069l0,0l-0.006-0.069l-0.017-0.063l-0.029-0.057
			l-0.037-0.049l-0.046-0.04L32.1,13.33l-0.063-0.02l-0.066-0.006l0,0l-0.066,0.006l-0.063,0.02l-0.054,0.029l-0.046,0.04
			l-0.037,0.049l-0.029,0.057l-0.017,0.063l-0.006,0.069l0,0l0.006,0.069l0.017,0.063l0.029,0.054l0.037,0.049l0.046,0.04
			l0.054,0.032l0.063,0.02L31.971,13.97"/>
		<polygon style="fill-rule:evenodd;clip-rule:evenodd;fill:#FFFFFF;" points="26.572,14.013 27.381,14.013 27.381,14.013 
			27.67,12.381 27.682,12.318 27.699,12.255 27.716,12.192 27.739,12.129 27.768,12.066 27.802,12.006 27.839,11.948 27.885,11.894 
			27.937,11.845 27.994,11.799 28.06,11.756 28.135,11.722 28.218,11.693 28.31,11.67 28.41,11.653 28.522,11.647 28.562,11.647 
			28.585,11.647 28.594,11.647 28.594,11.647 28.723,10.91 28.642,10.916 28.565,10.925 28.493,10.939 28.424,10.959 28.361,10.982 
			28.301,11.011 28.244,11.042 28.189,11.077 28.138,11.117 28.089,11.157 28.043,11.203 27.997,11.249 27.954,11.297 
			27.911,11.352 27.868,11.403 27.828,11.461 27.914,10.942 27.108,10.942 26.572,14.013 26.572,14.013 26.572,14.013 		"/>
		<polyline style="fill:none;stroke:#FFFFFF;stroke-width:0.0902;stroke-miterlimit:2.6131;" points="26.572,14.013 27.381,14.013 
			27.381,14.013 27.67,12.381 27.67,12.381 27.682,12.318 27.699,12.255 27.716,12.192 27.739,12.129 27.768,12.066 27.802,12.006 
			27.839,11.948 27.885,11.894 27.937,11.845 27.994,11.799 28.06,11.756 28.135,11.722 28.218,11.693 28.31,11.67 28.41,11.653 
			28.522,11.647 28.522,11.647 28.562,11.647 28.585,11.647 28.594,11.647 28.594,11.647 28.723,10.91 28.723,10.91 28.642,10.916 
			28.565,10.925 28.493,10.939 28.424,10.959 28.361,10.982 28.301,11.011 28.244,11.042 28.189,11.077 28.138,11.117 
			28.089,11.157 28.043,11.203 27.997,11.249 27.954,11.297 27.911,11.352 27.868,11.403 27.828,11.461 27.914,10.942 
			27.108,10.942 26.572,14.013 26.572,14.013 		"/>
		<polygon style="fill-rule:evenodd;clip-rule:evenodd;fill:#FFFFFF;" points="18.98,14.013 19.788,14.013 19.802,14.013 
			20.078,12.381 20.089,12.318 20.103,12.258 20.118,12.198 20.138,12.14 20.161,12.083 20.19,12.029 20.224,11.977 20.264,11.928 
			20.31,11.885 20.362,11.842 20.425,11.808 20.493,11.776 20.574,11.75 20.663,11.727 20.76,11.713 20.872,11.705 20.881,11.705 
			20.892,11.707 20.906,11.71 20.921,11.71 20.935,11.713 20.947,11.716 20.955,11.719 20.958,11.719 20.961,11.707 20.969,11.673 
			20.981,11.621 20.995,11.558 21.015,11.484 21.035,11.403 21.061,11.323 21.087,11.243 21.11,11.188 21.139,11.134 21.167,11.079 
			21.196,11.031 21.222,10.988 21.242,10.953 21.256,10.933 21.262,10.925 21.259,10.925 21.248,10.922 21.233,10.919 
			21.213,10.916 21.193,10.916 21.17,10.913 21.15,10.91 21.13,10.91 21.041,10.916 20.961,10.925 20.886,10.939 20.817,10.956 
			20.752,10.979 20.691,11.008 20.637,11.036 20.585,11.071 20.536,11.108 20.491,11.151 20.448,11.194 20.405,11.243 
			20.362,11.292 20.321,11.346 20.278,11.403 20.235,11.461 20.339,10.942 19.516,10.942 18.98,14.013 18.98,14.013 18.98,14.013 		
			"/>
		<polyline style="fill:none;stroke:#FFFFFF;stroke-width:0.0902;stroke-miterlimit:2.6131;" points="18.98,14.013 19.788,14.013 
			19.802,14.013 20.078,12.381 20.078,12.381 20.089,12.318 20.103,12.258 20.118,12.198 20.138,12.14 20.161,12.083 20.19,12.029 
			20.224,11.977 20.264,11.928 20.31,11.885 20.362,11.842 20.425,11.808 20.493,11.776 20.574,11.75 20.663,11.727 20.76,11.713 
			20.872,11.705 20.872,11.705 20.881,11.705 20.892,11.707 20.906,11.71 20.921,11.71 20.935,11.713 20.947,11.716 20.955,11.719 
			20.958,11.719 20.958,11.719 20.961,11.707 20.969,11.673 20.981,11.621 20.995,11.558 21.015,11.484 21.035,11.403 
			21.061,11.323 21.087,11.243 21.087,11.243 21.11,11.188 21.139,11.134 21.167,11.079 21.196,11.031 21.222,10.988 21.242,10.953 
			21.256,10.933 21.262,10.925 21.262,10.925 21.259,10.925 21.248,10.922 21.233,10.919 21.213,10.916 21.193,10.916 21.17,10.913 
			21.15,10.91 21.13,10.91 21.13,10.91 21.041,10.916 20.961,10.925 20.886,10.939 20.817,10.956 20.752,10.979 20.691,11.008 
			20.637,11.036 20.585,11.071 20.536,11.108 20.491,11.151 20.448,11.194 20.405,11.243 20.362,11.292 20.321,11.346 
			20.278,11.403 20.235,11.461 20.339,10.942 19.516,10.942 18.98,14.013 18.98,14.013 		"/>
		<polygon style="fill-rule:evenodd;clip-rule:evenodd;fill:#FBB231;" points="31.567,17.092 31.575,17.029 31.659,17.029 
			31.659,17.032 31.653,17.092 31.567,17.092 31.567,17.092 		"/>
	</g>
</g>
<g id="Discover" style="display:none;">
	<rect x="-0.417" y="0.056" style="display:inline;fill:#FFFFFF;" width="37" height="24"/>
	<g style="display:inline;">
		<path style="fill:#F58220;" d="M36.519,13.176c0,0-10.242,7.226-29,10.463h29V13.176z"/>
		<path style="fill:#E73530;" d="M32.571,20.601"/>
		
			<radialGradient id="SVGID_2_" cx="12.4923" cy="-477.1584" r="2.664" gradientTransform="matrix(1 0 0 1 6.416 486.083)" gradientUnits="userSpaceOnUse">
			<stop  offset="0.0056" style="stop-color:#FFEEE0"/>
			<stop  offset="0.1096" style="stop-color:#FEE9D7"/>
			<stop  offset="0.2793" style="stop-color:#FDDBBF"/>
			<stop  offset="0.4935" style="stop-color:#FBC597"/>
			<stop  offset="0.744" style="stop-color:#F8A560"/>
			<stop  offset="1" style="stop-color:#F48120"/>
		</radialGradient>
		<path style="fill:url(#SVGID_2_);" d="M18.912,6.291c-1.489,0-2.698,1.164-2.698,2.599c0,1.527,1.156,2.668,2.698,2.668
			c1.503,0,2.69-1.156,2.69-2.638C21.602,7.447,20.423,6.291,18.912,6.291z"/>
		<path style="fill:#001722;" d="M3.597,6.386h-1.45v5.058h1.443c0.765,0,1.319-0.181,1.805-0.584
			c0.576-0.478,0.918-1.198,0.918-1.943C6.312,7.424,5.196,6.386,3.597,6.386z M4.75,10.185c-0.312,0.281-0.713,0.403-1.351,0.403
			H3.134V7.242h0.265c0.638,0,1.024,0.114,1.351,0.409C5.092,7.955,5.295,8.425,5.295,8.91C5.295,9.396,5.092,9.883,4.75,10.185z"/>
		<rect x="6.767" y="6.386" style="fill:#001722;" width="0.986" height="5.058"/>
		<path style="fill:#001722;" d="M10.166,8.326C9.574,8.107,9.399,7.962,9.399,7.69c0-0.319,0.31-0.561,0.736-0.561
			c0.296,0,0.539,0.121,0.797,0.409l0.515-0.674c-0.425-0.373-0.933-0.562-1.487-0.562c-0.894,0-1.577,0.622-1.577,1.448
			c0,0.698,0.318,1.055,1.244,1.389c0.387,0.136,0.584,0.226,0.683,0.288c0.197,0.129,0.296,0.31,0.296,0.523
			c0,0.41-0.326,0.713-0.767,0.713c-0.47,0-0.849-0.235-1.077-0.675l-0.636,0.615c0.454,0.666,1,0.963,1.752,0.963
			c1.024,0,1.744-0.684,1.744-1.662C11.622,9.101,11.289,8.736,10.166,8.326z"/>
		<path style="fill:#001722;" d="M11.933,8.917c0,1.488,1.168,2.641,2.671,2.641c0.425,0,0.789-0.084,1.237-0.296v-1.161
			c-0.395,0.395-0.744,0.554-1.192,0.554c-0.993,0-1.699-0.721-1.699-1.745c0-0.97,0.728-1.737,1.654-1.737
			c0.47,0,0.827,0.167,1.237,0.569V6.581c-0.432-0.219-0.789-0.31-1.214-0.31C13.131,6.272,11.933,7.447,11.933,8.917z"/>
		<polygon style="fill:#001722;" points="23.835,9.784 22.485,6.386 21.407,6.386 23.555,11.573 24.085,11.573 26.27,6.386 
			25.201,6.386 		"/>
		<polygon style="fill:#001722;" points="26.719,11.444 29.517,11.444 29.517,10.588 27.705,10.588 27.705,9.222 29.448,9.222 
			29.448,8.365 27.705,8.365 27.705,7.242 29.517,7.242 29.517,6.386 26.719,6.386 		"/>
		<path style="fill:#001722;" d="M33.423,7.879c0-0.948-0.651-1.493-1.79-1.493h-1.464v5.058h0.987V9.411h0.129l1.365,2.033h1.214
			L32.27,9.313C33.014,9.161,33.423,8.653,33.423,7.879z M31.443,8.714h-0.287V7.181h0.303c0.616,0,0.949,0.259,0.949,0.751
			C32.408,8.44,32.075,8.714,31.443,8.714z"/>
		<path style="fill:#231F20;" d="M34.119,6.762c0-0.089-0.059-0.137-0.168-0.137h-0.144v0.446h0.105V6.898l0.125,0.173h0.132
			l-0.148-0.184C34.084,6.871,34.119,6.824,34.119,6.762z M33.933,6.823h-0.02V6.707h0.021c0.053,0,0.079,0.019,0.079,0.057
			C34.013,6.803,33.985,6.823,33.933,6.823z"/>
		<path style="fill:#231F20;" d="M33.972,6.458c-0.216,0-0.389,0.173-0.389,0.389c0,0.216,0.174,0.389,0.389,0.389
			c0.211,0,0.384-0.175,0.384-0.389C34.357,6.634,34.184,6.458,33.972,6.458z M33.972,7.167c-0.173,0-0.312-0.142-0.312-0.319
			c0-0.178,0.138-0.319,0.312-0.319c0.168,0,0.306,0.144,0.306,0.319C34.278,7.023,34.14,7.167,33.972,7.167z"/>
		<path style="fill:#231F20;" d="M10.99,12.774l1.32,1.383v-1.31h0.189v1.768l-1.32-1.38v1.304H10.99V12.774z"/>
		<path style="fill:#231F20;" d="M10.972,12.774v1.783h0.224c0,0,0-1.196,0-1.278c0.058,0.06,1.319,1.38,1.319,1.38v-1.83h-0.224
			c0,0,0,1.202,0,1.285c-0.058-0.061-1.32-1.383-1.32-1.383V12.774z M11.008,12.818c0.058,0.06,1.32,1.383,1.32,1.383
			s0-1.303,0-1.338c0.025,0,0.126,0,0.152,0c0,0.034,0,1.625,0,1.708c-0.058-0.061-1.319-1.381-1.319-1.381s0,1.296,0,1.331
			c-0.027,0-0.128,0-0.154,0C11.008,14.487,11.008,12.9,11.008,12.818z"/>
		<path style="fill:#231F20;" d="M13.413,12.846h0.877v0.175h-0.689v0.503h0.669v0.175h-0.669v0.664h0.689v0.175h-0.877V12.846z"/>
		<path style="fill:#231F20;" d="M14.289,12.828h-0.895v1.728h0.913v-0.211c0,0-0.656,0-0.689,0c0-0.033,0-0.596,0-0.63
			c0.033,0,0.668,0,0.668,0v-0.209c0,0-0.635,0-0.668,0c0-0.033,0-0.437,0-0.467c0.033,0,0.689,0,0.689,0v-0.211H14.289z
			 M14.272,12.863c0,0.025,0,0.115,0,0.14c-0.034,0-0.689,0-0.689,0v0.539c0,0,0.636,0,0.669,0c0,0.025,0,0.114,0,0.14
			c-0.033,0-0.669,0-0.669,0v0.699c0,0,0.655,0,0.689,0c0,0.026,0,0.115,0,0.14c-0.033,0-0.809,0-0.842,0c0-0.034,0-1.623,0-1.658
			C13.463,12.863,14.239,12.863,14.272,12.863z"/>
		<path style="fill:#231F20;" d="M15.621,14.538h-0.189v-1.518h-0.408v-0.175h1.01v0.175h-0.413V14.538z"/>
		<path style="fill:#231F20;" d="M16.034,12.828h-1.029v0.211c0,0,0.377,0,0.409,0c0,0.034,0,1.517,0,1.517h0.224
			c0,0,0-1.483,0-1.517c0.033,0,0.413,0,0.413,0v-0.211H16.034z M16.017,12.863c0,0.025,0,0.115,0,0.14c-0.032,0-0.413,0-0.413,0
			s0,1.484,0,1.518c-0.026,0-0.127,0-0.153,0c0-0.034,0-1.518,0-1.518s-0.376,0-0.408,0c0-0.025,0-0.115,0-0.14
			C15.074,12.863,15.983,12.863,16.017,12.863z"/>
		<path style="fill:#231F20;" d="M17.295,14.114l0.548-1.357l0.547,1.357l0.444-1.268h0.205l-0.65,1.78l-0.547-1.363l-0.548,1.363
			l-0.648-1.78h0.204L17.295,14.114z"/>
		<path style="fill:#231F20;" d="M17.827,12.751c0,0-0.498,1.232-0.531,1.313c-0.029-0.082-0.433-1.236-0.433-1.236h-0.242
			l0.674,1.848c0,0,0.517-1.288,0.548-1.366c0.031,0.078,0.548,1.366,0.548,1.366l0.674-1.848h-0.242c0,0-0.405,1.154-0.433,1.236
			c-0.033-0.081-0.547-1.353-0.547-1.353L17.827,12.751z M17.312,14.121c0,0,0.501-1.24,0.532-1.315
			c0.031,0.075,0.548,1.358,0.548,1.358s0.448-1.278,0.456-1.301c0.019,0,0.131,0,0.167,0c-0.016,0.045-0.594,1.632-0.625,1.714
			c-0.032-0.081-0.547-1.361-0.547-1.361s-0.515,1.28-0.547,1.361c-0.029-0.082-0.607-1.669-0.624-1.714c0.036,0,0.147,0,0.166,0
			c0.008,0.023,0.456,1.301,0.456,1.301L17.312,14.121z"/>
		<path style="fill:#231F20;" d="M21.478,13.694c0,0.487-0.4,0.874-0.882,0.874c-0.483,0-0.882-0.387-0.882-0.874
			c0-0.485,0.399-0.877,0.882-0.877C21.078,12.817,21.478,13.209,21.478,13.694z M19.901,13.692c0,0.381,0.31,0.7,0.694,0.7
			c0.384,0,0.693-0.319,0.693-0.7c0-0.384-0.305-0.701-0.693-0.701C20.207,12.991,19.901,13.308,19.901,13.692z"/>
		<path style="fill:#231F20;" d="M19.696,13.694c0,0.491,0.404,0.891,0.9,0.891c0.496,0,0.9-0.4,0.9-0.891
			c0-0.494-0.404-0.895-0.9-0.895C20.099,12.799,19.696,13.2,19.696,13.694z M19.73,13.694c0-0.474,0.388-0.859,0.865-0.859
			c0.476,0,0.865,0.385,0.865,0.859c0,0.472-0.389,0.856-0.865,0.856C20.118,14.55,19.73,14.166,19.73,13.694z"/>
		<path style="fill:#231F20;" d="M19.884,13.692c0,0.397,0.32,0.718,0.712,0.718c0.392,0,0.71-0.321,0.71-0.718
			c0-0.396-0.318-0.718-0.71-0.718C20.204,12.974,19.884,13.296,19.884,13.692z M19.919,13.692c0-0.376,0.303-0.683,0.676-0.683
			c0.373,0,0.675,0.306,0.675,0.683c0,0.376-0.302,0.683-0.675,0.683C20.222,14.375,19.919,14.068,19.919,13.692z"/>
		<path style="fill:#231F20;" d="M22.483,14.538h-0.188v-1.692h0.245c0.321,0,0.619,0.086,0.619,0.467
			c0,0.26-0.163,0.445-0.424,0.467l0.538,0.759h-0.232l-0.511-0.743h-0.048V14.538z M22.483,13.629h0.058
			c0.213,0,0.429-0.04,0.429-0.303c0-0.278-0.204-0.305-0.431-0.305h-0.056V13.629z"/>
		<path style="fill:#231F20;" d="M22.295,12.828h-0.018v1.728h0.224c0,0,0-0.71,0-0.743c0.013,0,0.029,0,0.029,0h0
			c0,0.013,0.498,0.736,0.498,0.736l0.245,0.008h0.035c0,0-0.517-0.727-0.544-0.766c0.25-0.034,0.412-0.217,0.412-0.477
			c0-0.327-0.208-0.485-0.637-0.485H22.295z M22.54,12.863c0.41,0,0.601,0.143,0.601,0.45c0,0.251-0.16,0.429-0.408,0.45
			l-0.031,0.003c0,0,0.501,0.704,0.538,0.755c-0.05,0-0.197,0-0.197,0h0c0-0.013-0.497-0.736-0.497-0.736l-0.061-0.007h-0.018
			c0,0,0,0.709,0,0.743c-0.026,0-0.128,0-0.153,0c0-0.034,0-1.623,0-1.658C22.343,12.863,22.54,12.863,22.54,12.863z"/>
		<path style="fill:#231F20;" d="M22.483,13.003h-0.018v0.643h0.076c0.208,0,0.446-0.037,0.446-0.32
			c0-0.298-0.232-0.323-0.448-0.323H22.483z M22.54,13.04c0.217,0,0.413,0.021,0.413,0.287c0,0.251-0.207,0.285-0.411,0.285
			c0,0-0.023,0-0.041,0c0-0.032,0-0.54,0-0.571C22.518,13.04,22.54,13.04,22.54,13.04z"/>
		<path style="fill:#231F20;" d="M24.982,12.846h0.253l-0.794,0.789l0.821,0.904h-0.26l-0.694-0.777l-0.047,0.046v0.731h-0.189
			v-1.692h0.189v0.725L24.982,12.846z"/>
		<path style="fill:#231F20;" d="M25.236,12.828h-0.26c0,0-0.642,0.644-0.696,0.7c0-0.076,0-0.7,0-0.7h-0.224v1.728h0.224
			c0,0,0-0.742,0-0.745c0.002,0.001,0.016-0.013,0.028-0.024c0.024,0.026,0.682,0.763,0.682,0.763l0.273,0.006h0.041
			c0,0-0.815-0.897-0.839-0.921c0.025-0.024,0.813-0.807,0.813-0.807H25.236z M25.193,12.863c-0.056,0.057-0.776,0.771-0.776,0.771
			s0.756,0.832,0.806,0.887c-0.058,0-0.221,0-0.221,0l0,0c0-0.009-0.681-0.771-0.681-0.771l-0.012-0.014l-0.06,0.06
			c0,0-0.005,0.691-0.005,0.725c-0.027,0-0.128,0-0.153,0c0-0.034,0-1.623,0-1.658c0.025,0,0.126,0,0.153,0c0,0.034,0,0.751,0,0.751
			s0.736-0.741,0.746-0.751C25.001,12.863,25.135,12.863,25.193,12.863z"/>
	</g>
</g>
<g id="JCB" style="display:none;">
	<rect x="-0.417" y="0.056" style="display:inline;fill:#FFFFFF;" width="37" height="24"/>
	<g style="display:inline;">
		<g>
			<defs>
				<path id="SVGID_3_" d="M24.655,12.385v1.671h1.882c0.059,0,0.17-0.009,0.224-0.021c0.362-0.075,0.662-0.388,0.662-0.814
					c0-0.424-0.3-0.738-0.662-0.814c-0.054-0.011-0.166-0.021-0.224-0.021H24.655z"/>
			</defs>
			<clipPath id="SVGID_4_">
				<use xlink:href="#SVGID_3_"  style="overflow:visible;"/>
			</clipPath>
			
				<linearGradient id="SVGID_5_" gradientUnits="userSpaceOnUse" x1="-352.5123" y1="68.7312" x2="-352.2044" y2="68.7312" gradientTransform="matrix(26.1054 0 0 -26.1054 9225.6113 1807.4752)">
				<stop  offset="0" style="stop-color:#007F49"/>
				<stop  offset="0.2817" style="stop-color:#1F9248"/>
				<stop  offset="0.7614" style="stop-color:#4FAF47"/>
				<stop  offset="1" style="stop-color:#62BA46"/>
			</linearGradient>
			<rect x="24.655" y="12.385" style="clip-path:url(#SVGID_4_);fill:url(#SVGID_5_);" width="2.767" height="1.671"/>
		</g>
		<g>
			<defs>
				<path id="SVGID_6_" d="M26.316,2.5c-1.794,0-3.25,1.418-3.25,3.167v3.288h4.599c0.107,0,0.237,0.007,0.318,0.012
					c1.041,0.051,1.809,0.571,1.809,1.475c0,0.711-0.525,1.318-1.48,1.454v0.037c1.055,0.071,1.863,0.637,1.863,1.528
					c0,0.963-0.887,1.583-2.068,1.583h-5.041V21.5h4.767c1.796,0,3.25-1.418,3.25-3.167V2.5H26.316z"/>
			</defs>
			<clipPath id="SVGID_7_">
				<use xlink:href="#SVGID_6_"  style="overflow:visible;"/>
			</clipPath>
			
				<linearGradient id="SVGID_8_" gradientUnits="userSpaceOnUse" x1="-352.5074" y1="68.6275" x2="-352.1999" y2="68.6275" gradientTransform="matrix(26.1095 0 0 -26.1095 9226.9287 1803.8289)">
				<stop  offset="0" style="stop-color:#007F49"/>
				<stop  offset="0.2817" style="stop-color:#1F9248"/>
				<stop  offset="0.7614" style="stop-color:#4FAF47"/>
				<stop  offset="1" style="stop-color:#62BA46"/>
			</linearGradient>
			<rect x="23.066" y="2.5" style="clip-path:url(#SVGID_7_);fill:url(#SVGID_8_);" width="8.017" height="19"/>
		</g>
		<g>
			<defs>
				<path id="SVGID_9_" d="M24.655,9.901v1.542h1.705c0.063,0,0.153-0.009,0.186-0.014C26.9,11.371,27.2,11.09,27.2,10.672
					c0-0.418-0.301-0.699-0.655-0.758c-0.033-0.004-0.123-0.013-0.186-0.013H24.655z"/>
			</defs>
			<clipPath id="SVGID_10_">
				<use xlink:href="#SVGID_9_"  style="overflow:visible;"/>
			</clipPath>
			
				<linearGradient id="SVGID_11_" gradientUnits="userSpaceOnUse" x1="-352.5138" y1="68.5017" x2="-352.2061" y2="68.5017" gradientTransform="matrix(26.1043 0 0 -26.1043 9225.2627 1798.8615)">
				<stop  offset="0" style="stop-color:#007F49"/>
				<stop  offset="0.2817" style="stop-color:#1F9248"/>
				<stop  offset="0.7614" style="stop-color:#4FAF47"/>
				<stop  offset="1" style="stop-color:#62BA46"/>
			</linearGradient>
			<rect x="24.655" y="9.901" style="clip-path:url(#SVGID_10_);fill:url(#SVGID_11_);" width="2.545" height="1.542"/>
		</g>
		<g>
			<defs>
				<path id="SVGID_12_" d="M8.333,2.5c-1.795,0-3.25,1.418-3.25,3.167v7.821c0.912,0.43,1.853,0.71,2.811,0.71
					c1.124,0,1.741-0.668,1.741-1.568V8.955h2.795v3.674c0,1.437-0.906,2.59-4.012,2.59c-1.87,0-3.336-0.394-3.336-0.394V21.5H9.85
					c1.795,0,3.25-1.418,3.25-3.167V2.5H8.333z"/>
			</defs>
			<clipPath id="SVGID_13_">
				<use xlink:href="#SVGID_12_"  style="overflow:visible;"/>
			</clipPath>
			
				<linearGradient id="SVGID_14_" gradientUnits="userSpaceOnUse" x1="-350.9311" y1="68.6493" x2="-350.6235" y2="68.6493" gradientTransform="matrix(26.063 0 0 -26.063 9151.4658 1801.2069)">
				<stop  offset="0" style="stop-color:#333377"/>
				<stop  offset="0.0516" style="stop-color:#30377B"/>
				<stop  offset="0.6857" style="stop-color:#0D65AC"/>
				<stop  offset="1" style="stop-color:#0077BF"/>
			</linearGradient>
			<rect x="5.083" y="2.5" style="clip-path:url(#SVGID_13_);fill:url(#SVGID_14_);" width="8.016" height="19"/>
		</g>
		<g>
			<defs>
				<path id="SVGID_15_" d="M17.325,2.5c-1.794,0-3.25,1.418-3.25,3.167v4.146c0.824-0.689,2.247-1.119,4.561-1.017
					c1.24,0.054,2.552,0.377,2.552,0.377v1.341c-0.657-0.324-1.446-0.626-2.462-0.7C16.971,9.684,15.914,10.52,15.914,12
					c0,1.48,1.056,2.316,2.812,2.186c1.015-0.076,1.815-0.383,2.462-0.699v1.34c0,0-1.313,0.323-2.552,0.378
					c-2.314,0.102-3.737-0.328-4.561-1.017V21.5h4.767c1.795,0,3.25-1.418,3.25-3.167V2.5H17.325z"/>
			</defs>
			<clipPath id="SVGID_16_">
				<use xlink:href="#SVGID_15_"  style="overflow:visible;"/>
			</clipPath>
			
				<linearGradient id="SVGID_17_" gradientUnits="userSpaceOnUse" x1="-351.7074" y1="68.6497" x2="-351.3998" y2="68.6497" gradientTransform="matrix(26.0644 0 0 -26.0644 9181.1885 1801.3142)">
				<stop  offset="0" style="stop-color:#743237"/>
				<stop  offset="0.3636" style="stop-color:#A5273D"/>
				<stop  offset="0.7903" style="stop-color:#D81C44"/>
				<stop  offset="1" style="stop-color:#EC1847"/>
			</linearGradient>
			<rect x="14.075" y="2.5" style="clip-path:url(#SVGID_16_);fill:url(#SVGID_17_);" width="8.017" height="19"/>
		</g>
	</g>
</g>
<g id="Dainers" style="display:none;">
	<rect x="-0.417" y="0.056" style="display:inline;fill:#FFFFFF;" width="37" height="24"/>
	<g style="display:inline;">
		<path style="fill:#004A97;" d="M19.681,16.031c3.56,0.017,6.809-2.902,6.809-6.455c0-3.884-3.249-6.569-6.809-6.568h-3.064
			c-3.602-0.001-6.567,2.684-6.567,6.568c0,3.553,2.965,6.472,6.567,6.455H19.681z"/>
		<path style="fill:#FFFFFF;" d="M17.984,13.035V5.982c1.418,0.544,2.424,1.916,2.427,3.526
			C20.408,11.119,19.401,12.491,17.984,13.035 M12.854,9.509c0.003-1.609,1.008-2.981,2.425-3.526v7.052
			C13.862,12.489,12.857,11.118,12.854,9.509 M16.632,3.547c-3.292,0.001-5.959,2.669-5.96,5.961c0.001,3.292,2.668,5.959,5.96,5.96
			c3.293-0.001,5.961-2.668,5.961-5.96C22.592,6.216,19.924,3.548,16.632,3.547"/>
		<path style="fill:#231F20;" d="M3.391,20.475c0,0.53,0.379,0.592,0.716,0.592c1.488,0,1.976-1.122,1.976-2.148
			c0-1.287-0.826-2.216-2.155-2.216c-0.283,0-0.413,0.02-0.537,0.027V20.475z M2.716,17.246c0-0.619-0.323-0.578-0.633-0.585v-0.179
			c0.268,0.013,0.543,0.013,0.812,0.013c0.289,0,0.681-0.013,1.191-0.013c1.783,0,2.754,1.19,2.754,2.41
			c0,0.682-0.399,2.396-2.836,2.396c-0.351,0-0.675-0.014-0.998-0.014c-0.309,0-0.613,0.007-0.922,0.014v-0.179
			c0.413-0.041,0.613-0.055,0.633-0.523V17.246z"/>
		<path style="fill:#231F20;" d="M7.818,17.081c-0.179,0-0.337-0.165-0.337-0.344c0-0.172,0.166-0.331,0.337-0.331
			c0.178,0,0.337,0.145,0.337,0.331C8.156,16.923,8.004,17.081,7.818,17.081 M7.082,21.109h0.131c0.192,0,0.33,0,0.33-0.228v-1.865
			c0-0.303-0.103-0.345-0.358-0.482v-0.11c0.324-0.097,0.709-0.227,0.737-0.248c0.049-0.027,0.089-0.035,0.124-0.035
			c0.034,0,0.048,0.041,0.048,0.097v2.643c0,0.228,0.151,0.228,0.344,0.228h0.117v0.179c-0.234,0-0.475-0.014-0.723-0.014
			c-0.248,0-0.496,0.007-0.751,0.014V21.109z"/>
		<path style="fill:#231F20;" d="M9.209,19.057c0-0.254-0.076-0.323-0.399-0.454v-0.131c0.296-0.096,0.578-0.186,0.908-0.331
			c0.021,0,0.041,0.014,0.041,0.069v0.448c0.393-0.282,0.73-0.516,1.192-0.516c0.585,0,0.791,0.427,0.791,0.964v1.776
			c0,0.228,0.151,0.228,0.344,0.228h0.124v0.179c-0.242,0-0.482-0.014-0.73-0.014c-0.248,0-0.496,0.007-0.744,0.014v-0.179h0.124
			c0.193,0,0.33,0,0.33-0.228v-1.782c0-0.393-0.24-0.585-0.633-0.585c-0.22,0-0.571,0.179-0.799,0.33v2.037
			c0,0.228,0.152,0.228,0.345,0.228h0.124v0.179c-0.241,0-0.482-0.014-0.73-0.014c-0.247,0-0.496,0.007-0.743,0.014v-0.179h0.124
			c0.193,0,0.33,0,0.33-0.228V19.057z"/>
		<path style="fill:#231F20;" d="M13.953,19.167c0.172,0,0.192-0.09,0.192-0.172c0-0.351-0.213-0.633-0.599-0.633
			c-0.42,0-0.709,0.309-0.791,0.805H13.953z M12.734,19.388c-0.014,0.062-0.014,0.165,0,0.399c0.04,0.654,0.461,1.191,1.011,1.191
			c0.379,0,0.676-0.207,0.93-0.461l0.096,0.096c-0.317,0.42-0.709,0.778-1.273,0.778c-1.095,0-1.315-1.06-1.315-1.501
			c0-1.35,0.909-1.749,1.39-1.749c0.558,0,1.158,0.351,1.164,1.081c0,0.042,0,0.083-0.006,0.124l-0.063,0.041H12.734z"/>
		<path style="fill:#231F20;" d="M14.896,21.109h0.186c0.192,0,0.33,0,0.33-0.228v-1.934c0-0.213-0.255-0.255-0.358-0.31v-0.103
			c0.503-0.214,0.778-0.393,0.841-0.393c0.04,0,0.061,0.021,0.061,0.09v0.619h0.015c0.172-0.268,0.461-0.709,0.881-0.709
			c0.172,0,0.392,0.117,0.392,0.365c0,0.186-0.131,0.352-0.323,0.352c-0.214,0-0.214-0.166-0.455-0.166
			c-0.117,0-0.503,0.158-0.503,0.572v1.617c0,0.228,0.137,0.228,0.33,0.228h0.385v0.179c-0.379-0.007-0.667-0.014-0.963-0.014
			c-0.282,0-0.571,0.007-0.819,0.014V21.109z"/>
		<path style="fill:#231F20;" d="M17.546,20.331c0.09,0.454,0.365,0.84,0.868,0.84c0.406,0,0.557-0.248,0.557-0.489
			c0-0.812-1.5-0.551-1.5-1.659c0-0.386,0.31-0.882,1.067-0.882c0.22,0,0.516,0.062,0.784,0.2l0.048,0.702h-0.158
			c-0.069-0.433-0.31-0.681-0.751-0.681c-0.276,0-0.537,0.158-0.537,0.454c0,0.806,1.597,0.558,1.597,1.638
			c0,0.454-0.365,0.937-1.184,0.937c-0.275,0-0.599-0.096-0.84-0.234l-0.076-0.792L17.546,20.331z"/>
		<path style="fill:#231F20;" d="M25.739,17.728h-0.172c-0.131-0.805-0.703-1.129-1.473-1.129c-0.792,0-1.942,0.53-1.942,2.182
			c0,1.391,0.992,2.389,2.052,2.389c0.681,0,1.246-0.468,1.384-1.191l0.158,0.041l-0.158,1.005c-0.289,0.18-1.067,0.365-1.522,0.365
			c-1.611,0-2.629-1.04-2.629-2.589c0-1.411,1.26-2.424,2.609-2.424c0.558,0,1.095,0.179,1.625,0.366L25.739,17.728z"/>
		<path style="fill:#231F20;" d="M25.987,21.109h0.13c0.193,0,0.331,0,0.331-0.228v-3.834c0-0.448-0.103-0.461-0.365-0.537v-0.11
			c0.275-0.089,0.564-0.213,0.709-0.296c0.075-0.041,0.131-0.076,0.151-0.076c0.042,0,0.056,0.042,0.056,0.097v4.757
			c0,0.228,0.151,0.228,0.344,0.228h0.116v0.179c-0.233,0-0.475-0.014-0.722-0.014c-0.248,0-0.495,0.007-0.75,0.014V21.109z"/>
		<path style="fill:#231F20;" d="M30.407,20.909c0,0.124,0.075,0.131,0.192,0.131c0.083,0,0.186-0.007,0.276-0.007v0.145
			c-0.296,0.027-0.861,0.172-0.992,0.213l-0.034-0.021v-0.558c-0.413,0.337-0.73,0.578-1.219,0.578
			c-0.372,0-0.757-0.241-0.757-0.819v-1.763c0-0.179-0.027-0.351-0.412-0.385v-0.131c0.248-0.007,0.798-0.048,0.888-0.048
			c0.076,0,0.076,0.048,0.076,0.2v1.776c0,0.207,0,0.799,0.599,0.799c0.234,0,0.544-0.179,0.833-0.419v-1.853
			c0-0.137-0.33-0.213-0.578-0.282v-0.124c0.619-0.041,1.005-0.096,1.074-0.096c0.055,0,0.055,0.048,0.055,0.124V20.909z"/>
		<path style="fill:#231F20;" d="M31.777,20.509c0,0.262,0.248,0.703,0.709,0.703c0.737,0,1.046-0.723,1.046-1.336
			c0-0.743-0.564-1.363-1.101-1.363c-0.256,0-0.469,0.165-0.654,0.324V20.509z M31.777,18.637c0.275-0.234,0.647-0.496,1.026-0.496
			c0.799,0,1.28,0.696,1.28,1.446c0,0.902-0.661,1.804-1.646,1.804c-0.509,0-0.778-0.165-0.957-0.241l-0.206,0.158l-0.144-0.075
			c0.061-0.406,0.096-0.806,0.096-1.226v-2.96c0-0.448-0.104-0.462-0.365-0.537V16.4c0.276-0.089,0.565-0.213,0.709-0.296
			c0.076-0.041,0.131-0.076,0.152-0.076c0.041,0,0.055,0.042,0.055,0.097V18.637z"/>
	</g>
</g>
<g id="Bancomer" style="display:none;">
	<rect x="-0.417" y="0.056" style="display:inline;fill:#00539F;" width="37" height="24"/>
	<g style="display:inline;">
		<polygon style="fill-rule:evenodd;clip-rule:evenodd;fill:#FFFFFF;" points="7.083,2.5 29.083,2.5 29.083,16.5 7.083,16.5 
			7.083,2.5 		"/>
		<g>
			<path style="fill-rule:evenodd;clip-rule:evenodd;fill:#00539E;" d="M24.376,7.012c0.36,0,0.42,0.12,0.6,0.48l1.499,4.498h-1.379
				l-0.3-1.08h-1.799l-0.36,1.08h-0.78l1.559-4.978H24.376L24.376,7.012z M24.556,10.191h-1.379l0.72-2.279L24.556,10.191
				L24.556,10.191z"/>
			<path style="fill-rule:evenodd;clip-rule:evenodd;fill:#00539E;" d="M16.611,11.99h-2.099V7.012h2.159
				c1.019,0,1.379,0.84,0.84,1.619l-0.24,0.36C19.01,9.831,18.41,11.99,16.611,11.99L16.611,11.99z M16.371,9.231l0.42-0.66
				c0.06-0.12,0.12-0.24,0.12-0.36c0-0.3-0.3-0.54-0.6-0.54h-0.6v3.658h0.3c0.6,0,1.08-0.3,1.08-1.08
				C17.091,9.651,16.791,9.291,16.371,9.231L16.371,9.231z"/>
			<path style="fill-rule:evenodd;clip-rule:evenodd;fill:#00539E;" d="M12.115,11.99h-2.099V7.012h2.159
				c1.02,0,1.379,0.84,0.84,1.619l-0.24,0.36C14.514,9.831,13.914,11.99,12.115,11.99L12.115,11.99z M11.875,9.231l0.42-0.66
				c0.06-0.12,0.12-0.24,0.12-0.36c0-0.3-0.3-0.54-0.6-0.54h-0.6v3.658h0.3c0.6,0,1.08-0.3,1.08-1.08
				C12.595,9.651,12.295,9.291,11.875,9.231L11.875,9.231z"/>
			<path style="fill-rule:evenodd;clip-rule:evenodd;fill:#00539E;" d="M21.529,7.012h0.78l-1.499,4.978h-1.2L17.99,7.012h0.9
				c0.3,0,0.42,0.06,0.6,0.66l0.9,3.119L21.529,7.012L21.529,7.012z"/>
		</g>
		<g>
			<path style="fill-rule:evenodd;clip-rule:evenodd;fill:#FFFFFF;" d="M12.526,21.442h0.62v-0.998c0-0.297,0.162-1.106,0.755-1.106
				c0.297,0,0.351,0.297,0.351,0.593v1.51h0.593v-1.753c0-0.351-0.216-0.728-0.701-0.728c-0.62,0-0.89,0.458-0.998,0.647l0,0v-0.593
				h-0.62V21.442L12.526,21.442z"/>
			<path style="fill-rule:evenodd;clip-rule:evenodd;fill:#FFFFFF;" d="M7.133,21.442h0.863c0.512,0,1.51,0,1.51-0.863
				c0-0.566-0.431-0.755-0.836-0.809v-0.027c0.297-0.054,0.674-0.27,0.674-0.728c0-0.674-0.728-0.755-1.348-0.755H7.133V21.442
				L7.133,21.442z M7.753,18.556h0.243c0.458,0,0.728,0.081,0.728,0.512c0,0.431-0.297,0.539-0.728,0.539H7.753V18.556L7.753,18.556
				z M7.753,19.932h0.243c0.485,0,0.917,0.108,0.917,0.593c0,0.593-0.512,0.62-0.917,0.62H7.753V19.932L7.753,19.932z"/>
			<path style="fill-rule:evenodd;clip-rule:evenodd;fill:#FFFFFF;" d="M27.573,21.442h0.593v-1.106
				c0-0.647,0.351-0.809,0.917-0.836v-0.512c-0.512,0.027-0.728,0.324-0.917,0.647l0,0v-0.593h-0.593V21.442L27.573,21.442z"/>
			<path style="fill-rule:evenodd;clip-rule:evenodd;fill:#FFFFFF;" d="M19.025,21.496c0.836,0,1.267-0.431,1.267-1.267
				c0-0.809-0.431-1.267-1.267-1.267c-0.836,0-1.24,0.458-1.24,1.267C17.784,21.064,18.189,21.496,19.025,21.496L19.025,21.496z
				 M18.432,20.228c0-0.431,0.081-1.052,0.593-1.052c0.539,0,0.62,0.62,0.62,1.052c0,0.458-0.081,1.052-0.62,1.052
				C18.513,21.28,18.432,20.687,18.432,20.228L18.432,20.228z"/>
			<path style="fill-rule:evenodd;clip-rule:evenodd;fill:#FFFFFF;" d="M11.42,20.606c0,0.404-0.297,0.566-0.512,0.566
				c-0.189,0-0.324-0.135-0.324-0.351c0-0.458,0.593-0.485,0.836-0.512V20.606L11.42,20.606z M11.42,21.442h0.593v-1.564
				c0-0.458-0.081-0.917-0.998-0.917c-0.863,0-0.998,0.378-1.052,0.755h0.647c0.027-0.297,0.054-0.539,0.405-0.539
				c0.404,0,0.404,0.431,0.404,0.701v0.216c-0.378,0.027-1.564,0.054-1.564,0.809c0,0.324,0.324,0.593,0.755,0.593
				c0.458,0,0.701-0.243,0.809-0.378l0,0V21.442L11.42,21.442z"/>
			<path style="fill-rule:evenodd;clip-rule:evenodd;fill:#FFFFFF;" d="M17.434,21.145c-0.162,0.054-0.297,0.081-0.485,0.081
				c-0.728,0-1.025-0.674-1.025-1.267c0-0.431,0.162-0.782,0.512-0.782c0.404,0,0.404,0.351,0.404,0.62h0.647
				c0-0.485-0.243-0.836-1.025-0.836c-0.836,0-1.213,0.458-1.213,1.187c0,0.89,0.539,1.321,1.456,1.348
				c0.297,0.027,0.566-0.081,0.809-0.189L17.434,21.145L17.434,21.145z"/>
			<path style="fill-rule:evenodd;clip-rule:evenodd;fill:#FFFFFF;" d="M27.088,21.145c-0.189,0.081-0.324,0.081-0.512,0.081
				c-0.863,0-1.106-0.782-1.106-1.267h1.699c0-0.458-0.189-0.998-1.106-0.998c-0.89,0-1.187,0.485-1.187,1.16
				c0,0.971,0.62,1.375,1.402,1.375c0.351,0,0.647-0.081,0.89-0.162L27.088,21.145L27.088,21.145z M25.497,19.716
				c0-0.135,0.081-0.539,0.566-0.539c0.431,0,0.512,0.351,0.512,0.539H25.497L25.497,19.716z"/>
			<path style="fill-rule:evenodd;clip-rule:evenodd;fill:#FFFFFF;" d="M20.697,21.442h0.566v-0.998c0-0.243,0.081-1.079,0.62-1.079
				c0.324,0,0.351,0.27,0.351,0.566v1.51h0.593v-0.998c0-0.297,0.081-1.079,0.593-1.079c0.297,0,0.351,0.243,0.351,0.512v1.564
				h0.593v-1.645c0-0.405-0.108-0.809-0.701-0.809c-0.539,0-0.755,0.404-0.836,0.593H22.8c0-0.27-0.189-0.593-0.674-0.593
				c-0.539,0-0.782,0.431-0.836,0.62h-0.027v-0.566h-0.566V21.442L20.697,21.442z"/>
		</g>
	</g>
</g>
<g id="postpay" style="display:none;">
	<rect x="-0.417" y="0.056" style="display:inline;fill:#F7E224;" width="37" height="24"/>
	<g style="display:inline;">
		<path style="fill:#0055A3;" d="M3.838,9.743c0.187-0.078,0.405-0.109,0.607-0.109c0.405,0,0.747,0.124,0.996,0.373
			c0.265,0.249,0.405,0.607,0.451,1.043c0.031,0.311,0,0.654-0.093,1.011c-0.078,0.358-0.202,0.669-0.373,0.934
			c-0.187,0.327-0.436,0.576-0.747,0.747c-0.249,0.156-0.529,0.233-0.84,0.265v-0.622c0.109-0.031,0.218-0.078,0.311-0.124
			c0.202-0.124,0.373-0.311,0.514-0.56c0.14-0.249,0.249-0.514,0.327-0.809c0.078-0.296,0.093-0.576,0.078-0.84
			c-0.031-0.28-0.124-0.498-0.28-0.669c-0.171-0.171-0.389-0.249-0.638-0.249c-0.109,0-0.218,0.016-0.311,0.047V9.743z M1.083,15.5
			l1.074-4.715c0.031-0.187,0.062-0.358,0.093-0.545c0.016-0.187,0.031-0.358,0.047-0.545h0.747l-0.062,0.638
			c0.233-0.233,0.467-0.42,0.7-0.529c0.047-0.031,0.109-0.047,0.156-0.062v0.436c-0.109,0.031-0.218,0.093-0.327,0.156
			c-0.202,0.14-0.373,0.342-0.498,0.591c-0.14,0.249-0.249,0.545-0.327,0.871c-0.078,0.342-0.093,0.607-0.078,0.825
			c0.016,0.249,0.109,0.436,0.265,0.591c0.156,0.14,0.358,0.218,0.607,0.218c0.124,0,0.249-0.016,0.358-0.047v0.622
			c-0.047,0-0.093,0-0.14,0c-0.296,0-0.529-0.062-0.747-0.171c-0.202-0.109-0.389-0.28-0.545-0.498L1.908,15.5H1.083z"/>
		<path style="fill:#0055A3;" d="M23.802,10.365c-0.093,0-0.171,0.016-0.265,0.031V9.789c0.047-0.016,0.078-0.031,0.109-0.047
			c0.218-0.109,0.467-0.156,0.731-0.156c0.405,0,0.731,0.124,0.965,0.358c0.233,0.233,0.373,0.576,0.405,1.027
			c0.078,0.84-0.078,1.556-0.482,2.132c-0.389,0.591-0.918,0.887-1.572,0.887c-0.047,0-0.109-0.016-0.156-0.016v-0.809
			c0.093-0.016,0.187-0.062,0.265-0.124c0.14-0.109,0.249-0.265,0.358-0.482c0.109-0.233,0.202-0.498,0.265-0.778
			c0.062-0.28,0.078-0.514,0.062-0.716c-0.016-0.233-0.093-0.405-0.202-0.514C24.16,10.427,24.004,10.365,23.802,10.365z
			 M23.537,10.396c-0.249,0.078-0.467,0.28-0.638,0.576c-0.249,0.42-0.342,0.887-0.296,1.4c0.031,0.265,0.093,0.467,0.233,0.607
			c0.124,0.14,0.296,0.218,0.514,0.218c0.062,0,0.124-0.016,0.187-0.031v0.809c-0.233-0.016-0.436-0.078-0.607-0.171
			c-0.218-0.109-0.389-0.296-0.514-0.529L21.919,15.5h-1.292l0.996-4.513c0.124-0.576,0.202-1.011,0.233-1.292h1.167l-0.031,0.514
			c0.187-0.171,0.358-0.311,0.545-0.42V10.396z"/>
		<path style="fill:#0055A3;" d="M28.657,11.906c-0.031-0.016-0.062-0.016-0.093-0.016c-0.047,0-0.078,0-0.14,0
			c-0.202,0-0.389,0.016-0.545,0.062v-0.685c0.171-0.016,0.373-0.016,0.576-0.016c0.093,0,0.171,0,0.218,0c0.047,0,0.093,0,0.14,0
			c0.031-0.156,0.062-0.265,0.062-0.358c0.016-0.078,0.016-0.14,0.016-0.202c-0.016-0.124-0.062-0.218-0.156-0.28
			c-0.078-0.062-0.202-0.093-0.358-0.093c-0.187,0-0.327,0.047-0.42,0.124c-0.031,0.031-0.062,0.047-0.078,0.093V9.665
			c0.156-0.031,0.327-0.031,0.498-0.031c0.545,0,0.949,0.078,1.245,0.265c0.28,0.187,0.436,0.451,0.467,0.809
			c0.016,0.109,0.016,0.218,0,0.342c-0.016,0.109-0.047,0.249-0.078,0.389l-0.327,1.432c-0.047,0.171-0.062,0.342-0.093,0.529
			c-0.016,0.187-0.016,0.358-0.016,0.545h-1.183c0-0.093,0-0.187,0-0.296c0-0.109,0.016-0.202,0.016-0.311
			c-0.156,0.218-0.342,0.389-0.529,0.482v-0.654c0.124-0.062,0.249-0.156,0.373-0.296C28.455,12.621,28.595,12.295,28.657,11.906z
			 M27.879,11.952c-0.171,0.047-0.311,0.109-0.436,0.202c-0.265,0.171-0.373,0.389-0.342,0.638c0,0.14,0.047,0.249,0.14,0.327
			c0.078,0.078,0.187,0.109,0.327,0.109c0.109,0,0.218-0.016,0.311-0.062v0.654l-0.031,0.016c-0.202,0.109-0.42,0.171-0.685,0.171
			c-0.373,0-0.669-0.109-0.903-0.311c-0.233-0.202-0.358-0.467-0.389-0.809c-0.047-0.529,0.156-0.934,0.591-1.214
			c0.342-0.218,0.809-0.358,1.416-0.405V11.952L27.879,11.952z M27.879,9.665v0.871c-0.062,0.078-0.093,0.187-0.124,0.311h-1.229
			c0.031-0.389,0.218-0.685,0.529-0.903C27.287,9.805,27.552,9.711,27.879,9.665z"/>
		<polygon style="fill:#0055A3;" points="30.306,15.484 31.333,13.928 30.586,9.665 31.862,9.665 32.22,12.59 33.87,9.665 
			35.083,9.665 32.438,14.1 31.676,15.484 		"/>
		<path style="fill:#0055A3;" d="M8.335,10.1c-0.109,0-0.202,0.016-0.311,0.047V9.603c0.124-0.016,0.265-0.016,0.405-0.016
			c0.498,0,0.887,0.124,1.183,0.358c0.311,0.249,0.467,0.591,0.514,1.027c0.031,0.342,0,0.716-0.109,1.105
			c-0.093,0.389-0.233,0.731-0.42,1.011c-0.218,0.327-0.467,0.56-0.778,0.7c-0.218,0.109-0.482,0.171-0.794,0.202v-0.545
			c0.124-0.031,0.249-0.078,0.342-0.14c0.187-0.109,0.342-0.28,0.482-0.514c0.156-0.265,0.265-0.56,0.342-0.887
			c0.078-0.342,0.109-0.622,0.093-0.871c-0.031-0.327-0.124-0.56-0.28-0.7C8.848,10.178,8.63,10.1,8.335,10.1z M8.023,10.147
			c-0.109,0.031-0.233,0.078-0.342,0.14c-0.187,0.14-0.358,0.327-0.498,0.576c-0.14,0.233-0.249,0.514-0.327,0.856
			c-0.078,0.342-0.093,0.638-0.078,0.887c0.016,0.28,0.124,0.482,0.28,0.638c0.171,0.156,0.389,0.233,0.669,0.233
			c0.109,0,0.202-0.016,0.296-0.031v0.545c-0.109,0-0.233,0.016-0.358,0.016c-0.498,0-0.903-0.124-1.198-0.389
			c-0.311-0.249-0.482-0.607-0.514-1.058c-0.031-0.373,0-0.747,0.124-1.151c0.109-0.405,0.265-0.747,0.482-1.043
			C6.763,10.1,7.012,9.914,7.323,9.774c0.202-0.078,0.451-0.14,0.7-0.171V10.147z"/>
		<path style="fill:#0055A3;" d="M10.98,12.544c-0.031,0.078-0.047,0.14-0.047,0.202c-0.016,0.062-0.016,0.109,0,0.156
			c0.016,0.171,0.078,0.296,0.202,0.373c0.124,0.093,0.296,0.124,0.545,0.124c0.327,0,0.576-0.062,0.762-0.187
			c0.187-0.14,0.265-0.311,0.249-0.514c0-0.124-0.062-0.233-0.171-0.327c-0.109-0.093-0.327-0.218-0.669-0.373
			c-0.436-0.202-0.747-0.389-0.918-0.56c-0.187-0.156-0.28-0.358-0.296-0.576c-0.031-0.373,0.109-0.669,0.405-0.918
			c0.311-0.233,0.731-0.358,1.26-0.358c0.482,0,0.84,0.078,1.074,0.218c0.249,0.14,0.373,0.342,0.405,0.638c0,0.047,0,0.093,0,0.156
			c0,0.047,0,0.124-0.016,0.233h-0.762c0-0.047,0-0.093,0-0.124s0-0.078,0-0.109c-0.016-0.156-0.078-0.28-0.202-0.358
			c-0.109-0.078-0.28-0.124-0.514-0.124c-0.265,0-0.467,0.062-0.607,0.171c-0.156,0.109-0.218,0.265-0.202,0.451
			c0.016,0.109,0.062,0.218,0.171,0.296c0.093,0.093,0.327,0.218,0.685,0.389c0.498,0.233,0.84,0.436,0.98,0.591
			c0.14,0.156,0.233,0.358,0.249,0.591c0.031,0.389-0.124,0.731-0.498,0.996c-0.358,0.265-0.84,0.405-1.432,0.405
			c-0.467,0-0.825-0.093-1.105-0.249c-0.265-0.171-0.405-0.405-0.436-0.716c-0.016-0.062-0.016-0.14,0-0.233
			c0.016-0.078,0.031-0.171,0.047-0.265H10.98z"/>
		<path style="fill:#0055A3;" d="M16.099,13.944c-0.156,0.016-0.296,0.031-0.42,0.047c-0.124,0-0.249,0.016-0.358,0.016
			c-0.311,0-0.545-0.047-0.685-0.156c-0.156-0.093-0.233-0.265-0.249-0.498c-0.016-0.078,0-0.218,0.016-0.389
			c0.016-0.187,0.062-0.373,0.093-0.576l0.482-2.116h-0.778l0.14-0.545h0.762l0.218-0.965l0.825-0.202l-0.249,1.167h0.918
			l-0.124,0.545h-0.918l-0.467,2.21c-0.047,0.171-0.078,0.296-0.078,0.373c-0.016,0.093-0.031,0.156-0.016,0.202
			c0,0.124,0.047,0.202,0.124,0.249c0.078,0.062,0.218,0.093,0.405,0.093c0.062,0,0.156-0.016,0.249-0.031
			c0.078,0,0.171-0.031,0.249-0.047L16.099,13.944z"/>
		<path style="fill:#0055A3;" d="M18.791,11.33h1.058c0.016-0.14,0.031-0.249,0.031-0.327c0.016-0.078,0.016-0.14,0-0.202
			c-0.016-0.233-0.109-0.405-0.265-0.529c-0.171-0.124-0.389-0.202-0.669-0.202c-0.047,0-0.109,0.016-0.156,0.016V9.571
			c0.062,0,0.109,0,0.171,0c0.545,0,0.965,0.109,1.245,0.311c0.265,0.202,0.436,0.529,0.467,0.98c0.016,0.156,0.016,0.327,0,0.498
			c0,0.171-0.031,0.358-0.078,0.545h-1.805V11.33L18.791,11.33z M18.791,13.975v-0.638c0.093-0.031,0.187-0.078,0.265-0.124
			c0.187-0.124,0.327-0.311,0.405-0.545h0.918c-0.109,0.42-0.342,0.747-0.7,0.98C19.429,13.819,19.134,13.928,18.791,13.975z
			 M17.702,11.33h1.089v0.576h-1.229c-0.047,0.124-0.062,0.233-0.078,0.358c-0.016,0.109-0.016,0.218-0.016,0.311
			c0.031,0.265,0.124,0.467,0.28,0.607c0.171,0.14,0.389,0.218,0.685,0.218c0.124,0,0.249-0.016,0.358-0.062v0.638
			c-0.14,0.016-0.296,0.031-0.451,0.031c-0.498,0-0.887-0.124-1.183-0.358c-0.28-0.233-0.451-0.576-0.482-1.011
			c-0.031-0.327,0-0.7,0.109-1.12c0.093-0.405,0.249-0.762,0.42-1.058c0.187-0.28,0.436-0.514,0.731-0.654
			c0.249-0.14,0.529-0.202,0.856-0.233v0.514c-0.249,0.031-0.467,0.124-0.638,0.311C17.936,10.598,17.78,10.91,17.702,11.33z"/>
	</g>
</g>
<g id="Carte_Bancaire" style="display:none;">
	<g style="display:inline;">
		
			<linearGradient id="SVGID_18_" gradientUnits="userSpaceOnUse" x1="-168.3981" y1="-155.2451" x2="-167.5091" y2="-155.2451" gradientTransform="matrix(0 26.9963 -0.8337 0 -111.4278 4546.125)">
			<stop  offset="0" style="stop-color:#231E6D"/>
			<stop  offset="0.2633" style="stop-color:#2B5FB8"/>
			<stop  offset="0.5004" style="stop-color:#339DFF"/>
			<stop  offset="0.8484" style="stop-color:#2F7867"/>
			<stop  offset="1" style="stop-color:#2D6929"/>
		</linearGradient>
		<rect x="-0.5" y="0" style="fill:url(#SVGID_18_);" width="37" height="23.999"/>
		<path style="fill:#FFFFFF;" d="M11.378,11.993h7.355c-0.065-1.453-0.436-2.95-1.56-3.913c-1.338-1.146-3.682-1.571-5.777-1.571
			c-2.18,0-4.591,0.467-5.937,1.696c-1.16,1.059-1.411,2.763-1.411,4.294c0,1.604,0.491,3.469,1.75,4.544
			c1.338,1.143,3.507,1.446,5.598,1.446c2.032,0,4.232-0.342,5.562-1.428c1.327-1.084,1.785-2.91,1.785-4.563
			c0-0.003,0-0.005,0-0.008h-7.366V11.993z"/>
		<path style="fill:#FFFFFF;" d="M19.227,12.493v5.731h10.232v-0.008c1.497-0.075,2.688-1.308,2.688-2.823
			c0-1.515-1.191-2.827-2.688-2.903v0.003H19.227z"/>
		<path style="fill:#FFFFFF;" d="M31.959,9.366c0-1.459-1.158-2.617-2.618-2.617c-0.1,0-0.225-0.019-0.323-0.008h-9.792v5.252
			h10.316C30.896,11.877,31.959,10.748,31.959,9.366z"/>
	</g>
</g>
<g id="Banorte" style="display:none;">
	<g style="display:inline;">
		<defs>
			<polygon id="SVGID_19_" points="-0.417,0 36.583,0 36.583,24 -0.417,24 -0.417,0 			"/>
		</defs>
		<clipPath id="SVGID_20_">
			<use xlink:href="#SVGID_19_"  style="overflow:visible;"/>
		</clipPath>
		<g style="clip-path:url(#SVGID_20_);">
			<defs>
				<rect id="SVGID_21_" x="-0.417" width="37" height="24"/>
			</defs>
			<clipPath id="SVGID_22_">
				<use xlink:href="#SVGID_21_"  style="overflow:visible;"/>
			</clipPath>
			<g transform="matrix(1 0 0 1 2.980232e-08 0)" style="clip-path:url(#SVGID_22_);">
				
					<image style="overflow:visible;" width="372" height="181" xlink:href="DF1D7FF3BC019A11.jpg"  transform="matrix(0.1008 0 0 -0.1368 -0.4732 24.756)">
				</image>
			</g>
		</g>
	</g>
	<g style="display:inline;">
		<polygon style="fill-rule:evenodd;clip-rule:evenodd;fill:#FFFFFF;" points="30.952,10.433 30.952,11.058 29.784,11.058 
			29.784,13.471 29.073,13.471 29.073,11.074 27.905,11.074 27.905,10.433 30.952,10.433 		"/>
		<polygon style="fill-rule:evenodd;clip-rule:evenodd;fill:#FFFFFF;" points="34.425,10.428 34.425,11.042 31.994,11.042 
			31.994,11.683 33.92,11.683 33.92,12.212 31.994,12.212 31.994,12.82 34.425,12.82 34.427,13.471 31.33,13.471 31.33,10.428 
			34.425,10.428 		"/>
		<path style="fill-rule:evenodd;clip-rule:evenodd;fill:#FFFFFF;" d="M17.171,11.571v1.9h-0.647v-3.037h0.616l2.273,1.97v-1.97
			h0.584l-0.001,3.037h-0.586C19.409,13.457,17.171,11.571,17.171,11.571L17.171,11.571z"/>
		<path style="fill-rule:evenodd;clip-rule:evenodd;fill:#FFFFFF;" d="M12.415,12.603v-0.095c0-0.246-0.185-0.534-0.185-0.537
			c0-0.034,0.19-0.191,0.19-0.496v-0.09v-0.086c0-0.596-0.58-0.87-0.766-0.87H8.962l0,3.049h2.794
			c0.1-0.006,0.122-0.035,0.268-0.112c0.113-0.059,0.39-0.334,0.39-0.628v-0.128V12.603L12.415,12.603z M11.723,12.652
			c-0.004,0.105-0.048,0.222-0.154,0.227c-0.131,0.006-1.935-0.002-1.993-0.002V12.26c0,0,1.916-0.004,2.015,0.001
			c0.083,0.005,0.13,0.094,0.132,0.214l0.002,0.127L11.723,12.652L11.723,12.652z M11.728,11.385l-0.003,0.09
			c0,0.105-0.048,0.222-0.154,0.227C11.44,11.708,9.637,11.7,9.578,11.7v-0.616c0,0,1.916-0.004,2.015,0.001
			c0.083,0.005,0.132,0.093,0.132,0.214v0.086H11.728L11.728,11.385z"/>
		<path style="fill-rule:evenodd;clip-rule:evenodd;fill:#FFFFFF;" d="M14.884,12.153H13.89l0.503-0.918L14.884,12.153
			L14.884,12.153z M14.614,10.433h-0.489l-1.66,3.037h0.658l0.418-0.715h1.626l0.417,0.715h0.652L14.614,10.433L14.614,10.433z"/>
		<path style="fill-rule:evenodd;clip-rule:evenodd;fill:#FFFFFF;" d="M23.455,11.923c-0.001,0.556-0.526,0.833-0.727,0.833h-1.105
			c-0.159,0-0.742-0.149-0.742-0.865c0-0.556,0.589-0.833,0.758-0.833h1.073C22.968,11.058,23.454,11.396,23.455,11.923
			L23.455,11.923L23.455,11.923z M24.134,11.914l-0.002-0.071c-0.015-0.717-0.71-1.415-1.232-1.415h-1.403
			c-0.817,0-1.327,0.903-1.327,1.351v0.433c0.039,0.881,0.846,1.235,1.121,1.265c0.195,0.022,1.657,0,1.657,0
			c0.133-0.006,1.043-0.207,1.184-1.313L24.134,11.914L24.134,11.914z"/>
		<path style="fill-rule:evenodd;clip-rule:evenodd;fill:#FFFFFF;" d="M27.099,11.357c0,0.152-0.06,0.289-0.192,0.312
			c-0.066,0-1.952,0.001-1.97-0.002l0.002-0.599h1.91C27.012,11.068,27.099,11.211,27.099,11.357L27.099,11.357z M27.668,11.234
			c-0.024-0.489-0.495-0.801-0.994-0.801h-2.368v3.037h0.647v-1.259h0.979c0.052,0,0.958,1.259,0.958,1.259h0.779l-0.932-1.227
			c0.05,0.004,0.241-0.008,0.241-0.008c0.371-0.008,0.69-0.172,0.69-0.713C27.668,11.493,27.67,11.275,27.668,11.234L27.668,11.234z
			"/>
		<path style="fill-rule:evenodd;clip-rule:evenodd;fill:#FFFFFF;" d="M4.452,11.261c-1.218-0.128-2.109-0.521-2.109-0.984
			c0-0.567,1.331-1.027,2.974-1.027c1.642,0,2.974,0.46,2.974,1.027c0,0.568-1.331,1.028-2.974,1.028
			c-0.089,0-0.177-0.002-0.264-0.005V9.593L4.452,11.261L4.452,11.261z"/>
		<path style="fill-rule:evenodd;clip-rule:evenodd;fill:#FFFFFF;" d="M4.374,11.513l-0.698,2.008
			C2.472,13.39,1.564,13,1.564,12.541C1.564,11.989,2.795,11.538,4.374,11.513L4.374,11.513z"/>
		<path style="fill-rule:evenodd;clip-rule:evenodd;fill:#FFFFFF;" d="M5.052,11.528c1.397,0.084,2.459,0.505,2.459,1.012
			c0,0.507-1.062,0.925-2.459,1.009V11.528L5.052,11.528z"/>
	</g>
</g>
<g id="Banamex" style="display:none;">
	<rect x="-0.417" y="0.056" style="display:inline;fill:#FFFFFF;" width="37" height="24"/>
	<g style="display:inline;">
		<path style="fill:#E2231A;" d="M23.7,8.225c-0.928-0.433-1.856-0.687-2.858-0.925c0.074-0.313,0.486-0.433,0.338-0.806
			c-0.177-0.433-0.515-0.761-0.868-1.074c0.043-0.179,0.205-0.359,0.323-0.492c0.855,0.612,1.459,1.581,1.62,2.581H22.3
			c0.325-0.491,0.648-0.97,1.002-1.447c0.088-0.149,0.132-0.328,0.103-0.507c-0.383-1.029-1.223-1.701-2.121-2.313
			c-0.089-0.06-0.221-0.089-0.325-0.179c-0.383-0.075-0.825-0.195-1.104,0.179c-0.28,0.328-0.619,0.776-0.885,1.149
			c-0.265,0.328-0.53,0.686-0.721,1.074c-0.177-0.149-0.25-0.373-0.442-0.523c-0.279-0.059-0.53,0.045-0.795,0.119
			c-0.266,0.046-0.486,0.314-0.737,0.314c-0.118-0.119-0.236-0.283-0.294-0.448c0.81-0.627,1.885-0.85,2.887-0.746
			C18.44,3.63,18.132,3.063,17.66,2.616c-0.692-0.343-1.399,0.164-2.033,0.403c-0.148,0.119-0.383,0.268-0.574,0.358
			c-0.443,0.373-1.032,0.657-1.061,1.283c-0.045,0.402,0.25,0.642,0.443,0.91c0.118,0.223,0.309,0.403,0.397,0.656
			c0.236,0.209,0.472,0.538,0.648,0.806c0.075,0.134,0.295,0.179,0.295,0.313l-0.589,0.224c-0.31,0.359-0.207,1.104-0.088,1.537
			c-0.162,0.104-0.339,0.225-0.56,0.179c-0.323-0.954-0.191-2.103,0.25-2.968l-1.061,0.328c-0.427,0.164-1.06,0.209-1.119,0.76
			c-0.147,1.179,0.059,2.372,0.589,3.357c0.515,0.835,1.428,0.194,2.076,0.075c0.089-0.031,0.207-0.015,0.251-0.075
			c0.426-0.104,0.855-0.254,1.222-0.418l0.03,0.552c0.191,0.343,0.589,0.432,0.927,0.538c0.208,0.075,0.472,0.015,0.663,0.134
			c-0.015,0.165,0.06,0.388-0.044,0.507c-0.957,0.015-1.812-0.298-2.49-0.864c-0.103-0.075-0.22-0.269-0.324-0.195l0.015,1.06
			h-0.015c0.059,0.403-0.074,0.956,0.324,1.223c1.031,0.536,2.343,0.761,3.551,0.492c0.854-0.313,0.545-1.238,0.633-2.059
			l0.059-0.03l1.959,0.611l0.309-0.074c0.589-0.477,0.943-1.029,1.268-1.686C23.862,9.821,24.42,8.881,23.7,8.225 M16.909,10.089
			c0.265-1.044-0.148-2.073-0.84-2.73c1.003-0.015,1.856-0.731,2.21-1.581c0.178,0.236,0.191,0.403,0.353,0.567
			c0.443,0.612,1.165,0.985,1.93,1.014l0.059,0.06c-0.708,0.582-1.135,1.582-0.869,2.611C18.897,9.568,17.734,9.507,16.909,10.089
			 M20.047,11.656l-0.031-0.104c-0.015-0.403,0.059-0.865-0.074-1.238c0.265,0.03,0.633,0.298,0.884,0.03
			c0.339-0.358,0.559-0.731,0.766-1.134c0.148,0.089,0.369,0.03,0.471,0.194C21.814,10.388,20.989,11.283,20.047,11.656"/>
		<g>
			<path style="fill:#001F5F;" d="M2.083,16.068c0.332-0.064,0.995-0.12,1.634-0.12c0.772,0,1.244,0.072,1.651,0.305
				c0.389,0.201,0.664,0.57,0.664,1.067c0,0.473-0.291,0.915-0.913,1.147v0.016c0.638,0.16,1.111,0.633,1.111,1.332
				c0,0.497-0.232,0.882-0.58,1.147c-0.407,0.313-1.087,0.49-2.199,0.49c-0.622,0-1.086-0.041-1.368-0.08V16.068z M3.335,18.13H3.75
				c0.672,0,1.02-0.264,1.02-0.666c0-0.409-0.324-0.625-0.896-0.625c-0.281,0-0.439,0.016-0.539,0.04V18.13z M3.335,20.53
				c0.125,0.024,0.274,0.024,0.49,0.024c0.572,0,1.078-0.217,1.078-0.787c0-0.545-0.506-0.762-1.137-0.762H3.335V20.53z"/>
			<path style="fill:#001F5F;" d="M10.326,20.425c0,0.39,0.015,0.772,0.064,1.002h-1.09L9.227,21.01H9.204
				C8.949,21.341,8.551,21.52,8.09,21.52c-0.788,0-1.257-0.611-1.257-1.273c0-1.078,0.907-1.587,2.284-1.587v-0.051
				c0-0.22-0.111-0.535-0.708-0.535c-0.398,0-0.82,0.144-1.074,0.306l-0.223-0.823c0.27-0.161,0.803-0.374,1.512-0.374
				c1.297,0,1.703,0.815,1.703,1.791V20.425z M9.156,19.466c-0.637,0-1.13,0.161-1.13,0.653c0,0.331,0.206,0.492,0.477,0.492
				c0.294,0,0.549-0.212,0.629-0.475c0.016-0.068,0.024-0.144,0.024-0.221V19.466z"/>
			<path style="fill:#001F5F;" d="M19.097,20.418c0,0.392,0.016,0.777,0.064,1.008h-1.09l-0.071-0.418h-0.024
				c-0.255,0.332-0.653,0.512-1.114,0.512c-0.787,0-1.257-0.614-1.257-1.28c0-1.084,0.907-1.596,2.284-1.596v-0.051
				c0-0.222-0.111-0.538-0.708-0.538c-0.398,0-0.82,0.145-1.075,0.308l-0.223-0.828c0.27-0.163,0.804-0.376,1.511-0.376
				c1.298,0,1.703,0.82,1.703,1.802V20.418z M17.927,19.453c-0.636,0-1.13,0.163-1.13,0.657c0,0.334,0.207,0.496,0.478,0.496
				c0.294,0,0.549-0.214,0.628-0.479c0.016-0.068,0.024-0.145,0.024-0.222V19.453z"/>
			<path style="fill:#001F5F;" d="M11.169,18.612c0-0.502-0.015-0.922-0.031-1.283h1.026l0.055,0.559h0.023
				c0.155-0.263,0.535-0.649,1.173-0.649c0.777,0,1.359,0.55,1.359,1.735v2.378h-1.18v-2.23c0-0.518-0.171-0.872-0.598-0.872
				c-0.327,0-0.521,0.238-0.606,0.469c-0.032,0.082-0.039,0.197-0.039,0.313v2.32h-1.181V18.612z"/>
			<path style="fill:#001F5F;" d="M19.892,18.577c0-0.508-0.015-0.933-0.031-1.3h1.018l0.048,0.559h0.023
				c0.166-0.267,0.514-0.65,1.169-0.65c0.504,0,0.891,0.275,1.057,0.7h0.016c0.15-0.217,0.316-0.383,0.505-0.5
				c0.213-0.125,0.45-0.2,0.735-0.2c0.742,0,1.302,0.55,1.302,1.766v2.4h-1.168v-2.208c0-0.592-0.182-0.933-0.569-0.933
				c-0.284,0-0.474,0.199-0.56,0.441c-0.024,0.092-0.04,0.217-0.04,0.317v2.383h-1.169v-2.283c0-0.508-0.174-0.858-0.56-0.858
				c-0.308,0-0.489,0.249-0.561,0.45c-0.039,0.1-0.047,0.217-0.047,0.325v2.366h-1.168V18.577z"/>
			<path style="fill:#001F5F;" d="M27.566,19.783c0.038,0.537,0.512,0.789,1.054,0.789c0.397,0,0.717-0.059,1.03-0.176l0.153,0.864
				c-0.381,0.176-0.848,0.26-1.351,0.26c-1.267,0-1.992-0.805-1.992-2.097c0-1.039,0.595-2.189,1.886-2.189
				c1.206,0,1.664,1.031,1.664,2.046c0,0.218-0.023,0.411-0.038,0.511L27.566,19.783z M28.933,18.912c0-0.302-0.122-0.83-0.649-0.83
				c-0.497,0-0.694,0.494-0.725,0.83H28.933z"/>
			<path style="fill:#001F5F;" d="M31.451,17.237l0.375,0.69c0.109,0.211,0.21,0.413,0.312,0.615h0.015
				c0.101-0.228,0.195-0.429,0.295-0.64l0.335-0.665h1.285l-1.254,1.96l1.269,2.155h-1.34l-0.382-0.741
				c-0.109-0.202-0.21-0.412-0.296-0.623h-0.023c-0.093,0.219-0.195,0.421-0.289,0.623l-0.358,0.741h-1.3l1.292-2.095l-1.262-2.02
				H31.451z"/>
		</g>
	</g>
</g>
</svg>
