<svg id="Layer_1" data-name="Layer 1" xmlns="http://www.w3.org/2000/svg" xmlns:xlink="http://www.w3.org/1999/xlink" viewBox="0 0 66 66"><defs><style>.cls-1,.cls-3,.cls-5{fill:#fff;}.cls-1,.cls-2{clip-rule:evenodd;}.cls-2{fill:none;}.cls-3{fill-rule:evenodd;}.cls-4{clip-path:url(#clip-path);}.cls-6{clip-path:url(#clip-path-2);}.cls-7{fill:#ec1c24;}</style><clipPath id="clip-path"><path class="cls-1" d="M-851.16244-221.6182c.19244-2.26586,1.43153-3.9966,2.6613-3.9966,1.26638,0,2.33164,1.75061,2.33164,3.10391,0,.65058-.11918.78963-.63317.78963Zm8.28248,5.67768a6.16667,6.16667,0,0,1-3.62226,1.29247c-2.53033,0-4.79742-1.72578-4.79742-5.46723,3.2976-.13037,7.74116-.44076,8.208-.54008.66673-.1285.76357-.20237.76357-1.45263a5.23005,5.23005,0,0,0-5.20339-5.03082c-4.07235,0-7.6791,3.58378-7.6791,8.39484a6.813,6.813,0,0,0,7.103,7.044,7.26713,7.26713,0,0,0,5.68326-3.58005l-.45938-.66424Zm7.057-1.0516c0,2.55762,1.2571,3.03811,1.87168,3.03811a3.4956,3.4956,0,0,0,1.72576-.537l.46931.99449-2.868,1.44767a3.333,3.333,0,0,1-1.26764.34764c-2.56381,0-4.02267-1.11927-4.02267-4.08475v-9.26828h-2.12l-.234-.42586,1.07394-1.27881h1.28069v-2.03616l3.51984-2.63522.57546.28184v4.38893h3.3007a1.14955,1.14955,0,0,1-.23342,1.70467h-3.06665v8.06272Zm3.97365-10.98164a1.64494,1.64494,0,0,1-.82254-.21727,1.6667,1.6667,0,0,1-.62078-.60838,1.64328,1.64328,0,0,1-.22971-.85046,1.68637,1.68637,0,0,1,.22349-.84179,1.60014,1.60014,0,0,1,.61892-.61457,1.64772,1.64772,0,0,1,.83185-.22349,1.662,1.662,0,0,1,.838.22349,1.60149,1.60149,0,0,1,.61455.61457,1.65366,1.65366,0,0,1,.22843.84116,1.66181,1.66181,0,0,1-.234.85048,1.68542,1.68542,0,0,1-.61712.60836,1.68163,1.68163,0,0,1-.82811.21727Zm.00308-.25514a1.39268,1.39268,0,0,0,.7015-.18624,1.3831,1.3831,0,0,0,.52761-.51525,1.38241,1.38241,0,0,0,.19444-.72011,1.46879,1.46879,0,0,0-.18635-.7139,1.37607,1.37607,0,0,0-.524-.52146,1.41953,1.41953,0,0,0-.71385-.19058,1.37062,1.37062,0,0,0-.70275.19,1.35282,1.35282,0,0,0-.52765.52145,1.4419,1.4419,0,0,0-.18624.7139,1.41118,1.41118,0,0,0,.19245.72011,1.40858,1.40858,0,0,0,.52765.51526,1.38084,1.38084,0,0,0,.69839.18375Zm-.31473-.42213h-.32714v-2.02935h.653a.74249.74249,0,0,1,.36131.06954.52354.52354,0,0,1,.19247.19987.63815.63815,0,0,1,.06818.28371.68675.68675,0,0,1-.093.34142.62906.62906,0,0,1-.298.24832.8659.8659,0,0,1,.22655.29612l.31793.596h-.36755l-.2632-.49912-.06394-.1285c-.077-.13658-.13038-.20238-.16762-.20238h-.23775v.82874Zm0-1.08016h.21727a.36649.36649,0,0,0,.30792-.11795.45438.45438,0,0,0,.085-.2657.35753.35753,0,0,0-.03289-.15891.35452.35452,0,0,0-.103-.11609.43978.43978,0,0,0-.23777-.0478h-.23714v.704Zm-60.70819,8.113c.19742-2.26586,1.43523-3.9966,2.66626-3.9966,1.27259,0,2.33413,1.75061,2.33413,3.10391,0,.65058-.12416.78963-.62079.78963l-4.37651.10305Zm8.28434,5.67768a6.14663,6.14663,0,0,1-3.60925,1.29247c-2.544,0-4.81727-1.72578-4.81727-5.46723,3.31747-.13037,7.76352-.44076,8.22539-.54008.66548-.1285.76356-.20237.76356-1.45263a5.23636,5.23636,0,0,0-5.20464-5.03082c-4.06862,0-7.66914,3.58378-7.66914,8.39484a6.80335,6.80335,0,0,0,7.09866,7.044,7.27571,7.27571,0,0,0,5.67705-3.58005l-.4625-.66424Zm1.63763,1.63018a2.51169,2.51169,0,0,1,2.52657-2.611,2.52,2.52,0,0,1,2.56074,2.61163,2.48759,2.48759,0,0,1-2.56134,2.61349,2.479,2.479,0,0,1-2.5266-2.61349Zm26.6297,2.47754h-2.03183l-13.26612-16.28313h-.072v6.91366a49.26041,49.26041,0,0,0,.33027,6.40027c.17567,1.15714,1.00877,1.59541,3.22434,1.68977v1.03981h-8.28744v-1.03981c1.66989-.06518,2.4707-.53263,2.6259-1.691a44.43934,44.43934,0,0,0,.34765-6.40027v-6.62375c0-2.12307,0-2.94872-.60714-3.74021-.63505-.81323-1.47124-1.02429-2.83511-1.136v-1.04975h5.80617l12.921,15.02914h.06827v-5.89123a47.384,47.384,0,0,0-.33087-6.39159c-.16761-1.17637-1.00566-1.58547-3.21876-1.69721v-1.04912h8.2831v1.04912c-1.6761.06519-2.4676.52145-2.63584,1.69784a47.84683,47.84683,0,0,0-.329,6.39158v12.78191Zm-149.14426-16.03854h.095l2.41112,6.87827h-4.89177l2.39-6.87827Zm2.93692,15.79768h9.13791v-1.04043c-1.76736-.22162-2.30619-.35757-3.46085-3.5099-1.2664-3.37582-2.74076-7.36062-4.13938-11.29949l-2.2013-6.20225-1.63887.45132-6.7417,17.15843c-1.16459,3.00334-1.60162,3.16165-3.59806,3.40189v1.04105h7.5214v-1.04043l-.82564-.09436c-1.54389-.172-1.60286-.52767-1.11306-2.20812.43455-1.44642.87034-2.91147,1.28005-3.8861h5.913c.50283,1.22294,1.13851,2.96734,1.57058,4.07854.56491,1.434.39357,1.80027-.83433,1.9803l-.87344.1254v1.04105Zm18.69549-11.60243c0-1.21984-.16327-1.434-1.028-1.57989l-1.03484-.16451v-.96842c1.67238-.085,4.57391-.40972,6.14388-.62327v11.33549c0,1.38435.13223,1.75309,1.195,1.75309h1.0367v1.03236a59.28786,59.28786,0,0,0-6.05262,1.23908l-.26385-.22969v-2.13673c-.63009.46559-1.1919.8902-1.92814,1.33965a5.35264,5.35264,0,0,1-2.92388.97835,4.07057,4.07057,0,0,1-4.32065-4.41376v-7.56113c0-1.22046-.16141-1.434-1.02429-1.58051l-.90635-.16451v-.96842c1.53582-.085,4.271-.40972,6.01353-.62327v10.06909c0,1.95733.99822,2.73144,2.25344,2.73144a4.409,4.409,0,0,0,2.837-1.27881v-8.1875Zm12.30577,6.684c0,2.55762,1.26454,3.03811,1.86856,3.03811a3.533,3.533,0,0,0,1.73819-.537l.45938.99449-2.86989,1.44767a3.35262,3.35262,0,0,1-1.26019.34764c-2.57625,0-4.01026-1.11927-4.01026-4.08475v-9.26828h-2.13611l-.23466-.42586,1.07024-1.27881h1.30178v-2.03616l3.50122-2.63522.57731.28184v4.38893h3.30071a1.146,1.146,0,0,1-.23093,1.70467h-3.07164v8.06272Zm10.79913-8.01865a6.881,6.881,0,0,1,4.55779-2.13549c3.03562,0,4.71173,1.90146,4.71173,5.047v6.76343c0,1.871.16762,1.99892,2.01134,2.22116v1.04043h-7.83862v-1.04043c1.61528-.22162,1.7444-.35012,1.7444-2.22116v-6.39779c0-2.06286-1.15465-2.93879-2.54521-2.93879a3.6974,3.6974,0,0,0-2.64143,1.0963v8.24151c0,1.87042.15955,1.99892,1.552,2.22054v1.04043h-8.03914v-1.04043c2.22985-.22162,2.39932-.35012,2.39932-2.22116v-16.12732c0-1.97409-.06331-2.02126-2.17708-2.14976v-.96036c1.47995-.22968,4.05-.70769,6.26245-1.17514v10.7352Zm16.434,4.623c0-3.613,1.41414-5.38219,2.778-5.38219,2.13425,0,3.41431,2.57314,3.41431,7.0285,0,4.82969-1.49732,5.65843-2.7066,5.65843-2.14544,0-3.4857-3.11012-3.4857-7.30661Zm3.2827-6.76218a7.84862,7.84862,0,0,0-7.8858,8.10121,7.28948,7.28948,0,0,0,7.71508,7.35007c3.84575,0,7.69026-2.611,7.69026-8.05528a7.27381,7.27381,0,0,0-7.51519-7.39352Zm14.66288,11.81349c0,1.86235.16141,1.99892,2.73145,2.22054v1.04043h-9.08827V-213.116c2.09824-.22162,2.27206-.35757,2.27206-2.22116v-7.40159c0-2.03741-.06394-2.061-2.21-2.30559v-.90014c1.95174-.27935,4.08724-.72011,6.29474-1.20432v3.315h.06581a13.47826,13.47826,0,0,1,1.56-2.13549,3.14537,3.14537,0,0,1,2.20565-1.18073,2.13588,2.13588,0,0,1,2.241,2.03927,2.55875,2.55875,0,0,1-1.57991,2.36953.97941.97941,0,0,1-1.03049-.13657,2.76536,2.76536,0,0,0-1.6668-.70273c-.56368,0-1.23413.25452-1.79593,1.64508v6.59892Zm8.70274-7.40283c0-2.03741-.06516-2.061-2.20129-2.30558v-.90014c1.96168-.27315,4.176-.72011,6.286-1.20059v11.76756c0,1.9058.1676,2.04237,2.29068,2.26337v1.04043H-919.939v-1.04043c2.13673-.22162,2.29877-.35757,2.29877-2.26337v-7.35938Zm4.18843-9.67489a2.39229,2.39229,0,0,1-2.42291,2.41111,2.43191,2.43191,0,0,1-2.42725-2.40863,2.44393,2.44393,0,0,1,2.42725-2.42726,2.40356,2.40356,0,0,1,2.42291,2.42726Zm15.46619,5.65222.2961.47987-7.67659,12.79h2.64329c2.29689,0,3.19083-.41841,4.3101-2.31552l.49041-.82812,1.20247.4451c-.59783,1.6637-1.02926,2.89906-1.53707,4.122h-12.04938l-.33275-.48856,7.915-12.785h-2.34656c-2.20627,0-2.79849.50594-3.56329,2.15163l-.47552,1.02181-1.19686-.44945c.3911-1.26205.91875-3.37706,1.22915-4.83714h.73873c.1676.49042.52765.699,1.80027.699h8.54816Z"/></clipPath><clipPath id="clip-path-2"><path class="cls-2" d="M-648.15411-222.404c.1198-1.41054.89115-2.488,1.65671-2.488.78834,0,1.45149,1.08978,1.45149,1.93224,0,.405-.07419.49156-.39416.49156Zm5.156,3.53446a3.83887,3.83887,0,0,1-2.25492.80459c-1.57518,0-2.98648-1.07433-2.98648-3.40345,2.05282-.08115,4.819-.27438,5.10962-.33621.415-.08.47534-.126.47534-.90429a3.2558,3.2558,0,0,0-3.23921-3.13178,5.01744,5.01744,0,0,0-4.78038,5.22594,4.24124,4.24124,0,0,0,4.42175,4.385,4.52392,4.52392,0,0,0,3.53794-2.22865l-.286-.4135Zm4.39314-.65464c0,1.59217.78257,1.89128,1.16515,1.89128a2.17607,2.17607,0,0,0,1.07432-.33428l.29215.61909-1.78539.9012a2.07486,2.07486,0,0,1-.78913.21641c-1.596,0-2.50419-.69677-2.50419-2.54283V-224.543h-1.31972l-.14569-.2651.66855-.79608h.79726v-1.26755l2.19116-1.64047.35824.17545v2.73219h2.05475a.71561.71561,0,0,1-.14531,1.06119h-1.909v5.01919Zm2.47367-6.83627a1.024,1.024,0,0,1-.512-.13526,1.03755,1.03755,0,0,1-.38645-.37872,1.023,1.023,0,0,1-.143-.52943,1.0498,1.0498,0,0,1,.13913-.524.99612.99612,0,0,1,.38529-.38258,1.02573,1.02573,0,0,1,.51784-.13913,1.03459,1.03459,0,0,1,.5217.13913.997.997,0,0,1,.38257.38258,1.02943,1.02943,0,0,1,.1422.52364,1.0345,1.0345,0,0,1-.14564.52944,1.0492,1.0492,0,0,1-.38417.37872,1.04685,1.04685,0,0,1-.51551.13526Zm.00192-.15883a.867.867,0,0,0,.4367-.11594.861.861,0,0,0,.32845-.32075.86057.86057,0,0,0,.121-.44828.91435.91435,0,0,0-.116-.44441.85663.85663,0,0,0-.32617-.32462.88368.88368,0,0,0-.44439-.11864.85324.85324,0,0,0-.43747.11826.84215.84215,0,0,0-.32847.32461.89761.89761,0,0,0-.11594.44441.87849.87849,0,0,0,.11981.44828.87687.87687,0,0,0,.32847.32076.8596.8596,0,0,0,.43476.11439Zm-.19592-.26278h-.20365v-1.26331h.40653a.46221.46221,0,0,1,.22492.04329.32591.32591,0,0,1,.11981.12443.39726.39726,0,0,1,.04245.17662.42751.42751,0,0,1-.0579.21254.3916.3916,0,0,1-.18553.15458.539.539,0,0,1,.141.18434l.19791.371h-.2288l-.16385-.31071-.0398-.08c-.04793-.085-.08116-.126-.10435-.126h-.148v.51591Zm0-.67242h.13525a.22815.22815,0,0,0,.19168-.07342.28286.28286,0,0,0,.05294-.16541.22257.22257,0,0,0-.02048-.09892.22069.22069,0,0,0-.06414-.07227.27377.27377,0,0,0-.148-.02976h-.14762v.43824Zm-37.792,5.05049c.12289-1.41054.89346-2.488,1.6598-2.488.79221,0,1.453,1.08978,1.453,1.93224,0,.405-.07729.49156-.38646.49156l-2.72445.06415Zm5.15716,3.53446a3.82639,3.82639,0,0,1-2.24682.80459c-1.58366,0-2.99884-1.07433-2.99884-3.40345,2.06519-.08115,4.83293-.27438,5.12045-.33621.41427-.08.47533-.126.47533-.90429a3.25973,3.25973,0,0,0-3.24-3.13178,5.01409,5.01409,0,0,0-4.77418,5.22594,4.23521,4.23521,0,0,0,4.419,4.385,4.52926,4.52926,0,0,0,3.53407-2.22865l-.28791-.4135Zm1.01945,1.01481a1.56357,1.56357,0,0,1,1.57284-1.6254,1.56872,1.56872,0,0,1,1.59411,1.62579,1.54857,1.54857,0,0,1-1.59448,1.62695,1.54323,1.54323,0,0,1-1.57286-1.62695Zm16.57748,1.54232H-652.628l-8.2584-10.13654h-.04483v4.30388a30.66552,30.66552,0,0,0,.2056,3.98428c.10936.72034.628.99317,2.00721,1.05191v.6473h-5.15908v-.6473c1.03954-.04058,1.53806-.33157,1.63467-1.05269a27.6643,27.6643,0,0,0,.21642-3.98429v-4.12341c0-1.32165,0-1.83563-.378-2.32835a2.18684,2.18684,0,0,0-1.7649-.7072v-.65349h3.61445l8.04355,9.35592h.0425v-3.6674a29.49744,29.49744,0,0,0-.206-3.97888c-.10434-.73231-.626-.987-2.00374-1.05654v-.6531h5.15638v.6531c-1.0434.04058-1.53613.32461-1.64086,1.05693a29.78552,29.78552,0,0,0-.20482,3.97888v7.957Zm-92.845-9.98428h.05913l1.501,4.28185h-3.04521l1.48783-4.28185Zm1.82829,9.83434h5.68852v-.64769c-1.10021-.138-1.43565-.22259-2.15445-2.185-.78835-2.10151-1.70617-4.58212-2.57684-7.03414l-1.37035-3.861-1.02022.281-4.19683,10.68144c-.725,1.86964-.997,1.96818-2.23986,2.11774v.64807h4.68221v-.64769l-.514-.05874c-.9611-.107-.99781-.32848-.6929-1.3746.27051-.90043.5418-1.81244.79686-2.41917h3.68092c.313.7613.70875,1.84722.97771,2.539.35167.8927.245,1.1207-.51939,1.23277l-.54373.07806v.64807Zm11.63828-7.22272c0-.75937-.10164-.8927-.64-.98351l-.64421-.10241v-.60286c1.04109-.05294,2.84735-.25506,3.82468-.388v7.05655c0,.86178.08231,1.09133.74391,1.09133h.64536v.64266a36.90776,36.90776,0,0,0-3.76786.77135l-.16425-.143v-1.33016c-.39225.28984-.742.55417-1.2003.834a3.33212,3.33212,0,0,1-1.82017.609,2.534,2.534,0,0,1-2.68969-2.74765v-4.70694c0-.75976-.10048-.8927-.63764-.9839l-.56422-.10241v-.60286c.95607-.05294,2.65877-.25506,3.74353-.388v6.26819c0,1.21847.62141,1.70037,1.40281,1.70037a2.74465,2.74465,0,0,0,1.76607-.79608v-5.09687Zm7.66056,4.16089c0,1.59217.7872,1.89128,1.16321,1.89128a2.19937,2.19937,0,0,0,1.08206-.33428l.286.61909-1.78656.9012a2.08707,2.08707,0,0,1-.78449.21641c-1.60376,0-2.49646-.69677-2.49646-2.54283V-224.543h-1.32976l-.14608-.2651.66624-.79608h.81038v-1.26755l2.17957-1.64047.35939.17545v2.73219h2.05476a.7134.7134,0,0,1-.14376,1.06119h-1.91215v5.01919Zm6.72266-4.99176a4.28355,4.28355,0,0,1,2.83731-1.32938c1.88973,0,2.93314,1.18369,2.93314,3.14183v4.21036c0,1.16476.10435,1.24436,1.25209,1.38271v.64769h-4.87969v-.64769c1.00554-.138,1.08592-.218,1.08592-1.38271v-3.98274c0-1.28417-.71879-1.82945-1.58444-1.82945a2.3017,2.3017,0,0,0-1.64434.68247v5.13049c0,1.16437.09932,1.24436.96613,1.38233v.64769h-5.00451v-.64769c1.38812-.138,1.49362-.218,1.49362-1.38271v-10.03955c0-1.22891-.03941-1.25827-1.35528-1.33826v-.59784c.9213-.143,2.52119-.44055,3.89849-.73154v6.68286Zm10.23046,2.87788c0-2.24913.88033-3.35051,1.72935-3.35051,1.32861,0,2.12547,1.60183,2.12547,4.37537,0,3.00657-.93211,3.52248-1.68491,3.52248-1.33558,0-2.16991-1.93611-2.16991-4.5485Zm2.04354-4.20958a4.88591,4.88591,0,0,0-4.90906,5.04315,4.53783,4.53783,0,0,0,4.80278,4.57555,4.67833,4.67833,0,0,0,4.78733-5.01456,4.52808,4.52808,0,0,0-4.67835-4.6026Zm9.12791,7.35412c0,1.15935.10048,1.24436,1.70038,1.38233v.64769h-5.65761v-.64769c1.3062-.138,1.4144-.22259,1.4144-1.38271v-4.60763c0-1.26832-.0398-1.283-1.37576-1.43527v-.56035c1.215-.1739,2.54438-.44828,3.91859-.74971v2.06363h.041a8.39046,8.39046,0,0,1,.97114-1.32938,1.958,1.958,0,0,1,1.37305-.735,1.32962,1.32962,0,0,1,1.39508,1.26948,1.59287,1.59287,0,0,1-.98352,1.47507.6097.6097,0,0,1-.6415-.085,1.72149,1.72149,0,0,0-1.03761-.43746c-.3509,0-.76827.15844-1.118,1.02409v4.10795Zm5.41761-4.6084c0-1.26832-.04057-1.283-1.37034-1.43527v-.56035c1.22118-.17,2.59963-.44828,3.91318-.74739v7.32552c0,1.1864.10433,1.27141,1.426,1.409v.64769h-5.39868v-.64769c1.33015-.138,1.431-.22259,1.431-1.409v-4.58135Zm2.60737-6.0228a1.48924,1.48924,0,0,1-1.5083,1.501,1.51391,1.51391,0,0,1-1.511-1.49941,1.52139,1.52139,0,0,1,1.511-1.511,1.49626,1.49626,0,0,1,1.5083,1.511Zm9.628,3.51861.18432.29873-4.77882,7.962h1.6455a2.48832,2.48832,0,0,0,2.68312-1.44145l.30529-.51552.74856.27708c-.37216,1.03568-.64073,1.80472-.95686,2.566h-7.501l-.20714-.30414,4.92722-7.95891h-1.46078c-1.37344,0-1.74211.315-2.21822,1.33943l-.296.63609-.74507-.27979c.24346-.78565.57194-2.10228.76517-3.01121h.45987c.10433.30529.32847.43514,1.1207.43514h5.32139Z"/></clipPath></defs><title>icon</title><path class="cls-3" d="M-851.16244-221.6182c.19244-2.26586,1.43153-3.9966,2.6613-3.9966,1.26638,0,2.33164,1.75061,2.33164,3.10391,0,.65058-.11918.78963-.63317.78963Zm8.28248,5.67768a6.16667,6.16667,0,0,1-3.62226,1.29247c-2.53033,0-4.79742-1.72578-4.79742-5.46723,3.2976-.13037,7.74116-.44076,8.208-.54008.66673-.1285.76357-.20237.76357-1.45263a5.23005,5.23005,0,0,0-5.20339-5.03082c-4.07235,0-7.6791,3.58378-7.6791,8.39484a6.813,6.813,0,0,0,7.103,7.044,7.26713,7.26713,0,0,0,5.68326-3.58005l-.45938-.66424Zm7.057-1.0516c0,2.55762,1.2571,3.03811,1.87168,3.03811a3.4956,3.4956,0,0,0,1.72576-.537l.46931.99449-2.868,1.44767a3.333,3.333,0,0,1-1.26764.34764c-2.56381,0-4.02267-1.11927-4.02267-4.08475v-9.26828h-2.12l-.234-.42586,1.07394-1.27881h1.28069v-2.03616l3.51984-2.63522.57546.28184v4.38893h3.3007a1.14955,1.14955,0,0,1-.23342,1.70467h-3.06665v8.06272Zm3.97365-10.98164a1.64494,1.64494,0,0,1-.82254-.21727,1.6667,1.6667,0,0,1-.62078-.60838,1.64328,1.64328,0,0,1-.22971-.85046,1.68637,1.68637,0,0,1,.22349-.84179,1.60014,1.60014,0,0,1,.61892-.61457,1.64772,1.64772,0,0,1,.83185-.22349,1.662,1.662,0,0,1,.838.22349,1.60149,1.60149,0,0,1,.61455.61457,1.65366,1.65366,0,0,1,.22843.84116,1.66181,1.66181,0,0,1-.234.85048,1.68542,1.68542,0,0,1-.61712.60836,1.68163,1.68163,0,0,1-.82811.21727Zm.00308-.25514a1.39268,1.39268,0,0,0,.7015-.18624,1.3831,1.3831,0,0,0,.52761-.51525,1.38241,1.38241,0,0,0,.19444-.72011,1.46879,1.46879,0,0,0-.18635-.7139,1.37607,1.37607,0,0,0-.524-.52146,1.41953,1.41953,0,0,0-.71385-.19058,1.37062,1.37062,0,0,0-.70275.19,1.35282,1.35282,0,0,0-.52765.52145,1.4419,1.4419,0,0,0-.18624.7139,1.41118,1.41118,0,0,0,.19245.72011,1.40858,1.40858,0,0,0,.52765.51526,1.38084,1.38084,0,0,0,.69839.18375Zm-.31473-.42213h-.32714v-2.02935h.653a.74249.74249,0,0,1,.36131.06954.52354.52354,0,0,1,.19247.19987.63815.63815,0,0,1,.06818.28371.68675.68675,0,0,1-.093.34142.62906.62906,0,0,1-.298.24832.8659.8659,0,0,1,.22655.29612l.31793.596h-.36755l-.2632-.49912-.06394-.1285c-.077-.13658-.13038-.20238-.16762-.20238h-.23775v.82874Zm0-1.08016h.21727a.36649.36649,0,0,0,.30792-.11795.45438.45438,0,0,0,.085-.2657.35753.35753,0,0,0-.03289-.15891.35452.35452,0,0,0-.103-.11609.43978.43978,0,0,0-.23777-.0478h-.23714v.704Zm-60.70819,8.113c.19742-2.26586,1.43523-3.9966,2.66626-3.9966,1.27259,0,2.33413,1.75061,2.33413,3.10391,0,.65058-.12416.78963-.62079.78963l-4.37651.10305Zm8.28434,5.67768a6.14663,6.14663,0,0,1-3.60925,1.29247c-2.544,0-4.81727-1.72578-4.81727-5.46723,3.31747-.13037,7.76352-.44076,8.22539-.54008.66548-.1285.76356-.20237.76356-1.45263a5.23636,5.23636,0,0,0-5.20464-5.03082c-4.06862,0-7.66914,3.58378-7.66914,8.39484a6.80335,6.80335,0,0,0,7.09866,7.044,7.27571,7.27571,0,0,0,5.67705-3.58005l-.4625-.66424Zm1.63763,1.63018a2.51169,2.51169,0,0,1,2.52657-2.611,2.52,2.52,0,0,1,2.56074,2.61163,2.48759,2.48759,0,0,1-2.56134,2.61349,2.479,2.479,0,0,1-2.5266-2.61349Zm26.6297,2.47754h-2.03183l-13.26612-16.28313h-.072v6.91366a49.26041,49.26041,0,0,0,.33027,6.40027c.17567,1.15714,1.00877,1.59541,3.22434,1.68977v1.03981h-8.28744v-1.03981c1.66989-.06518,2.4707-.53263,2.6259-1.691a44.43934,44.43934,0,0,0,.34765-6.40027v-6.62375c0-2.12307,0-2.94872-.60714-3.74021-.63505-.81323-1.47124-1.02429-2.83511-1.136v-1.04975h5.80617l12.921,15.02914h.06827v-5.89123a47.384,47.384,0,0,0-.33087-6.39159c-.16761-1.17637-1.00566-1.58547-3.21876-1.69721v-1.04912h8.2831v1.04912c-1.6761.06519-2.4676.52145-2.63584,1.69784a47.84683,47.84683,0,0,0-.329,6.39158v12.78191Zm-149.14426-16.03854h.095l2.41112,6.87827h-4.89177l2.39-6.87827Zm2.93692,15.79768h9.13791v-1.04043c-1.76736-.22162-2.30619-.35757-3.46085-3.5099-1.2664-3.37582-2.74076-7.36062-4.13938-11.29949l-2.2013-6.20225-1.63887.45132-6.7417,17.15843c-1.16459,3.00334-1.60162,3.16165-3.59806,3.40189v1.04105h7.5214v-1.04043l-.82564-.09436c-1.54389-.172-1.60286-.52767-1.11306-2.20812.43455-1.44642.87034-2.91147,1.28005-3.8861h5.913c.50283,1.22294,1.13851,2.96734,1.57058,4.07854.56491,1.434.39357,1.80027-.83433,1.9803l-.87344.1254v1.04105Zm18.69549-11.60243c0-1.21984-.16327-1.434-1.028-1.57989l-1.03484-.16451v-.96842c1.67238-.085,4.57391-.40972,6.14388-.62327v11.33549c0,1.38435.13223,1.75309,1.195,1.75309h1.0367v1.03236a59.28786,59.28786,0,0,0-6.05262,1.23908l-.26385-.22969v-2.13673c-.63009.46559-1.1919.8902-1.92814,1.33965a5.35264,5.35264,0,0,1-2.92388.97835,4.07057,4.07057,0,0,1-4.32065-4.41376v-7.56113c0-1.22046-.16141-1.434-1.02429-1.58051l-.90635-.16451v-.96842c1.53582-.085,4.271-.40972,6.01353-.62327v10.06909c0,1.95733.99822,2.73144,2.25344,2.73144a4.409,4.409,0,0,0,2.837-1.27881v-8.1875Zm12.30577,6.684c0,2.55762,1.26454,3.03811,1.86856,3.03811a3.533,3.533,0,0,0,1.73819-.537l.45938.99449-2.86989,1.44767a3.35262,3.35262,0,0,1-1.26019.34764c-2.57625,0-4.01026-1.11927-4.01026-4.08475v-9.26828h-2.13611l-.23466-.42586,1.07024-1.27881h1.30178v-2.03616l3.50122-2.63522.57731.28184v4.38893h3.30071a1.146,1.146,0,0,1-.23093,1.70467h-3.07164v8.06272Zm10.79913-8.01865a6.881,6.881,0,0,1,4.55779-2.13549c3.03562,0,4.71173,1.90146,4.71173,5.047v6.76343c0,1.871.16762,1.99892,2.01134,2.22116v1.04043h-7.83862v-1.04043c1.61528-.22162,1.7444-.35012,1.7444-2.22116v-6.39779c0-2.06286-1.15465-2.93879-2.54521-2.93879a3.6974,3.6974,0,0,0-2.64143,1.0963v8.24151c0,1.87042.15955,1.99892,1.552,2.22054v1.04043h-8.03914v-1.04043c2.22985-.22162,2.39932-.35012,2.39932-2.22116v-16.12732c0-1.97409-.06331-2.02126-2.17708-2.14976v-.96036c1.47995-.22968,4.05-.70769,6.26245-1.17514v10.7352Zm16.434,4.623c0-3.613,1.41414-5.38219,2.778-5.38219,2.13425,0,3.41431,2.57314,3.41431,7.0285,0,4.82969-1.49732,5.65843-2.7066,5.65843-2.14544,0-3.4857-3.11012-3.4857-7.30661Zm3.2827-6.76218a7.84862,7.84862,0,0,0-7.8858,8.10121,7.28948,7.28948,0,0,0,7.71508,7.35007c3.84575,0,7.69026-2.611,7.69026-8.05528a7.27381,7.27381,0,0,0-7.51519-7.39352Zm14.66288,11.81349c0,1.86235.16141,1.99892,2.73145,2.22054v1.04043h-9.08827V-213.116c2.09824-.22162,2.27206-.35757,2.27206-2.22116v-7.40159c0-2.03741-.06394-2.061-2.21-2.30559v-.90014c1.95174-.27935,4.08724-.72011,6.29474-1.20432v3.315h.06581a13.47826,13.47826,0,0,1,1.56-2.13549,3.14537,3.14537,0,0,1,2.20565-1.18073,2.13588,2.13588,0,0,1,2.241,2.03927,2.55875,2.55875,0,0,1-1.57991,2.36953.97941.97941,0,0,1-1.03049-.13657,2.76536,2.76536,0,0,0-1.6668-.70273c-.56368,0-1.23413.25452-1.79593,1.64508v6.59892Zm8.70274-7.40283c0-2.03741-.06516-2.061-2.20129-2.30558v-.90014c1.96168-.27315,4.176-.72011,6.286-1.20059v11.76756c0,1.9058.1676,2.04237,2.29068,2.26337v1.04043H-919.939v-1.04043c2.13673-.22162,2.29877-.35757,2.29877-2.26337v-7.35938Zm4.18843-9.67489a2.39229,2.39229,0,0,1-2.42291,2.41111,2.43191,2.43191,0,0,1-2.42725-2.40863,2.44393,2.44393,0,0,1,2.42725-2.42726,2.40356,2.40356,0,0,1,2.42291,2.42726Zm15.46619,5.65222.2961.47987-7.67659,12.79h2.64329c2.29689,0,3.19083-.41841,4.3101-2.31552l.49041-.82812,1.20247.4451c-.59783,1.6637-1.02926,2.89906-1.53707,4.122h-12.04938l-.33275-.48856,7.915-12.785h-2.34656c-2.20627,0-2.79849.50594-3.56329,2.15163l-.47552,1.02181-1.19686-.44945c.3911-1.26205.91875-3.37706,1.22915-4.83714h.73873c.1676.49042.52765.699,1.80027.699h8.54816Z"/><g class="cls-4"><rect class="cls-5" x="-1516.87611" y="-807.40676" width="2315.58052" height="1653.98609"/></g><path class="cls-7" d="M10.73209,18H7.21576C3.76226,18,.83217,20.62952.83217,25.7342a6.574,6.574,0,0,0,3.94719,6.4344L.06175,40.70711c-.15419.27855,0,.49458.24589.49458h2.1896a.34939.34939,0,0,0,.37023-.216L7.154,32.60156H8.69678v8.3841a.23161.23161,0,0,0,.21491.216h1.913c.18507,0,.24678-.09257.24678-.24668V18.30951C11.07145,18.09257,10.948,18,10.73209,18ZM8.69678,30.622H7.40093c-2.03533,0-4.009-1.48494-4.009-5.19735,0-3.8676,1.85024-5.445,3.73135-5.445H8.69678Z"/><path d="M22.324,25.69142H20.412a.239.239,0,0,0-.24678.21594v5.909H16.61807v-5.909c0-.15421-.06072-.21594-.21493-.21594h-1.913a.21972.21972,0,0,0-.24577.21594V40.9429c0,.15431.06172.24689.21491.24689h1.94383a.2194.2194,0,0,0,.21493-.24689V33.766h3.54719V40.9429a.227.227,0,0,0,.24678.24689h1.912a.21867.21867,0,0,0,.21592-.24689V25.90737A.2109.2109,0,0,0,22.324,25.69142Z"/><path d="M65.98137,40.20043l-.24689-1.052c-.02985-.09249-.06091-.12335-.1533-.12335a8.97734,8.97734,0,0,1-2.18972.33938c-2.3438,0-3.48547-2.25729-3.48547-5.84624,0-3.156.9565-6.28011,2.56006-6.28011a2.53157,2.53157,0,0,1,1.78832.89769.31924.31924,0,0,0,.24689.12345c.09278,0,.18517-.06273.27795-.217l.833-1.3605a.5087.5087,0,0,0,.09239-.27966c0-.12345-.12345-.21592-.30862-.30852a5.91569,5.91569,0,0,0-2.86825-.77333c-2.89932,0-5.15076,3.46449-5.15076,8.87776,0,4.67182,2.15905,7.363,5.24314,7.363a6.342,6.342,0,0,0,3.23859-1.021A.30927.30927,0,0,0,65.98137,40.20043Z"/><path d="M52.578,32.68224l3.70049-6.77487c.06174-.09249.03067-.21594-.09278-.21594H54.36635a.82564.82564,0,0,0-.89354.58717l-2.77669,5.78553a1.451,1.451,0,0,1-.4619.64988V25.90737c0-.12335-.06174-.21594-.18517-.21594H48.04449a.2065.2065,0,0,0-.18517.21594V40.97376a.204.204,0,0,0,.18517.216h2.00456c.12343,0,.18517-.09257.18517-.216V33.2087a.67055.67055,0,0,1,.21582.27865l3.51532,7.2385a.82706.82706,0,0,0,.86411.46393H56.803c.12345,0,.1541-.12345.09239-.216Z"/><path d="M34.9072,39.241h-.37034c-.46271,0-.58614-.18507-.58614-.55629V25.90737c0-.15421-.06174-.21594-.18517-.21594H27.598a.22.22,0,0,0-.24689.21594v1.1137c0,3.74326-.216,8.56926-2.18962,12.21993h-.67884c-.18507,0-.24678.09361-.24678.2478v4.51659a.209.209,0,0,0,.21592.216h1.481a.4349.4349,0,0,0,.4618-.46392v-2.5677h6.60063v2.8156a.21022.21022,0,0,0,.215.216h1.57351c.18416,0,.36912-.15429.36912-.46392v-4.2687A.22745.22745,0,0,0,34.9072,39.241Zm-3.33116,0H27.10423a20.40041,20.40041,0,0,0,2.40554-9.43506c.06172-.80421.09257-1.64027.09257-2.16572H31.576Z"/><path d="M41.1982,25.3202c-3.33015,0-4.81107,4.207-4.81107,8.78529,0,4.67169,2.09692,7.45544,5.18141,7.45544a6.87464,6.87464,0,0,0,3.51511-1.021.21653.21653,0,0,0,.12345-.27774l-.24668-1.052a.21565.21565,0,0,0-.24688-.18507,9.17553,9.17553,0,0,1-2.28211.33938c-2.37467,0-3.48446-2.07212-3.48446-4.79423v-.7325s1.20216.14431,1.912.14431h4.50249v-1.2998C45.36141,27.888,43.66447,25.3202,41.1982,25.3202Zm-.33927,6.71307c-.7098,0-1.81937.12343-1.81937.12343a8.7899,8.7899,0,0,1,.06172-.95941c.27652-2.62954.92461-3.95919,2.00435-3.95919.98735,0,1.60336,1.3605,1.75765,3.74316.03088.49468.03088,1.052.03088,1.052Z"/></svg>