<?xml version="1.0" encoding="utf-8"?>
<!-- Generated by IcoMoon.io -->
<!DOCTYPE svg PUBLIC "-//W3C//DTD SVG 1.1//EN" "http://www.w3.org/Graphics/SVG/1.1/DTD/svg11.dtd">
<svg version="1.1" xmlns="http://www.w3.org/2000/svg" xmlns:xlink="http://www.w3.org/1999/xlink" width="1024" height="1024" viewBox="0 0 1024 1024"><g id="icomoon-ignore">
</g>
<path d="M810.688 170.688q18.304 0 30.528 12.16t12.16 30.528q0 17.984-12.352 30.336l-268.672 268.352 268.672 268.352q12.352 12.352 12.352 30.336 0 18.304-12.16 30.528t-30.528 12.16q-17.984 0-30.336-12.352l-268.352-268.672-268.352 268.672q-12.352 12.352-30.336 12.352-18.304 0-30.528-12.16t-12.16-30.528q0-17.984 12.352-30.336l268.672-268.352-268.672-268.352q-12.352-12.352-12.352-30.336 0-18.304 12.16-30.528t30.528-12.16q17.984 0 30.336 12.352l268.352 268.672 268.352-268.672q12.352-12.352 30.336-12.352z"></path>
</svg>
