<?xml version="1.0" encoding="utf-8"?>
<!-- Generated by IcoMoon.io -->
<!DOCTYPE svg PUBLIC "-//W3C//DTD SVG 1.1//EN" "http://www.w3.org/Graphics/SVG/1.1/DTD/svg11.dtd">
<svg version="1.1" xmlns="http://www.w3.org/2000/svg" xmlns:xlink="http://www.w3.org/1999/xlink" width="1024" height="1024" viewBox="0 0 1024 1024"><g id="icomoon-ignore">
</g>
<path d="M512 1023.754c-282.173 0-511.754-229.581-511.754-511.754s229.581-511.754 511.754-511.754c282.173 0 511.754 229.581 511.754 511.754s-229.581 511.754-511.754 511.754zM512 39.608c-260.465 0-472.392 211.927-472.392 472.392s211.927 472.392 472.392 472.392c260.465 0 472.392-211.927 472.392-472.392s-211.927-472.392-472.392-472.392zM511.59 820.593c-30.188 0-49.357-21.914-49.357-50.217-0.901-27.443 19.21-49.357 51.159-49.357 28.303 0 48.415 21.955 48.415 49.357 0 28.303-21.012 50.217-50.217 50.217zM471.368 204.022c0 0 80.364 0 80.364 0s0 442.081 0 442.081c0 0-80.364 0-80.364 0s0-442.081 0-442.081z"></path>
</svg>
