<?xml version="1.0" encoding="utf-8"?>
<!-- Generator: Adobe Illustrator 19.2.1, SVG Export Plug-In . SVG Version: 6.00 Build 0)  -->
<svg version="1.1" id="Layer_1" xmlns="http://www.w3.org/2000/svg" xmlns:xlink="http://www.w3.org/1999/xlink" x="0px" y="0px"
	 viewBox="0 0 11 14" style="enable-background:new 0 0 11 14;" xml:space="preserve">
<style type="text/css">
	.st0{fill:#FFFFFF;}
</style>
<path class="st0" d="M9,5V4.4c0-2-1-4-3.5-4S2,2.4,2,4.4V5C0.9,5,0,5.9,0,7v5c0,1.1,0.9,2,2,2h7c1.1,0,2-0.9,2-2V7
	C11,5.9,10.1,5,9,5z M4,4.4c0-1,0-2,1.5-2c1.7,0,1.5,1.1,1.5,2V5H4V4.4z M6,10.4v1.5c0,0.3-0.2,0.5-0.5,0.5S5,12.1,5,11.9v-1.5l-1-2
	l1.5-1.1L7,8.4L6,10.4z"/>
</svg>
