<?xml version="1.0" encoding="utf-8"?>
<!-- Generated by IcoMoon.io -->
<!DOCTYPE svg PUBLIC "-//W3C//DTD SVG 1.1//EN" "http://www.w3.org/Graphics/SVG/1.1/DTD/svg11.dtd">
<svg version="1.1" xmlns="http://www.w3.org/2000/svg" xmlns:xlink="http://www.w3.org/1999/xlink" width="1024" height="1024" viewBox="0 0 1024 1024"><g id="icomoon-ignore">
</g>
<path d="M512 1024c-282.816 0-512-229.184-512-512s229.184-512 512-512 512 229.184 512 512-229.184 512-512 512zM512 92.672c-229.184 0-419.328 185.28-419.328 419.328s185.28 419.328 419.328 419.328 419.328-185.28 419.328-419.328-190.144-419.328-419.328-419.328zM555.904 599.744c0 24.384 0 53.632 0 53.632h-92.672c0 0 0-68.288 0-92.672s19.52-48.768 48.768-48.768v0c53.632 0 92.672-43.904 92.672-92.672s-43.904-92.672-92.672-92.672-92.672 39.040-92.672 92.672c0 14.656 4.864 34.112 14.656 48.768h-97.536c-4.864-14.656-4.864-29.248-4.864-48.768 0-102.4 82.88-185.28 185.28-185.28s185.28 82.88 185.28 185.28c-4.864 87.744-63.36 156.032-146.304 180.416zM555.904 789.952h-92.672v-92.672h92.672v92.672z"></path>
</svg>
